<svg width="13" height="13" viewBox="0 0 13 13" fill="none" xmlns="http://www.w3.org/2000/svg">
<g clip-path="url(#clip0_1_2130)">
<path d="M1.96492 13H11.036C11.987 13 12.7597 12.2272 12.7597 11.2763V2.68665C12.7597 1.73573 11.987 0.962945 11.036 0.962945H10.3523V0.481473C10.3523 0.216655 10.1356 0 9.87082 0C9.606 0 9.38935 0.216655 9.38935 0.481473V0.962945H3.6116V0.481473C3.6116 0.216655 3.3949 0 3.13009 0C2.86527 0 2.64861 0.216655 2.64861 0.481473V0.962945H1.96492C1.014 0.962945 0.241211 1.73573 0.241211 2.68665V11.2763C0.241211 12.2272 1.014 13 1.96492 13ZM1.2042 2.68665C1.2042 2.26778 1.54604 1.92593 1.96492 1.92593H2.64861V2.4074C2.64861 2.67222 2.86527 2.88888 3.13009 2.88888C3.3949 2.88888 3.61156 2.67222 3.61156 2.4074V1.92593H9.38935V2.4074C9.38935 2.67222 9.606 2.88888 9.87082 2.88888C10.1356 2.88888 10.3523 2.67222 10.3523 2.4074V1.92593H11.036C11.4549 1.92593 11.7967 2.26778 11.7967 2.68665V4.0926H1.2042V2.68665ZM1.2042 5.05554H11.7968V11.2763C11.7968 11.6952 11.4549 12.037 11.0361 12.037H1.96492C1.54604 12.037 1.2042 11.6952 1.2042 11.2763V5.05554Z" fill="black"/>
</g>
<defs>
<clipPath id="clip0_1_2130">
<rect width="13" height="13" fill="white"/>
</clipPath>
</defs>
</svg>
