<svg width="46" height="46" viewBox="0 0 46 46" fill="none" xmlns="http://www.w3.org/2000/svg">
<path d="M44.8242 31.4809L38.8451 26.3559C38.2789 25.871 37.5565 25.6038 36.8117 25.6038H36.3154C37.1513 23.4523 37.582 21.183 37.582 18.833C37.582 8.49395 29.1711 0.0830078 18.832 0.0830078C8.49297 0.0830078 0.0820312 8.49395 0.0820312 18.833C0.0820312 27.6419 6.16432 35.1955 14.6654 37.1179V41.2288C14.6654 41.8038 15.132 42.2705 15.707 42.2705H18.432C18.9076 44.3549 20.7727 45.9163 22.9987 45.9163C25.2247 45.9163 27.0898 44.3549 27.5654 42.2705H33.0154C33.4909 44.3549 35.356 45.9163 37.582 45.9163C39.8081 45.9163 41.6732 44.3549 42.1487 42.2705H42.7904C44.5138 42.2705 45.9154 40.8689 45.9154 39.1455V33.8538C45.9154 32.9398 45.5175 32.0752 44.8242 31.4809ZM32.8206 9.78926C34.3341 12.1221 35.2805 14.8544 35.4628 17.7913H28.193C28.1352 15.5736 27.8925 13.47 27.4956 11.5382C29.307 11.096 31.0841 10.5122 32.8206 9.78926ZM16.7487 21.4372C15.5997 21.4372 14.6654 22.3716 14.6654 23.5205V25.3304C13.8451 25.4257 13.0284 25.5393 12.2195 25.6877C11.8471 23.8726 11.6174 21.9085 11.5586 19.8747H26.0982C26.0836 20.3986 26.057 20.9195 26.0232 21.4372H16.7487ZM11.5555 17.7913C11.6122 15.6799 11.8388 13.7278 12.1956 11.971C14.3685 12.37 16.5826 12.583 18.832 12.583C21.0815 12.583 23.2956 12.37 25.4685 11.971C25.8253 13.7283 26.0523 15.6804 26.1086 17.7913H11.5555ZM31.5393 8.06582C30.057 8.65697 28.543 9.13822 27.0029 9.51426C26.2492 6.83145 25.1753 4.57936 23.8763 2.94863C26.8925 3.90905 29.5367 5.70645 31.5393 8.06582ZM18.832 2.16634C21.1576 2.16634 23.5909 5.08874 24.9758 9.94343C22.9638 10.3059 20.9138 10.4997 18.832 10.4997C16.7497 10.4997 14.7003 10.3059 12.6883 9.94343C14.0732 5.08874 16.5065 2.16634 18.832 2.16634ZM13.7872 2.94863C12.4888 4.57884 11.4148 6.83145 10.6607 9.51426C9.12057 9.13822 7.60703 8.65697 6.12474 8.06582C8.12734 5.70645 10.7716 3.90905 13.7872 2.94863ZM4.84349 9.78926C6.57995 10.5122 8.35703 11.096 10.169 11.5382C9.77162 13.47 9.52943 15.5736 9.47161 17.7913H2.2013C2.38359 14.8544 3.32995 12.1221 4.84349 9.78926ZM4.82422 27.8799C3.31276 25.5372 2.38151 22.7981 2.2013 19.8747H9.47578C9.53464 22.0643 9.77839 24.1705 10.1805 26.1226C8.35391 26.5674 6.56536 27.1544 4.82422 27.8799ZM6.09974 29.6028C7.58776 29.0091 9.11328 28.5262 10.6664 28.1481C11.4107 30.807 12.4716 33.0762 13.7732 34.7195C10.7237 33.7554 8.08672 31.9544 6.09974 29.6028ZM12.7128 27.7132C13.3596 27.5971 14.0112 27.5049 14.6654 27.4242V32.358C13.8862 31.0887 13.2232 29.5091 12.7128 27.7132ZM22.9987 43.833C21.5628 43.833 20.3945 42.6648 20.3945 41.2288C20.3945 39.7929 21.5628 38.6247 22.9987 38.6247C24.4346 38.6247 25.6029 39.7929 25.6029 41.2288C25.6029 42.6648 24.4346 43.833 22.9987 43.833ZM29.2487 40.1872H27.5654C27.0898 38.1028 25.2247 36.5413 22.9987 36.5413C20.7727 36.5413 18.9076 38.1028 18.432 40.1872H16.7487V23.5205H29.2487V40.1872ZM29.2487 21.4372H28.1117C28.1435 20.9189 28.1674 20.3981 28.1815 19.8747H35.4648C35.344 21.8674 34.8721 23.7872 34.0622 25.6038H31.332V23.5205C31.332 22.3716 30.3977 21.4372 29.2487 21.4372ZM37.582 43.833C36.1461 43.833 34.9779 42.6648 34.9779 41.2288C34.9779 39.7929 36.1461 38.6247 37.582 38.6247C39.018 38.6247 40.1862 39.7929 40.1862 41.2288C40.1862 42.6648 39.018 43.833 37.582 43.833ZM43.832 39.1455C43.832 39.72 43.3648 40.1872 42.7904 40.1872H42.1487C41.6732 38.1028 39.8081 36.5413 37.582 36.5413C35.356 36.5413 33.4909 38.1028 33.0154 40.1872H31.332V27.6872H36.8117C37.0602 27.6872 37.3003 27.7762 37.4893 27.9377L43.4685 33.0627C43.6997 33.2606 43.832 33.5492 43.832 33.8538V39.1455ZM39.6654 33.9372C39.6654 34.5122 39.1987 34.9788 38.6237 34.9788H34.457C33.882 34.9788 33.4154 34.5122 33.4154 33.9372V30.8122C33.4154 30.2372 33.882 29.7705 34.457 29.7705C35.032 29.7705 35.4987 30.2372 35.4987 30.8122V32.8955H38.6237C39.1987 32.8955 39.6654 33.3622 39.6654 33.9372Z" fill="black"/>
</svg>
