<svg width="46" height="46" viewBox="0 0 46 46" fill="none" xmlns="http://www.w3.org/2000/svg">
<g clip-path="url(#clip0_1_483)">
<path d="M5.51172 26.9502H6.22993C6.72614 26.9502 7.12837 26.5479 7.12837 26.0518C7.12837 25.5556 6.72614 25.1533 6.22993 25.1533H5.51172C5.01551 25.1533 4.61328 25.5556 4.61328 26.0518C4.61328 26.5479 5.01551 26.9502 5.51172 26.9502Z" fill="black"/>
<path d="M15.278 26.9492C15.7743 26.9492 16.1765 26.5469 16.1765 26.0508C16.1765 25.5547 15.7743 25.1523 15.278 25.1523H9.82812C9.33192 25.1523 8.92969 25.5547 8.92969 26.0508C8.92969 26.5469 9.33192 26.9492 9.82812 26.9492H15.278Z" fill="black"/>
<path d="M5.51172 31.2148H15.2758C15.772 31.2148 16.1742 30.8125 16.1742 30.3164C16.1742 29.8203 15.772 29.418 15.2758 29.418H5.51172C5.01551 29.418 4.61328 29.8203 4.61328 30.3164C4.61328 30.8125 5.01551 31.2148 5.51172 31.2148Z" fill="black"/>
<path d="M35.2834 18.575V3.50651C35.2834 1.89498 33.971 0.583984 32.3579 0.583984H2.92307C1.31127 0.583984 0 1.89507 0 3.50651V14.187C0 14.6831 0.402231 15.0854 0.898438 15.0854C1.39464 15.0854 1.79688 14.6831 1.79688 14.187V3.50651C1.79688 2.88578 2.30207 2.38086 2.92307 2.38086H11.2564V14.0342C11.2564 14.3598 11.4326 14.66 11.7169 14.8186C12.0011 14.9773 12.3491 14.9699 12.6263 14.799L17.6405 11.7085L22.6546 14.799C23.2435 15.1619 24.0245 14.7226 24.0245 14.0341V2.38086H32.3579C32.9802 2.38086 33.4866 2.88578 33.4866 3.50651V18.3125C33.1359 18.2853 32.7816 18.2711 32.4241 18.2711C24.9383 18.2711 18.8481 24.3597 18.8481 31.8435C18.8481 32.5987 18.9112 33.3394 19.0304 34.0614H2.92307C2.30207 34.0614 1.79688 33.5553 1.79688 32.9332V22.2528C1.79688 21.7567 1.39464 21.3543 0.898438 21.3543C0.402231 21.3543 0 21.7567 0 22.2528V32.9333C0 34.5462 1.31127 35.8583 2.92307 35.8583H19.4545C21.1708 41.3883 26.3357 45.416 32.4241 45.416C39.9099 45.416 46 39.3274 46 31.8436C46 25.3402 41.4007 19.8913 35.2834 18.575ZM22.2276 12.4251L18.1119 9.88838C17.8228 9.71031 17.4581 9.71031 17.1691 9.88838L13.0533 12.4251V2.38086H22.2276V12.4251ZM32.4241 43.6191C25.9291 43.6191 20.645 38.3366 20.645 31.8436C20.645 25.3506 25.9291 20.068 32.4241 20.068C38.9191 20.068 44.2031 25.3505 44.2031 31.8436C44.2031 38.3367 38.9191 43.6191 32.4241 43.6191Z" fill="black"/>
<path d="M34.0592 26.64H30.6272L32.229 25.04C32.58 24.6893 32.5804 24.1205 32.2297 23.7693C31.879 23.4182 31.3102 23.4181 30.959 23.7686L27.8215 26.9027C27.4752 27.246 27.4752 27.8308 27.8215 28.174L30.959 31.3082C31.1345 31.4834 31.3642 31.571 31.594 31.571C31.8241 31.571 32.0541 31.4832 32.2296 31.3075C32.5803 30.9565 32.58 30.3876 32.229 30.0368L30.6272 28.4367H34.0593C36.2333 28.4367 38.0021 30.2049 38.0021 32.3783C38.0021 34.553 36.2333 36.3223 34.0593 36.3223H25.9531C25.4569 36.3223 25.0547 36.7246 25.0547 37.2208C25.0547 37.7169 25.4569 38.1192 25.9531 38.1192H34.0593C37.2242 38.1192 39.7989 35.5438 39.7989 32.3783C39.7989 29.2142 37.2241 26.64 34.0592 26.64Z" fill="black"/>
<path d="M0.898438 19.1207C1.39464 19.1207 1.79688 18.7158 1.79688 18.2197C1.79688 17.7236 1.39464 17.3213 0.898438 17.3213C0.402231 17.3213 0 17.7236 0 18.2197V18.2248C0 18.721 0.402231 19.1207 0.898438 19.1207Z" fill="black"/>
</g>
<defs>
<clipPath id="clip0_1_483">
<rect width="46" height="46" fill="white"/>
</clipPath>
</defs>
</svg>
