<svg width="46" height="46" viewBox="0 0 46 46" fill="none" xmlns="http://www.w3.org/2000/svg">
<g clip-path="url(#clip0_1_497)">
<path d="M45 11.9731H30.924C32.1721 11.3391 33.378 10.5592 34.35 9.58716C36.546 7.3912 36.546 3.81919 34.35 1.62314C32.222 -0.504901 28.5141 -0.506878 26.386 1.62314C24.818 3.19109 23.712 5.34716 23 7.35113C22.288 5.34716 21.182 3.19109 19.614 1.62314C17.4839 -0.506878 13.7739 -0.504901 11.6499 1.62314C9.45399 3.8191 9.45399 7.39111 11.6499 9.58716C12.622 10.5592 13.8279 11.3391 15.076 11.9731H0.999961C0.447961 11.9731 0 12.4211 0 12.9731V20.9731C0 21.5251 0.447961 21.973 0.999961 21.973H1.99992V44.973C1.99992 45.525 2.44788 45.973 2.99988 45.973H18.9999H26.9998H42.9998C43.5518 45.973 43.9998 45.525 43.9998 44.973V21.973H44.9998C45.5518 21.973 45.9997 21.5251 45.9997 20.9731V12.9731C46 12.4211 45.552 11.9731 45 11.9731ZM18 43.9731H4.00002V21.9731H18V43.9731ZM18 19.9731H2.99997H2.00001V13.9732H18V19.9731ZM13.064 8.17311C11.648 6.75708 11.648 4.45313 13.064 3.0371C13.75 2.34908 14.662 1.97308 15.632 1.97308C16.602 1.97308 17.512 2.34908 18.2 3.0371C20.77 5.60708 21.978 10.3771 22.006 11.9411C22.006 11.951 22.004 11.9651 22.004 11.973H21.894C20.268 11.9172 15.602 10.7091 13.064 8.17311ZM26 43.9731H19.9999V21.9731H26V43.9731ZM26 19.9731H19.9999V13.9732H22.06H22.0619H23.938H23.9399H26V19.9731ZM24.106 11.9731H23.996C23.996 11.9651 23.994 11.9511 23.994 11.9412C24.0221 10.3772 25.23 5.60717 27.8 3.03719C28.488 2.34917 29.3979 1.97317 30.368 1.97317C31.338 1.97317 32.25 2.34917 32.936 3.03719C34.352 4.45322 34.352 6.75717 32.936 8.1732C30.398 10.7091 25.732 11.9172 24.106 11.9731ZM42 43.9731H28V21.9731H42V43.9731ZM44 19.9731H43H28V13.9732H44V19.9731Z" fill="black"/>
</g>
<defs>
<clipPath id="clip0_1_497">
<rect width="46" height="46" fill="white"/>
</clipPath>
</defs>
</svg>
