<svg width="21" height="22" viewBox="0 0 21 22" fill="none" xmlns="http://www.w3.org/2000/svg">
<g clip-path="url(#clip0_1_3391)">
<path d="M19.9215 21.4845H1.0485C0.469693 21.4839 0.000635639 21.0148 0 20.436V7.50451C5.49414e-06 7.36898 0.0783638 7.24567 0.201061 7.18811C0.323759 7.13055 0.468673 7.14911 0.5729 7.23574L9.14862 14.3629C9.92457 15.0038 11.0462 15.0035 11.8219 14.3624L20.3968 7.23574C20.501 7.14894 20.6461 7.13027 20.7689 7.18785C20.8917 7.24543 20.9701 7.36887 20.97 7.50451V20.436C20.9694 21.0148 20.5003 21.4839 19.9215 21.4845ZM0.699 8.2494V20.436C0.69925 20.6289 0.85558 20.7853 1.0485 20.7855H19.9215C20.1145 20.7853 20.2708 20.629 20.271 20.436V8.2494L12.2682 14.9004C11.2334 15.7555 9.73733 15.7557 8.70234 14.9009L0.699 8.2494Z" fill="#9B9B9B"/>
<path d="M0.349842 7.85399C0.19761 7.85413 0.0627995 7.75571 0.016547 7.61068C-0.0297055 7.46564 0.0232406 7.30735 0.147447 7.21933L3.29295 4.98952C3.45043 4.88037 3.66643 4.91838 3.77721 5.07472C3.88798 5.23106 3.85222 5.44745 3.69704 5.55984L0.551539 7.78965C0.492639 7.83156 0.422132 7.85405 0.349842 7.85399Z" fill="#9B9B9B"/>
<path d="M20.6206 7.85399C20.5483 7.85405 20.4778 7.83156 20.4189 7.78965L17.2734 5.55984C17.1182 5.44745 17.0825 5.23106 17.1933 5.07472C17.304 4.91838 17.52 4.88037 17.6775 4.98952L20.823 7.21933C20.9472 7.30735 21.0002 7.46564 20.9539 7.61068C20.9077 7.75571 20.7729 7.85413 20.6206 7.85399Z" fill="#9B9B9B"/>
<path d="M13.7142 2.96116C13.6419 2.9612 13.5713 2.93871 13.5123 2.89682L11.8417 1.71201C11.0662 1.0567 9.93298 1.04987 9.14964 1.6958L7.45806 2.89685C7.35618 2.9691 7.2235 2.98151 7.10999 2.9294C6.99649 2.8773 6.9194 2.7686 6.90777 2.64425C6.89614 2.5199 6.95174 2.39879 7.05362 2.32654L8.72423 1.14173C9.75651 0.29768 11.2424 0.304394 12.267 1.15774L13.9167 2.3264C14.041 2.4144 14.094 2.57276 14.0477 2.71787C14.0014 2.86297 13.8665 2.9614 13.7142 2.96116Z" fill="#9B9B9B"/>
<path d="M0.576385 21.2963C0.429095 21.2965 0.297532 21.2042 0.247426 21.0657C0.197319 20.9272 0.239424 20.7722 0.352705 20.678L8.3283 14.0515C8.42413 13.97 8.55637 13.9463 8.67454 13.9895C8.79272 14.0326 8.87859 14.1359 8.89939 14.26C8.92019 14.3841 8.8727 14.5097 8.77506 14.589L0.799471 21.2156C0.736853 21.2678 0.657908 21.2963 0.576385 21.2963Z" fill="#9B9B9B"/>
<path d="M20.393 21.2963C20.3116 21.2963 20.2327 21.2678 20.1702 21.2156L12.1946 14.589C12.0969 14.5097 12.0494 14.3841 12.0702 14.26C12.091 14.1359 12.1769 14.0326 12.2951 13.9895C12.4133 13.9463 12.5455 13.97 12.6413 14.0515L20.6167 20.678C20.73 20.7722 20.7721 20.9272 20.722 21.0657C20.6719 21.2042 20.5403 21.2964 20.393 21.2963Z" fill="#9B9B9B"/>
<path d="M17.475 10.4687C17.282 10.4687 17.1255 10.3122 17.1255 10.1192V2.96416C17.1245 2.9715 17.1105 2.96161 17.0871 2.96144H3.88295C3.8675 2.96049 3.85234 2.96592 3.84101 2.97647L3.84451 10.1192C3.84451 10.3122 3.68803 10.4687 3.49501 10.4687C3.30198 10.4687 3.14551 10.3122 3.14551 10.1192V2.96144C3.15678 2.56507 3.48655 2.2525 3.88295 2.26244H17.0871C17.4835 2.25253 17.8132 2.56509 17.8245 2.96144V10.1192C17.8245 10.3122 17.668 10.4687 17.475 10.4687Z" fill="#9B9B9B"/>
</g>
<defs>
<clipPath id="clip0_1_3391">
<rect width="20.97" height="20.97" fill="white" transform="translate(0 0.515137)"/>
</clipPath>
</defs>
</svg>
