<svg width="21" height="22" viewBox="0 0 21 22" fill="none" xmlns="http://www.w3.org/2000/svg">
<g clip-path="url(#clip0_1_3403)">
<path d="M20.3939 9.61758C20.3933 9.6171 20.3928 9.61646 20.3923 9.61598L11.8469 1.07085C11.4826 0.706442 10.9983 0.505859 10.4832 0.505859C9.96811 0.505859 9.48383 0.706442 9.11943 1.07085L0.57845 9.61166C0.575573 9.61454 0.572537 9.61758 0.56982 9.62045C-0.178169 10.3728 -0.17689 11.5934 0.573496 12.3437C0.916324 12.6867 1.36895 12.8852 1.85307 12.9062C1.87289 12.9081 1.8927 12.909 1.91268 12.909H2.25311V19.1976C2.25311 20.4422 3.26578 21.4547 4.51035 21.4547H7.8536C8.19259 21.4547 8.46733 21.1798 8.46733 20.8409V15.9106C8.46733 15.3427 8.92939 14.8808 9.49726 14.8808H11.4692C12.0371 14.8808 12.499 15.3427 12.499 15.9106V20.8409C12.499 21.1798 12.7737 21.4547 13.1127 21.4547H16.4559C17.7007 21.4547 18.7132 20.4422 18.7132 19.1976V12.909H19.029C19.544 12.909 20.0282 12.7085 20.3928 12.3439C21.144 11.5924 21.1443 10.3696 20.3939 9.61758ZM19.5248 11.476C19.3923 11.6085 19.2162 11.6816 19.029 11.6816H18.0994C17.7605 11.6816 17.4857 11.9563 17.4857 12.2953V19.1976C17.4857 19.7653 17.0238 20.2272 16.4559 20.2272H13.7264V15.9106C13.7264 14.666 12.7139 13.6534 11.4692 13.6534H9.49726C8.25253 13.6534 7.23986 14.666 7.23986 15.9106V20.2272H4.51035C3.94264 20.2272 3.48058 19.7653 3.48058 19.1976V12.2953C3.48058 11.9563 3.20584 11.6816 2.86685 11.6816H1.95328C1.94369 11.6809 1.93426 11.6805 1.92451 11.6803C1.74167 11.6771 1.57017 11.6045 1.44167 11.4759C1.16837 11.2026 1.16837 10.7578 1.44167 10.4843C1.44183 10.4843 1.44183 10.4842 1.44199 10.484L1.44247 10.4835L9.9876 1.93871C10.1199 1.80621 10.2959 1.73333 10.4832 1.73333C10.6704 1.73333 10.8464 1.80621 10.9788 1.93871L19.5221 10.4818C19.5233 10.483 19.5248 10.4843 19.5261 10.4856C19.7979 10.7594 19.7974 11.2032 19.5248 11.476Z" fill="#9B9B9B"/>
</g>
<defs>
<clipPath id="clip0_1_3403">
<rect width="20.9693" height="21" fill="white" transform="translate(0 0.485352)"/>
</clipPath>
</defs>
</svg>
