<svg width="119" height="44" viewBox="0 0 119 44" fill="none" xmlns="http://www.w3.org/2000/svg">
<path d="M29.3495 23.9444C27.2511 26.3491 23.6723 26.5969 21.2038 24.5603C20.031 23.4493 19.229 22.1536 19.229 20.7336C19.229 19.9316 17.2541 20.3648 14.7238 24.1895V36.4696C14.7238 39.8637 15.0321 42.3323 17.2541 42.9509V43.4433H1.82641V42.9509C4.17133 42.2712 4.23313 39.6186 4.23313 36.4696V21.4134C4.23313 19.2539 3.49223 18.388 0.961914 17.4631V16.9708L14.7238 14.3779V23.0167C19.1053 16.4139 20.9559 15.6743 22.8078 14.8105C24.5354 14.0072 27.1275 14.3779 28.7322 15.7973C31.1383 17.8957 31.4472 21.5995 29.3495 23.9444Z" fill="black"/>
<path d="M63.5333 29.189C63.5333 37.2737 58.658 44.0001 47.6119 44.0001C36.5657 44.0001 31.6904 37.2737 31.6904 29.189C31.6904 21.0426 36.5657 14.3779 47.6119 14.3779C58.658 14.3779 63.5333 21.0426 63.5333 29.189ZM51.006 29.189C51.006 18.0192 50.9442 14.9348 47.6119 14.9348C44.2177 14.9348 44.1559 18.0199 44.1559 29.189C44.1559 40.3581 44.2177 43.4433 47.6119 43.4433C50.9442 43.4433 51.006 40.3581 51.006 29.189Z" fill="black"/>
<path d="M86.2386 40.6671C86.2386 40.6671 83.8937 43.9994 76.7347 43.9994C69.268 43.9994 65.7503 41.9017 65.7503 41.9017V33.8171H66.3058C67.5404 39.5561 72.6621 43.4433 76.7347 43.4433C81.1162 43.4433 82.1036 38.3222 77.4138 35.2371L71.181 31.4721C65.3801 27.6454 63.8373 21.5369 67.6022 17.3394C67.6022 17.3394 69.8853 14.3779 76.9207 14.3779C84.0173 14.3779 86.9795 16.1049 86.9795 16.1049V22.4008H86.424C85.313 16.8471 80.4996 14.9348 76.9207 14.9348C72.9093 14.9348 70.9963 18.9448 76.3652 22.339L82.598 26.2275C88.2134 29.6189 89.6327 36.5925 86.2386 40.6671Z" fill="black"/>
<path d="M118.757 28.5709H101.972C101.972 37.9513 104.934 40.4205 109.068 41.3454C112.154 42.0252 116.289 40.1726 117.523 34.928L118.079 35.0516C117.277 39.6185 112.772 43.9993 105.058 43.9993C96.9737 43.9993 90.4326 37.5798 90.4326 29.2507C90.4326 18.7593 98.3937 14.3778 105.984 14.3778C112.524 14.3778 118.757 16.9706 118.757 28.5709ZM108.822 0L118.819 3.08514L100.059 10.0588H94.9989L108.822 0ZM109.809 28.0161C109.809 20.2405 109.007 14.934 106.23 14.934C103.392 14.934 101.973 22.091 101.973 28.0161H109.809Z" fill="black"/>
</svg>
