<svg width="118" height="44" viewBox="0 0 118 44" fill="none" xmlns="http://www.w3.org/2000/svg">
<path d="M13.7404 22.1144C13.9363 22.2454 14.1314 22.3753 14.3269 22.4406C15.8262 23.223 16.9997 24.2667 18.2385 25.3092C19.999 26.8738 21.2374 28.895 21.8893 31.3719C22.281 33.067 22.0202 34.9573 20.9124 36.9137C20.5855 37.5655 20.1949 38.2831 19.6732 38.8697C19.4773 39.1297 19.1523 39.5215 18.8254 39.7823C17.587 40.9559 16.2184 41.7376 14.718 42.3245C14.0012 42.7155 13.2195 42.7812 12.5016 42.7155C11.9146 42.7155 11.3937 42.7812 10.8072 43.1073C10.2855 43.3682 9.82881 43.4984 9.24187 43.6943C7.87322 44.02 6.69971 44.085 5.52621 43.8894C3.76576 43.6286 2.07061 43.1073 0.962026 41.9342C-0.0155814 40.8909 -0.276405 39.5223 0.31016 37.6969C0.76688 36.5883 1.35344 35.4797 2.20045 34.3715C2.91799 33.3286 3.76576 32.2853 4.80904 31.3727C5.00418 31.2424 5.13403 30.9816 5.26501 30.7857C5.7859 29.8081 6.04747 29.6122 7.02432 29.7432C7.41612 29.6122 7.67695 29.0256 8.19783 29.2215C7.93777 29.3521 7.74187 29.4824 7.35082 29.6783C7.67695 29.7432 7.87247 29.8081 8.00269 29.8081C8.00269 30.1342 8.00269 30.395 8.06761 30.7208C8.13253 30.9167 8.06761 31.1115 7.87247 31.3727C7.48067 31.8943 7.15492 32.4159 6.69896 33.0029C6.04709 33.8506 5.59038 34.6324 5.46053 35.6107C5.32956 36.1977 5.32955 36.7185 5.26463 37.3704C5.19895 37.8271 5.39485 38.1529 5.85119 38.2838C6.37208 38.479 7.02395 38.5439 7.67656 38.4141C8.85007 38.2182 10.0885 37.9574 11.262 37.4365C12.4355 36.9148 13.6739 36.4581 14.8475 35.8712C15.6952 35.4801 16.6079 34.9585 17.3904 34.2417C17.9769 33.785 18.1721 33.2641 17.9769 32.8723C17.5202 31.373 16.9333 30.0693 15.6948 29.0917C13.6736 27.4615 11.3266 26.0271 8.9803 24.6585C7.54521 23.8107 6.24148 22.898 5.00305 21.8548C3.56873 20.7469 2.52582 19.3126 1.74335 17.8133C0.244104 15.3361 1.61276 11.9458 3.69933 9.40365C5.58962 7.05664 8.13178 5.49209 10.7396 4.05776C11.5221 3.73202 12.3042 3.53612 13.0217 3.21C16.9982 1.77567 20.7139 1.64545 24.2993 1.90552C25.4079 2.03649 26.4512 2.23239 27.5598 2.36223C28.7333 2.49246 29.8418 2.75328 30.6889 3.40552C31.0146 3.66559 31.2105 3.92641 31.0146 4.44843C30.9497 4.57827 30.9497 4.77417 30.9497 4.90515C30.8848 5.23127 30.8848 5.55701 30.7538 5.88275C30.2321 6.99134 29.8418 8.0988 29.7762 9.20738C29.7112 9.6641 29.3851 10.316 29.0586 10.8368C28.7986 11.3585 28.4068 11.7503 28.1467 12.2063C27.8851 12.663 27.5598 12.9887 27.1034 13.2495C26.3866 13.5753 25.7997 13.9014 25.0829 14.0962C24.6911 14.2921 24.2997 14.2921 24.0392 14.0962C23.0609 13.7051 22.018 13.5092 20.9754 13.3794C18.8885 13.1186 16.803 12.7928 14.521 12.8577C13.8691 12.9227 13.1523 12.9887 12.4997 13.1835C11.7172 13.3145 11.0004 13.5092 10.2836 13.6402C5.58962 14.8137 8.3273 18.2036 10.6747 19.8988C11.7191 20.5499 12.7628 21.3327 13.7404 22.1144Z" fill="black"/>
<path d="M36.8838 29.6119C36.8189 29.547 36.623 29.547 36.5569 29.7429C36.492 29.7429 36.492 29.8078 36.492 29.8727C36.2319 30.5253 35.905 30.9164 35.3185 30.7854C34.9935 31.1112 34.8625 31.438 34.6017 31.6981C34.3409 31.8291 34.0147 32.0899 33.9498 32.5459C33.9498 32.6768 33.8849 32.7418 33.82 32.8716C33.4935 33.3283 33.1674 33.6541 32.9065 34.0451C32.6465 34.6977 32.1898 35.0884 31.733 35.4794C31.5379 35.7403 31.2114 35.9362 31.0163 36.3921C31.0163 36.4571 30.886 36.653 30.6901 36.653C30.3644 36.7179 30.0375 36.9787 29.7125 37.2399C28.995 37.6309 28.2782 37.9567 27.4957 38.0224C26.7789 38.0224 26.1271 37.9567 25.4752 37.6306C24.4319 37.0436 24.0401 35.9362 23.9099 34.5018C23.9099 34.1761 23.9099 33.85 24.0401 33.5242C24.1707 31.503 24.5618 29.4821 25.0838 27.4608C25.4095 26.353 25.8006 25.3746 26.1924 24.397C27.0394 22.6365 27.7569 20.7462 28.6043 18.9862C28.6043 18.7903 28.6692 18.7254 28.7345 18.5295C29.1263 17.0302 29.908 15.5955 30.6905 14.2272C30.9513 13.8362 31.0816 13.4448 31.3424 12.9227C31.6681 12.8578 31.9942 12.8578 32.2551 13.1186C32.9718 13.5754 33.6894 14.0963 34.4718 14.553C34.6021 14.6179 34.7968 14.7489 34.7968 14.8787C35.2536 15.8563 35.8401 16.769 36.1013 17.8776C36.2323 18.5295 36.2972 19.116 36.4271 19.7679C36.5573 20.4854 36.492 21.2675 36.1662 21.9198C35.9054 22.4406 35.7756 23.0276 35.5144 23.5492C35.4495 23.875 35.3185 24.2011 35.2536 24.5268C34.8625 25.8313 34.4718 27.1347 33.8849 28.4392C33.8849 28.4392 33.82 28.5041 33.82 28.569C33.82 28.569 33.82 28.6339 33.689 28.7649C33.6233 29.2209 33.4931 29.7425 33.233 30.2642C33.3633 30.1985 33.4931 30.1985 33.558 30.1336C34.2099 29.4168 34.9274 28.569 35.5801 27.7865C36.7528 26.4832 37.7953 25.1795 38.9039 23.875C39.3606 23.3533 39.7524 22.9623 40.1424 22.3753C41.3815 20.6802 42.7509 19.1806 44.1196 17.6813C44.3804 17.4212 44.6412 17.2254 44.8364 17.1604C45.4233 16.8996 46.0099 16.8347 46.4666 16.8996C46.7267 17.0298 46.9233 17.0948 47.0535 17.2254C47.5752 17.747 48.0312 18.3339 48.5528 18.7899C48.8785 19.0507 49.0737 19.4418 49.2696 19.9634C49.4002 20.4201 49.5304 20.8112 49.5953 21.3328C49.7263 21.9847 49.7263 22.6362 49.5304 23.3533C49.0737 24.8526 48.6826 26.222 48.0968 27.5914C47.9659 28.1783 47.705 28.7649 47.5752 29.4817C47.7703 29.4168 47.9662 29.2858 48.0312 29.2209C49.3356 28.5041 50.5092 27.4608 51.6166 26.2869C52.6591 25.3093 53.7677 24.3966 54.9412 23.7448C55.1371 23.6795 55.2677 23.5488 55.4629 23.3529C55.8547 23.0272 56.1797 23.0929 56.4412 23.3529C56.7662 23.6138 56.8972 24.0705 57.3532 24.2664C57.6797 24.3962 57.8748 24.7224 58.1356 25.0481C58.0707 25.6347 58.0707 26.1567 58.1356 26.6783C58.1356 27.1343 58.005 27.591 57.8099 28.1119C57.4181 28.3078 57.6797 28.8294 57.4181 29.1556C57.3532 29.938 57.2229 30.7201 57.0931 31.4377C57.0274 32.1544 57.0274 32.8063 57.0931 33.5238C57.0931 33.9798 57.2233 34.1757 57.5491 34.3056C58.5267 34.5015 61.9173 32.0895 62.5692 31.2418C63.7427 29.9384 64.7203 28.4388 65.633 26.8735C65.6979 26.5477 65.8289 26.2216 66.0248 26.0257C66.1547 26.2216 66.22 26.2216 66.1547 26.2865C65.9588 27.2649 66.2849 26.6783 66.1547 27.7858C66.1547 27.525 65.8289 28.8944 65.633 28.7642C65.5032 28.7642 65.5032 28.9593 65.3722 29.0899C64.9815 29.8067 64.5897 30.4585 64.2644 31.241C64.2644 31.5018 64.0685 31.697 64.0028 31.8276C63.4162 32.2186 63.0259 32.6753 62.5692 33.1313C62.5692 33.3272 62.3733 33.3921 62.2435 33.457C61.9173 34.1746 59.1789 36.1302 58.4621 36.1302C58.1364 36.1302 56.5718 35.9999 56.245 35.7391C55.5931 35.1526 54.5506 34.4354 54.1595 33.5227C53.8326 32.7403 53.8326 31.7626 54.0946 30.7839C54.4196 29.1544 54.8114 27.5899 55.3983 26.025C55.4632 25.8298 55.5285 25.569 55.5285 25.3731C55.5935 25.2432 55.5285 25.1779 55.5285 24.982C55.1375 25.047 54.8767 25.5037 54.5509 25.5686C54.2252 25.6988 53.8991 25.8294 53.6382 26.0246C53.5733 26.6772 53.5733 26.6772 53.1815 27.2638C52.9215 27.5238 52.7905 27.8507 52.5297 28.1765C52.2039 27.9806 51.8778 28.1764 51.5521 28.4373C51.0304 28.8932 50.5744 29.2839 49.9875 29.7406C49.8565 29.8705 49.6606 29.9365 49.5308 30.1966C48.9438 30.9141 48.2271 31.4358 47.4446 32.0227C47.3797 32.1529 47.2487 32.1529 47.1188 32.3485C46.7271 33.1302 45.9453 33.522 45.3588 34.1738C45.1636 34.4346 44.9677 34.6955 44.7069 34.9555C43.6633 35.8029 42.4901 36.129 41.3823 35.9988C40.8606 35.9339 40.4047 35.6078 40.0129 35.1511C39.5562 34.6951 39.361 34.1081 39.4259 33.1951C39.4259 32.4783 39.5562 31.8264 39.8177 31.1089C40.8603 27.8499 42.4248 24.9813 44.3151 22.2432C44.7718 21.3955 45.3588 20.613 45.8155 19.7003C46.0756 19.4395 46.2715 19.1134 46.1405 18.7227C45.9453 18.5268 45.6845 18.5268 45.4237 18.7876C45.2939 18.9835 45.098 19.1134 44.8368 19.3093C44.1849 19.9611 43.5334 20.613 42.8815 21.1347C42.4897 21.5914 42.1648 21.9824 41.9032 22.569C41.5782 23.3507 41.1864 24.0033 40.6647 24.5903C40.0778 25.1772 39.5562 25.6981 39.1663 26.3507C38.7745 26.8716 38.5136 27.4585 38.1879 27.9802C38.058 28.3059 37.7961 28.7626 37.6009 29.0888C37.4707 29.2839 37.2752 29.5447 37.1442 29.7406C37.0789 29.7429 36.9487 29.6119 36.8838 29.6119Z" fill="black"/>
<path d="M65.8936 20.942C65.8936 20.942 65.8936 20.942 65.9585 20.8771C66.1537 20.6163 66.2835 20.5514 66.4802 20.4212C67.197 20.2906 68.8264 19.1167 69.4791 19.5085C69.6742 19.7685 70.3261 20.095 70.5869 20.3551C70.8477 20.6808 70.9126 21.1376 70.7175 21.7894C70.3257 22.6372 69.869 23.4197 69.3481 24.4622C69.2171 24.8528 69.0873 25.1797 69.0223 25.4398C68.7615 26.0264 68.5007 26.8092 68.1746 27.3958C67.9137 28.1786 69.0873 25.7006 68.957 26.3532C68.957 26.5484 68.8264 26.7443 68.7611 26.8741C68.2395 28.1786 68.2395 27.9178 68.1742 29.0913C68.1742 29.7432 67.9134 33.0678 67.9783 33.6547C68.0432 34.1114 68.3048 34.3715 68.4999 34.6323C68.7608 34.7633 69.0869 35.0241 69.4783 35.154C69.8033 35.4148 70.1302 35.2838 70.5208 35.2189C75.9316 33.2637 73.9757 32.5458 77.1052 29.2211C77.6921 28.3734 78.4096 27.5917 78.7346 26.5484C78.7346 26.4835 78.7346 26.4835 78.9305 26.1573C79.2563 26.8092 78.5395 27.7219 79.4522 27.9178C78.0828 30.395 77.1052 33.9805 74.8891 35.2838C74.2372 36.1316 69.8033 40.0428 66.9354 38.9353C66.0227 39.261 65.1753 38.3484 64.1973 37.957C63.5455 37.6969 62.894 37.1752 62.307 36.5234C61.9805 35.6756 61.6544 34.7629 61.6544 33.9155C61.5234 33.5245 61.5234 33.0678 61.5234 32.742C61.7201 31.9596 61.5891 30.4599 61.8499 29.9391C61.9149 29.6122 62.0451 29.2864 62.0451 28.8958C62.1761 28.8308 62.0451 28.5047 62.5018 28.4398C62.5667 28.4398 62.632 28.179 62.6969 28.1129C63.0234 27.657 63.0887 27.2663 63.4145 26.8096C63.4145 26.8096 62.0451 28.179 62.8276 26.8745C63.3492 25.5711 64.5227 24.1364 64.9137 23.2238C64.9137 23.0935 65.044 22.898 65.044 22.898C65.2399 22.5073 65.4358 22.2461 65.3055 21.7894C65.2399 21.5286 65.3055 21.2678 65.5007 20.8767C65.6317 20.942 65.697 21.0077 65.8936 20.942ZM71.891 13.8365C71.76 14.0316 71.6294 14.1622 71.5645 14.4226C71.5645 14.4883 71.5645 14.6185 71.4343 14.7491C71.2391 14.9443 71.0425 15.2051 70.7824 15.5309C70.6526 15.7268 70.1305 15.9876 69.804 16.0525C69.6738 15.9876 69.4791 16.1174 69.3481 16.2484C68.957 16.5085 68.6962 16.4435 68.4354 16.3133C68.2395 16.1823 68.1097 16.1823 67.9138 16.1823C67.6537 16.1823 67.457 16.1823 67.197 16.1174C67.2619 16.0525 67.3272 15.9223 67.3921 15.8566C67.3921 15.6614 67.5227 15.4659 67.588 15.2047C67.7186 14.8786 67.8488 14.6831 68.044 14.357C68.044 14.2271 68.2399 14.0961 68.2399 14.0312C68.2399 13.6402 68.566 13.3144 68.7615 12.9226C68.8925 12.7275 69.0223 12.5316 69.1526 12.3357C69.2835 12.2059 69.4134 12.0756 69.5444 12.0756C69.6746 12.0099 69.8044 12.0099 69.8693 12.0756C69.8693 12.2058 69.9999 12.2058 70.1309 12.1405C70.2608 12.0756 70.3261 12.0096 70.391 12.0756C70.6526 12.2058 70.9775 12.2708 71.2395 12.3357C71.6955 12.5316 72.0212 12.8573 72.282 13.3141C72.0861 13.51 72.0212 13.7059 71.891 13.8365Z" fill="black"/>
<path d="M96.9871 29.547C96.6617 30.1989 95.5535 31.6332 95.5535 32.3508C95.4886 32.4157 95.2927 32.6116 95.1617 32.6765C94.9666 32.8716 94.7711 33.1325 94.6401 33.4582C94.5102 33.784 94.3151 33.9149 94.1841 34.1758C93.2715 35.8052 92.6849 36.7179 91.1853 38.1522C90.7946 38.478 87.339 41.803 87.0789 42.1287C85.1879 43.694 82.645 42.9761 80.7547 43.0422C80.233 43.0422 79.7114 42.9765 79.386 42.7813C78.7995 42.4556 77.495 41.9336 77.1039 41.347C76.5174 39.9127 75.0177 38.9351 74.8871 36.9138C74.8222 36.3922 74.5621 36.066 74.4961 35.5444C74.5618 33.4582 74.8871 31.372 75.148 29.2209C75.539 27.7217 75.8655 26.0922 76.1256 24.5926C76.7774 21.7888 76.9741 21.4631 78.2125 18.9209C78.8644 17.2258 79.4509 17.0948 80.1028 15.4004C80.5595 14.4877 81.0804 13.575 81.6021 12.7926C81.9931 11.815 82.6446 10.9023 83.2315 9.92391C84.47 7.7728 85.8394 5.8825 87.2737 4.31795C88.2513 3.33958 89.2942 2.29667 90.2726 1.44929C90.8591 0.992567 91.4461 0.471688 92.033 0.275788C92.2282 0.145567 92.4241 0.0798859 92.6196 0.0149636C93.5323 -0.0499586 94.3797 0.0798862 95.0315 0.732506C95.6834 1.31907 95.8793 2.23176 95.6834 3.47056C95.5535 4.25227 95.4882 5.03511 95.2927 5.7519C95.227 6.33847 94.967 6.86048 94.6401 7.51197C94.1841 8.62056 93.6632 9.66384 92.9457 10.7067C92.4897 11.5545 91.9681 12.4019 91.5114 13.2497C90.7293 14.4224 90.0778 15.6616 89.2942 16.7694C87.9256 18.5948 86.752 20.5508 85.5136 22.3761C83.4923 25.8317 83.6882 26.4187 82.9715 29.8731C82.7099 31.2426 82.8409 32.025 82.7756 33.3937C82.8405 33.7847 83.0364 36.3276 83.1013 36.5884C83.2965 37.5011 83.4923 37.8269 83.883 38.6746C84.014 38.9355 84.9267 39.1306 85.2524 39.2612C85.7084 39.587 89.164 37.2399 89.6207 36.9142C90.664 36.3272 91.511 35.3496 92.4237 34.437C93.4013 33.5243 93.858 32.481 94.7058 31.2422C95.8793 29.6776 96.2703 28.3735 97.5088 26.6787C98.4222 26.5481 97.9006 27.9175 96.9871 29.547ZM86.5569 17.8127C88.6423 14.4881 88.9688 13.9664 90.8591 10.3806C91.5759 9.01122 92.1629 7.64257 92.8804 6.27316C93.2061 5.29555 93.4013 4.31795 93.5323 3.33921C93.6629 3.01347 93.6629 2.81832 93.3364 2.94854C93.0106 3.01347 92.8147 3.14444 92.6196 3.27429C91.7718 3.60003 90.9894 4.2519 90.4024 5.16458C89.9464 5.68622 89.6207 6.27317 89.0991 6.79481C88.5125 7.5116 88.1864 8.22913 87.9255 9.0769C87.5998 9.72876 87.2737 10.5105 86.9479 11.1631C86.492 12.5317 85.8394 13.9012 85.1875 15.2698C84.9267 15.9224 84.7315 16.6392 84.47 17.2911C83.6882 19.5082 84.014 18.3997 83.2965 20.6157C83.1013 21.1373 83.2315 22.637 84.0789 21.7243C85.0569 20.2896 85.7084 19.312 86.5569 17.8127Z" fill="black"/>
<path d="M100.247 26.6134C100.247 26.7444 100.116 26.8742 99.9859 26.9392C99.921 27.0048 99.79 27.0702 99.79 27.2657C99.7251 27.5257 99.6601 27.5914 99.4642 27.6567C99.334 27.7216 99.334 27.7866 99.2683 28.1784C99.3993 28.1784 99.4642 28.1784 99.5299 28.2433C99.5299 28.2433 99.5299 28.2433 99.5299 28.3082C99.3993 28.3082 99.2683 28.3082 99.0732 28.3082C99.1381 28.1123 99.1381 27.9175 99.1381 27.7866C99.0732 27.7866 99.0079 27.7866 99.0079 27.7866C98.943 28.2433 98.8769 28.6992 98.812 29.156C98.943 29.2209 99.0079 29.2858 99.0728 29.2858C99.1377 29.7425 99.1377 30.1336 99.1377 30.5903C99.1377 31.0463 99.2676 31.4381 99.3986 31.7638C99.5945 32.0246 100.116 33.4582 100.311 33.719C101.224 34.6317 102.333 35.8052 103.375 35.8701C103.702 35.9358 105.592 35.6101 105.918 35.544C107.483 35.0881 108.982 34.2407 110.416 33.1321C111.525 32.2843 112.567 31.3067 113.676 30.394C113.741 30.3291 113.806 30.2638 113.872 30.1981C114.263 29.7422 114.653 29.3511 115.045 28.8948C115.762 28.178 116.414 27.4604 117 26.6127C117.196 26.2869 117.392 25.9608 117.782 25.831C117.652 26.4179 117.522 26.9388 117.261 27.4604C117.196 27.6563 117.065 27.8522 116.935 27.9821C116.544 28.4388 116.219 28.8299 115.957 29.3515C115.762 29.6116 115.501 29.8724 115.305 30.1336C115.24 30.1985 115.175 30.3295 115.045 30.5254C115.24 30.4597 115.37 30.3948 115.566 30.3295C115.501 30.7205 115.175 30.7854 115.11 31.1112C115.175 31.1772 115.175 31.2422 115.305 31.3071C115.11 31.6328 114.914 31.8287 114.653 32.0895C114.262 32.4157 113.872 32.8063 113.545 33.1974C112.958 33.85 112.306 34.3709 111.655 34.8925C111.328 35.1533 111.068 35.4142 110.742 35.6101C110.481 35.8052 110.221 35.9358 109.959 36.131C109.568 36.3269 109.178 36.5228 108.786 36.7836C108.134 37.1746 107.417 37.5004 106.7 37.6306C106.505 37.6963 106.309 37.7616 106.113 37.8265C105.331 38.0873 104.548 38.2175 103.766 38.2832C102.853 38.4134 99.0075 37.6966 98.1598 37.3698C95.8777 36.4571 95.4217 35.3492 94.3784 34.4366C93.9874 34.1108 93.6616 33.5888 93.4657 33.0672C93.14 32.2194 93.0747 31.3071 93.0098 30.3291C93.0098 28.3078 93.5314 26.3526 94.3784 24.5265C94.5743 24.1354 94.5743 24.1354 94.5083 23.5489C94.1833 23.7448 93.9874 23.8746 93.8564 24.2664C93.6612 24.8522 93.4004 25.3743 93.0747 25.9608C93.0747 25.3739 93.3347 24.9832 93.5314 24.5265C94.0523 23.353 94.6392 22.2452 95.3568 21.2019C96.0736 20.094 96.8557 19.1157 97.7687 18.203C98.6806 17.2254 99.659 16.3776 100.703 15.7258C100.963 15.5948 101.159 15.5299 101.355 15.4C101.68 15.2694 102.006 15.2041 102.202 15.5302C102.397 15.7261 102.658 15.6608 102.788 15.7911C102.984 15.9217 103.049 16.1821 103.18 16.3127C103.832 16.6384 106.309 17.2903 106.896 17.6813C107.091 17.8119 107.221 18.0731 107.352 18.334C107.678 18.9205 107.939 19.5724 108.395 19.9634C108.526 20.094 108.591 20.3545 108.656 20.55C108.786 21.3325 108.851 22.0493 108.656 22.897C108.526 23.8097 108.134 24.6575 107.678 25.4392C107.418 25.8959 107.157 26.2869 106.961 26.8086C106.831 27.2653 106.57 27.6563 106.309 28.1119C106.049 28.6336 105.592 28.9597 105.135 29.0903C104.744 29.2854 104.288 29.3511 103.897 29.2854C103.702 29.2205 103.506 29.2854 103.375 29.0246C103.375 28.9597 103.311 28.9597 103.311 28.9597C102.789 29.0246 102.464 28.4388 102.072 28.2429C102.007 28.178 101.942 27.9821 101.942 27.9172C102.072 27.6563 101.942 27.5254 101.877 27.3302C101.615 26.8086 101.355 26.2216 101.028 25.7C100.963 25.5048 100.768 25.4392 100.572 25.6351C100.507 25.9619 100.247 26.2228 100.247 26.6134ZM94.0531 32.4813C94.1187 32.6772 94.184 32.8071 94.2489 33.003C94.2489 33.1981 94.4441 33.3287 94.3139 33.5896C94.2489 33.5246 94.184 33.5246 94.184 33.4586C93.8575 32.8067 93.7273 31.9593 93.5971 31.1116C93.5322 31.0466 93.5971 30.9817 93.5971 30.9164C93.5971 29.9388 93.5971 29.0254 93.8571 28.0478C93.9221 27.8526 93.9881 27.6571 93.9881 27.4612C93.9881 27.331 93.9881 27.2661 93.9881 27.0052C93.7922 27.3959 93.6624 27.6571 93.5971 27.9179C93.5322 28.2437 93.4665 28.5045 93.4012 28.8306C93.1404 30.5258 93.2053 32.0903 93.9221 33.459C94.053 33.7198 94.2486 33.9157 94.4437 34.1765C94.5743 34.3063 94.7045 34.3716 94.9004 34.4373C94.9004 34.5022 94.9654 34.4373 95.0956 34.4373C94.9004 34.1116 94.7045 33.8504 94.5747 33.5246C94.3788 33.1328 94.3788 32.7422 94.1836 32.416C94.1187 32.416 94.0531 32.4813 94.0531 32.4813ZM94.0531 28.3086C93.7273 29.3519 93.7922 30.3299 93.9221 31.3075C93.9221 31.3724 93.9878 31.3724 94.0531 31.4384C94.1187 30.7209 94.184 30.069 94.2489 29.4172C94.3139 28.9604 94.3792 28.5045 94.184 28.1127C94.1187 28.1787 94.0531 28.2437 94.0531 28.3086ZM102.267 23.0937C102.137 23.2888 101.942 23.5496 101.811 23.8105C101.55 24.2672 101.615 24.5929 101.942 24.7881C102.137 24.9187 102.398 25.0489 102.528 25.2448C102.919 25.7007 103.44 25.6358 103.962 25.5705C104.419 25.4399 104.744 24.984 105.006 24.5272C105.462 23.4194 105.722 23.2235 106.114 22.1153C107.157 19.6381 105.071 20.225 104.093 21.0075C103.375 21.5287 102.854 22.3761 102.267 23.0937Z" fill="black"/>
</svg>
