<svg width="128" height="44" viewBox="0 0 128 44" fill="none" xmlns="http://www.w3.org/2000/svg">
<path d="M30.1383 42.5256C30.1383 42.7653 30.0136 42.9777 29.7626 43.1621C29.5132 43.3473 29.2788 43.4932 29.0619 43.6021C28.888 43.689 28.7202 43.776 28.5561 43.8637C28.3929 43.9506 28.225 43.9831 28.0512 43.9612C27.5515 43.9173 27.051 43.906 26.5514 43.9279C26.0502 43.9506 25.5732 43.8304 25.1158 43.5696C24.6373 43.33 24.2246 43.02 23.8761 42.6398C23.5291 42.2603 23.235 41.8196 22.9954 41.3191C22.6038 40.5579 22.278 39.7861 22.0172 39.0029C21.7571 38.2205 21.5387 37.4162 21.3656 36.5892C21.1698 35.611 20.9354 34.6547 20.6648 33.7196C20.3919 32.7852 20.1258 31.8388 19.865 30.8825C19.5823 29.8612 19.3381 28.8331 19.1317 27.8012C18.9253 26.7694 18.7122 25.7307 18.4952 24.6867C18.4952 24.6436 18.4899 24.6051 18.4793 24.5726C18.4687 24.5393 18.4635 24.5015 18.4635 24.4584C18.4189 24.2188 18.3765 24.0336 18.3334 23.9036C18.2896 23.7735 18.2306 23.676 18.1535 23.6102C18.0772 23.5445 17.9736 23.5074 17.8436 23.4961C17.712 23.4855 17.5276 23.4802 17.2887 23.4802C15.2446 23.4802 13.2005 23.3819 11.158 23.1869C11.0483 23.165 10.9289 23.1597 10.7989 23.171C10.6689 23.1816 10.5056 23.1869 10.3098 23.1869C10.0271 23.2081 9.82068 23.2141 9.69066 23.2028C9.55988 23.1922 9.45631 23.2081 9.37996 23.2512C9.30361 23.295 9.23406 23.3933 9.16829 23.5445C9.10404 23.6972 9.00576 23.9474 8.87498 24.2951C8.15759 26.0565 7.43414 27.8118 6.70616 29.5626C5.97743 31.3134 5.25474 33.0687 4.53734 34.8285C4.27579 35.4598 4.04296 36.0963 3.83658 36.7373C3.62945 37.3791 3.40645 38.0255 3.16757 38.6778C3.05871 39.0248 2.9113 39.3416 2.7276 39.6228C2.54239 39.9055 2.29747 40.1671 1.99357 40.4052C1.86355 40.5148 1.72672 40.6078 1.58612 40.6826C1.444 40.759 1.28752 40.7431 1.11289 40.6342C0.939024 40.5254 0.835462 40.3893 0.802956 40.2268C0.77045 40.0635 0.776495 39.8949 0.818828 39.7203C1.05771 38.7859 1.29205 37.8569 1.5196 36.9324C1.74865 36.0086 2.01399 35.0893 2.31863 34.1769C3.07987 31.807 3.922 29.4749 4.84653 27.1806C5.7703 24.887 6.64569 22.5549 7.47194 20.1858C7.92853 18.8372 8.42218 17.5279 8.95588 16.2556C9.48807 14.9833 10.027 13.6952 10.5706 12.3912C11.1133 11.1083 11.6471 9.83684 12.1687 8.57516C12.6903 7.31424 13.2126 6.05255 13.7342 4.79163L14.5824 2.50942C14.6686 2.33555 14.7344 2.17151 14.7782 2.02032C14.8213 1.86761 14.9301 1.73759 15.104 1.62873C15.4079 1.45486 15.6853 1.26966 15.9356 1.07387C16.1858 0.878076 16.4413 0.682279 16.7021 0.486488C16.919 0.334542 17.1806 0.20377 17.4845 0.0949134C17.8761 0.0079792 18.2563 -0.0192363 18.626 0.0132696C18.9949 0.0465314 19.2134 0.258194 19.2776 0.649776C19.6042 1.60681 19.9731 2.75812 20.3873 4.10673C20.7563 5.25956 21.1811 6.68302 21.6596 8.37937C22.1366 10.075 22.6915 12.0639 23.3227 14.3468C23.6273 15.892 23.9418 17.4183 24.2676 18.9294C24.5942 20.4413 24.9737 21.9464 25.4091 23.4462C25.6707 24.3601 25.8982 25.2839 26.094 26.219C26.2898 27.1534 26.4962 28.0885 26.7131 29.0228C27.3443 31.3708 27.9204 33.5018 28.442 35.4152C28.6589 36.2422 28.8714 37.0518 29.0777 37.8448C29.2841 38.6393 29.4693 39.362 29.6326 40.0136C29.7959 40.666 29.9206 41.2209 30.0076 41.6767C30.0953 42.134 30.1383 42.4175 30.1383 42.5256ZM15.9507 7.36866C15.4291 8.49956 14.9188 9.59191 14.4184 10.6472C13.9172 11.7018 13.4281 12.7503 12.9511 13.7942C11.9509 15.9033 11.0801 18.0124 10.3415 20.1208C10.2977 20.2523 10.2546 20.3763 10.2115 20.4957C10.1677 20.6159 10.1677 20.7626 10.2115 20.9364C10.7112 20.8926 11.201 20.8495 11.6788 20.8049C12.1566 20.7618 12.6358 20.7407 13.1144 20.7407C13.7441 20.7195 14.3745 20.7134 15.0057 20.7248C15.6354 20.7354 16.2659 20.7407 16.8971 20.7407C17.2887 20.7407 17.5163 20.7029 17.582 20.6265C17.6478 20.5502 17.6584 20.3279 17.6145 19.9575C17.4187 18.3919 17.2229 16.8316 17.0271 15.2774C16.8314 13.7224 16.6356 12.1629 16.4405 10.5973C16.3763 10.0976 16.3105 9.58132 16.2447 9.04838C16.1797 8.51544 16.0822 7.95528 15.9507 7.36866Z" fill="black"/>
<path d="M37.2147 32.1878C37.3462 31.7524 37.4763 31.3124 37.6063 30.8664C37.7371 30.4211 37.8565 29.9804 37.9654 29.5457C38.1392 28.8064 38.335 28.0837 38.5527 27.3762C38.7697 26.6709 39.0313 25.9686 39.3359 25.2731C39.6406 24.5119 39.9603 23.7461 40.2982 22.9743C40.6346 22.2024 40.9884 21.4359 41.3581 20.6747C41.6839 20.0004 42.0271 19.3374 42.3847 18.6858C42.7437 18.0334 43.1073 17.3923 43.477 16.7611C43.7817 16.2395 44.0855 15.7292 44.391 15.2281C44.6948 14.7291 45.0207 14.2294 45.3691 13.7283C45.5861 13.4024 45.8303 13.0925 46.1024 12.7992C46.3746 12.5059 46.6407 12.2065 46.9015 11.9026C47.0542 11.7288 47.2001 11.5708 47.3422 11.4294C47.4828 11.2873 47.6302 11.1308 47.7821 10.9562C48.0649 10.6084 48.4451 10.4346 48.9236 10.4346C49.1625 10.4557 49.3848 10.4777 49.5926 10.4988C49.799 10.5215 50.0107 10.5321 50.2276 10.5321C50.4892 10.5533 50.6956 10.6462 50.8483 10.8088C51.0002 10.972 51.1416 11.1406 51.2724 11.3153C51.4462 11.5322 51.5823 11.7605 51.6798 12.0001C51.7781 12.239 51.8597 12.4892 51.9247 12.7493C52.1636 13.8152 52.2989 14.875 52.3314 15.9296C52.3647 16.9841 52.3367 18.0538 52.2506 19.1408C52.1848 20.0548 52.1137 20.9672 52.0389 21.8804C51.9618 22.7944 51.9021 23.7068 51.859 24.62C51.7494 26.2082 51.6738 27.795 51.6314 29.3817C51.5876 30.9684 51.5982 32.5567 51.6639 34.1427C51.707 34.9047 51.7456 35.6652 51.7781 36.4264C51.8106 37.1876 51.8922 37.9481 52.0223 38.7094C52.0654 38.949 52.1039 39.172 52.1364 39.3784C52.1697 39.5848 52.2075 39.7964 52.2513 40.0141C52.2944 40.188 52.3209 40.3573 52.3322 40.5206C52.3428 40.6831 52.2838 40.8517 52.1538 41.0264C52.1538 41.0475 52.147 41.0589 52.1364 41.0589C52.1258 41.0589 52.1213 41.0694 52.1213 41.0914C52.1644 41.461 52.0827 41.7332 51.8764 41.907C51.67 42.0809 51.4251 42.2329 51.1431 42.3629C50.8604 42.4725 50.5882 42.5866 50.3274 42.7061C50.0674 42.8255 49.7846 42.9397 49.48 43.0478C49.0446 43.2005 48.5819 43.2005 48.0928 43.0478C47.6037 42.8958 47.2174 42.635 46.9355 42.2654C46.8697 42.1792 46.8311 42.0817 46.8206 41.9721C46.81 41.8632 46.7828 41.7551 46.7397 41.6462C46.717 41.5593 46.7064 41.4784 46.7064 41.4021C46.7064 41.3257 46.6958 41.2441 46.6739 41.1571C46.2173 38.7872 46.0215 36.375 46.0865 33.9166C46.0865 33.4389 46.0813 32.9664 46.0707 32.4985C46.0586 32.0305 46.076 31.5581 46.119 31.0788C46.1629 30.3191 46.2226 29.5578 46.299 28.7958C46.3753 28.0346 46.4464 27.2749 46.5106 26.5129C46.5764 25.8816 46.6459 25.2519 46.7223 24.6207C46.7987 23.991 46.8909 23.3606 46.9997 22.7293C47.0655 22.2297 47.1471 21.7292 47.2447 21.2295C47.3422 20.7299 47.4352 20.2294 47.5221 19.7282C47.674 18.7939 47.8373 17.8648 48.0112 16.9403C48.1843 16.0165 48.2924 15.0761 48.337 14.1191C48.3582 13.9891 48.3642 13.8575 48.3529 13.7275C48.3423 13.5975 48.337 13.4455 48.337 13.2717C47.6627 13.7502 47.1192 14.2929 46.7057 14.9015C46.4668 15.2711 46.2438 15.6468 46.0382 16.0271C45.8303 16.4081 45.6186 16.7823 45.4016 17.1519C45.162 17.5647 44.9178 17.979 44.6684 18.3917C44.4182 18.8044 44.1725 19.2187 43.9344 19.6307C43.6728 20.0873 43.4453 20.5446 43.2495 21.0005C42.9448 21.6529 42.6462 22.3007 42.3529 22.941C42.0596 23.5828 41.7602 24.2292 41.4564 24.8815C41.3248 25.1862 41.2061 25.5075 41.0973 25.8439C40.9884 26.1818 40.8803 26.5129 40.7715 26.8387C40.4887 27.6869 40.2113 28.5343 39.9392 29.3825C39.667 30.2306 39.4017 31.0781 39.1401 31.9262C38.9874 32.3617 38.868 32.8016 38.781 33.2469C38.6941 33.6929 38.5853 34.1336 38.4552 34.5683C38.2814 35.1995 38.1725 35.8458 38.1294 36.5088C38.0856 37.1725 38.0092 37.8294 37.9004 38.4818C37.8573 38.7857 37.7968 39.0904 37.722 39.395C37.6456 39.6989 37.5851 40.0036 37.542 40.3082C37.4982 40.5909 37.4657 40.8684 37.4438 41.1405C37.4211 41.4126 37.3674 41.678 37.2805 41.9395C37.1716 42.375 37.0189 42.7666 36.8231 43.1135C36.7362 43.2874 36.6447 43.4182 36.5472 43.5051C36.4497 43.5921 36.3023 43.6896 36.1065 43.7984C35.9538 43.8642 35.7966 43.9012 35.6333 43.9126C35.4707 43.9247 35.3022 43.9284 35.1275 43.9284C34.9537 43.9284 34.7964 43.9239 34.6543 43.9126C34.5137 43.902 34.3875 43.8309 34.2801 43.7009C33.8008 43.2012 33.4425 42.6569 33.2036 42.0696C32.8551 41.201 32.5944 40.3256 32.4212 39.4449C32.2459 38.5642 32.1052 37.6662 31.9964 36.7537C31.8875 35.7098 31.7688 34.6665 31.6381 33.6226C31.5073 32.5794 31.409 31.5354 31.3448 30.4914C31.279 29.2524 31.2404 28.0081 31.2299 26.757C31.2193 25.5075 31.214 24.2518 31.214 22.9909C31.214 22.0127 31.2404 21.0337 31.2956 20.0555C31.3493 19.0773 31.3992 18.0878 31.443 17.0869C31.5073 15.8479 31.6056 14.5658 31.7363 13.2391C31.7794 12.8702 31.8543 12.5006 31.9639 12.1309C32.0727 11.7613 32.2459 11.4135 32.4855 11.087C32.7251 10.74 33.0184 10.5548 33.3662 10.5336C33.6708 10.4898 33.9535 10.5003 34.2143 10.5661C34.4759 10.6319 34.7035 10.8163 34.8992 11.121C35.095 11.4256 35.2523 11.7242 35.3725 12.0175C35.4919 12.3108 35.572 12.6419 35.6166 13.0124C35.6597 13.4478 35.7149 13.8658 35.7799 14.268C35.8457 14.6702 35.9099 15.0882 35.9757 15.5229C36.0846 16.1322 36.1662 16.7301 36.2199 17.3175C36.2743 17.9049 36.3121 18.5134 36.334 19.1431C36.3779 20.0571 36.4263 20.9589 36.4814 21.8502C36.5351 22.7414 36.585 23.6433 36.6273 24.5572C36.6712 25.5354 36.7143 26.5083 36.7581 27.4752C36.8012 28.4428 36.8443 29.4157 36.8881 30.3947C36.9093 30.7001 36.9312 30.9979 36.9539 31.2912C36.9751 31.5845 37.0076 31.8846 37.0514 32.1893H37.2147V32.1878Z" fill="black"/>
<path d="M60.6304 32.1878C60.7612 31.7524 60.892 31.3124 61.022 30.8664C61.1535 30.4211 61.2715 29.9804 61.3811 29.5457C61.5549 28.8064 61.7507 28.0837 61.9677 27.3762C62.1846 26.6709 62.4454 25.9686 62.7509 25.2731C63.0547 24.5119 63.3753 23.7461 63.7132 22.9743C64.0496 22.2024 64.4026 21.4359 64.7723 20.6747C65.0988 20.0004 65.4413 19.3374 65.8004 18.6858C66.1594 18.0334 66.523 17.3923 66.8927 16.7611C67.1966 16.2395 67.5012 15.7292 67.8059 15.2281C68.1098 14.7291 68.4371 14.2294 68.7841 13.7283C69.001 13.4024 69.246 13.0925 69.5181 12.7992C69.7903 12.5059 70.0556 12.2065 70.3172 11.9026C70.4691 11.7288 70.6158 11.5708 70.7579 11.4294C70.8985 11.2873 71.0451 11.1308 71.1978 10.9562C71.4806 10.6084 71.8616 10.4346 72.3401 10.4346C72.579 10.4557 72.8012 10.4777 73.0091 10.4988C73.2147 10.5215 73.4271 10.5321 73.6441 10.5321C73.9057 10.5533 74.112 10.6462 74.2632 10.8088C74.4159 10.972 74.5565 11.1406 74.6881 11.3153C74.8612 11.5322 74.998 11.7605 75.0955 12.0001C75.193 12.239 75.2754 12.4892 75.3397 12.7493C75.5793 13.8152 75.7146 14.875 75.7471 15.9296C75.7804 16.9841 75.7524 18.0538 75.6663 19.1408C75.6005 20.0548 75.5294 20.9672 75.4538 21.8804C75.3775 22.7944 75.3185 23.7068 75.2754 24.62C75.1658 26.2082 75.0902 27.795 75.0464 29.3817C75.0033 30.9684 75.0139 32.5567 75.0796 34.1427C75.1227 34.9047 75.1605 35.6652 75.1938 36.4264C75.2263 37.1876 75.3079 37.9481 75.438 38.7094C75.4818 38.949 75.5196 39.172 75.5521 39.3784C75.5854 39.5848 75.6232 39.7964 75.667 40.0141C75.7101 40.188 75.7366 40.3573 75.7479 40.5206C75.7585 40.6831 75.6995 40.8517 75.5695 41.0264C75.5695 41.0475 75.5627 41.0589 75.5521 41.0589C75.5415 41.0589 75.5362 41.0694 75.5362 41.0914C75.5801 41.461 75.4984 41.7332 75.2921 41.907C75.0842 42.0809 74.8408 42.2329 74.558 42.3629C74.2753 42.4725 74.0047 42.5866 73.7431 42.7061C73.4816 42.8255 73.1988 42.9397 72.8949 43.0478C72.4603 43.2005 71.9984 43.2005 71.5093 43.0478C71.0202 42.8958 70.6339 42.635 70.3512 42.2654C70.2869 42.1792 70.2484 42.0817 70.237 41.9721C70.2264 41.8632 70.1992 41.7551 70.1554 41.6462C70.1342 41.5593 70.1229 41.4784 70.1229 41.4021C70.1229 41.3257 70.1123 41.2441 70.0904 41.1571C69.6338 38.7872 69.438 36.375 69.503 33.9166C69.503 33.4389 69.4977 32.9664 69.4871 32.4985C69.475 32.0305 69.4917 31.5581 69.5355 31.0788C69.5786 30.3191 69.6383 29.5578 69.7154 28.7958C69.7918 28.0346 69.8613 27.2749 69.9271 26.5129C69.9929 25.8816 70.0624 25.2519 70.1388 24.6207C70.2151 23.991 70.3073 23.3606 70.4162 22.7293C70.482 22.2297 70.5636 21.7292 70.6611 21.2295C70.7586 20.7299 70.8501 20.2294 70.937 19.7282C71.0897 18.7939 71.2523 17.8648 71.4261 16.9403C71.6 16.0165 71.7089 15.0761 71.7527 14.1191C71.7746 13.9891 71.7799 13.8575 71.7686 13.7275C71.7565 13.5975 71.7527 13.4455 71.7527 13.2717C71.0784 13.7502 70.5349 14.2929 70.1214 14.9015C69.8817 15.2711 69.6595 15.6468 69.4524 16.0271C69.246 16.4081 69.0343 16.7823 68.8166 17.1519C68.577 17.5647 68.3328 17.979 68.0826 18.3917C67.8331 18.8044 67.5882 19.2187 67.3493 19.6307C67.0877 20.0873 66.8602 20.5446 66.6644 21.0005C66.359 21.6529 66.0612 22.3007 65.7679 22.941C65.4745 23.5828 65.1744 24.2292 64.8698 24.8815C64.7398 25.1862 64.6203 25.5075 64.5115 25.8439C64.4019 26.1818 64.293 26.5129 64.1857 26.8387C63.9014 27.6869 63.6255 28.5343 63.3534 29.3825C63.0812 30.2306 62.8159 31.0781 62.5543 31.9262C62.4016 32.3617 62.2822 32.8016 62.1952 33.2469C62.1083 33.6929 61.9994 34.1336 61.8694 34.5683C61.6955 35.1995 61.5867 35.8458 61.5436 36.5088C61.4998 37.1725 61.4234 37.8294 61.3146 38.4818C61.2707 38.7857 61.211 39.0904 61.1346 39.395C61.0583 39.6989 60.9993 40.0036 60.9562 40.3082C60.9124 40.5909 60.8784 40.8684 60.858 41.1405C60.8353 41.4126 60.7809 41.678 60.6947 41.9395C60.5851 42.375 60.4331 42.7666 60.2373 43.1135C60.1504 43.2874 60.0574 43.4182 59.9599 43.5051C59.8624 43.5921 59.7157 43.6896 59.5199 43.7984C59.3672 43.8642 59.21 43.9012 59.0467 43.9126C58.8834 43.9247 58.7156 43.9284 58.541 43.9284C58.3663 43.9284 58.2084 43.9239 58.0677 43.9126C57.9256 43.902 57.8009 43.8309 57.6928 43.7009C57.2143 43.2012 56.856 42.6569 56.6163 42.0696C56.2693 41.201 56.0078 40.3256 55.8339 39.4449C55.66 38.5642 55.5187 37.6662 55.4106 36.7537C55.3017 35.7098 55.183 34.6665 55.0515 33.6226C54.9215 32.5794 54.8232 31.5354 54.7582 30.4914C54.6939 29.2524 54.6546 28.0081 54.644 26.757C54.6335 25.5075 54.6282 24.2518 54.6282 22.9909C54.6282 22.0127 54.6546 21.0337 54.7098 20.0555C54.7635 19.0773 54.8134 18.0878 54.8557 17.0869C54.9215 15.8479 55.019 14.5658 55.149 13.2391C55.1929 12.8702 55.2685 12.5006 55.3781 12.1309C55.4869 11.7613 55.6601 11.4135 55.8997 11.087C56.1386 10.74 56.4319 10.5548 56.7804 10.5336C57.0843 10.4898 57.367 10.5003 57.6285 10.5661C57.8886 10.6319 58.1176 10.8163 58.3134 11.121C58.5092 11.4256 58.6665 11.7242 58.7859 12.0175C58.9053 12.3108 58.987 12.6419 59.0308 13.0124C59.0739 13.4478 59.1283 13.8658 59.1941 14.268C59.2584 14.6702 59.3241 15.0882 59.3899 15.5229C59.4988 16.1322 59.5789 16.7301 59.6341 17.3175C59.6877 17.9049 59.7263 18.5134 59.7482 19.1431C59.7921 20.0571 59.8404 20.9589 59.8956 21.8502C59.9493 22.7414 59.9977 23.6433 60.0415 24.5572C60.0854 25.5354 60.1285 26.5083 60.1723 27.4752C60.2154 28.4428 60.2585 29.4157 60.3023 30.3947C60.3235 30.7001 60.3454 30.9979 60.3681 31.2912C60.3885 31.5845 60.4218 31.8846 60.4656 32.1893H60.6304V32.1878Z" fill="black"/>
<path d="M100.68 43.9941C100.44 44.0153 100.201 43.9835 99.9622 43.8958C99.7664 43.8527 99.554 43.7658 99.3257 43.6343C99.0974 43.5043 98.8857 43.319 98.6899 43.0809C98.0375 42.1458 97.5371 41.1563 97.1886 40.1123C96.8416 39.0691 96.537 37.9934 96.2754 36.8836C96.1227 36.2108 95.9927 35.5365 95.8838 34.8622C95.775 34.1879 95.688 33.503 95.6223 32.8076C95.5134 31.7636 95.3993 30.737 95.2806 29.7248C95.1611 28.7141 95.0462 27.6875 94.9374 26.6436C94.9162 26.3608 94.8996 26.0781 94.889 25.7954C94.8769 25.5134 94.8504 25.208 94.8074 24.8822C94.6116 25.1218 94.443 25.3448 94.3016 25.5512C94.1595 25.7576 94.0454 25.9806 93.9584 26.2202C93.5668 27.2634 93.1155 28.2802 92.606 29.2697C92.0943 30.2593 91.5779 31.2533 91.0563 32.2535C90.8167 32.667 90.6103 33.0857 90.4357 33.5091C90.2618 33.9324 90.0555 34.352 89.8166 34.7647C89.6427 35.0686 89.4575 35.3574 89.2617 35.6295C89.0659 35.9017 88.8701 36.167 88.6743 36.4286C88.1958 37.0159 87.6969 37.5655 87.1745 38.0758C86.6529 38.5868 86.0436 39.0048 85.3489 39.3307C84.2611 39.8961 83.109 40.1252 81.8912 40.0155C81.3257 39.9725 80.8314 39.7986 80.4073 39.4939C79.9839 39.19 79.6082 38.8091 79.2824 38.3525C78.9339 37.8966 78.6784 37.4075 78.5159 36.8852C78.3526 36.3635 78.2384 35.8208 78.1727 35.2553C78.0207 34.2114 77.9943 33.1734 78.091 32.1408C78.1885 31.1089 78.3465 30.0703 78.5643 29.0263C78.7381 28.2666 78.9286 27.5212 79.135 26.7917C79.3414 26.0637 79.6294 25.3524 79.9998 24.6562C80.848 23.0248 81.957 21.5575 83.3267 20.2535C84.1522 19.4703 85.0118 18.7522 85.903 18.1013C86.7943 17.4489 87.7619 16.8737 88.8059 16.3725C89.8491 15.8728 90.8983 15.4593 91.9529 15.1327C93.0074 14.8069 94.0892 14.5574 95.1982 14.3836C95.2639 14.3836 95.3176 14.373 95.3615 14.3503C95.4046 14.3299 95.4476 14.3178 95.4915 14.3178C95.6654 13.775 95.8279 13.2579 95.9806 12.7681C96.1325 12.279 96.2958 11.7854 96.4697 11.2842C96.5355 11.0453 96.6708 10.8767 96.8772 10.7792C97.0835 10.6817 97.3398 10.6545 97.6437 10.6975C98.1865 10.7414 98.5939 10.9644 98.8661 11.3666C99.1382 11.7687 99.2962 12.1543 99.3393 12.5247C99.4481 13.0244 99.4867 13.5354 99.4534 14.057C99.4209 14.5793 99.3839 15.0904 99.3393 15.59C99.275 16.8737 99.2198 18.1497 99.1767 19.422C99.1329 20.6942 99.1646 21.971 99.2743 23.2539C99.4043 24.8633 99.5948 26.4447 99.8442 27.9997C100.094 29.5547 100.394 31.1142 100.742 32.6798C100.938 33.6142 101.155 34.544 101.394 35.4677C101.634 36.3923 101.872 37.3108 102.112 38.2232C102.242 38.7448 102.388 39.2566 102.552 39.7563C102.715 40.2559 102.883 40.767 103.057 41.2886C103.078 41.3755 103.111 41.5282 103.155 41.7459C103.198 42.0498 103.165 42.2955 103.057 42.4799C102.948 42.6651 102.785 42.8655 102.568 43.0832C102.394 43.2571 102.204 43.3931 101.997 43.4906C101.791 43.5882 101.59 43.6812 101.394 43.7681C101.158 43.8528 100.918 43.9283 100.68 43.9941ZM85.0246 35.9705H85.1879C85.3179 35.9274 85.4162 35.8843 85.4812 35.8404C86.6983 35.1223 87.6447 34.1343 88.319 32.8733C88.5148 32.5037 88.694 32.134 88.8565 31.7636C89.0198 31.3947 89.1997 31.025 89.3948 30.6554C89.7637 29.9599 90.1613 29.2856 90.5854 28.6332C91.0087 27.9816 91.3519 27.2755 91.612 26.5143C91.8289 25.9277 92.0799 25.3509 92.3626 24.7854C92.6453 24.22 92.9054 23.6553 93.1458 23.0898C93.4497 22.3498 93.7543 21.6112 94.0582 20.8719C94.3629 20.1333 94.6237 19.3827 94.8406 18.6214C94.9064 18.3825 94.9601 18.1437 95.0039 17.904C95.047 17.6644 95.0364 17.4043 94.9714 17.1216C94.7318 17.1654 94.5088 17.2252 94.3024 17.3015C94.0953 17.3779 93.8949 17.4693 93.6991 17.5782C92.9167 17.9698 92.1502 18.3833 91.3995 18.818C90.6504 19.2534 89.9262 19.7304 89.2307 20.2535C88.6653 20.6882 88.1331 21.1395 87.6326 21.6074C87.1314 22.0753 86.7293 22.6234 86.4261 23.2531C86.2954 23.5358 86.1593 23.8133 86.0179 24.0854C85.8773 24.3576 85.7511 24.635 85.6437 24.917C85.4684 25.3743 85.3005 25.8362 85.1373 26.3026C84.9747 26.7713 84.8379 27.2438 84.7298 27.7215C84.6209 28.1343 84.5446 28.5523 84.5022 28.9772C84.4584 29.4005 84.4153 29.8306 84.3722 30.2653C84.2853 30.9827 84.2467 31.7009 84.2573 32.4182C84.2679 33.1356 84.339 33.8538 84.4705 34.5704C84.5136 34.8101 84.5725 35.0542 84.6489 35.3037C84.726 35.5524 84.8507 35.7754 85.0246 35.9705Z" fill="black"/>
<path d="M106.193 10.0093C105.997 9.94505 105.899 9.79236 105.899 9.55348C105.899 9.44462 105.933 9.32442 105.997 9.19439C106.063 9.06437 106.144 8.93813 106.242 8.81869C106.339 8.69925 106.448 8.60702 106.568 8.54125C106.687 8.477 106.801 8.45507 106.911 8.47699C107.15 8.52008 107.404 8.56394 107.677 8.60703C107.949 8.65087 108.194 8.78089 108.411 8.9986L108.541 9.12862C108.736 9.67291 108.77 10.1832 108.639 10.6617C108.509 11.1402 108.205 11.5318 107.726 11.8357C107.596 11.9226 107.448 11.9778 107.285 11.999C107.123 12.0209 106.954 12.0526 106.78 12.0965C106.671 12.1177 106.59 12.0859 106.536 11.999C106.481 11.912 106.487 11.8138 106.552 11.7057C106.595 11.6187 106.649 11.5424 106.715 11.4766C106.824 11.3677 106.927 11.2596 107.025 11.1508C107.123 11.0419 107.226 10.9338 107.334 10.825C107.377 10.7592 107.438 10.6882 107.514 10.6118C107.59 10.5362 107.596 10.444 107.53 10.3351C107.486 10.2694 107.416 10.2316 107.318 10.2202C107.221 10.2096 107.128 10.193 107.041 10.1718L106.715 10.1061C106.605 10.0842 106.507 10.0683 106.422 10.0577C106.335 10.0479 106.258 10.032 106.193 10.0093Z" fill="black"/>
<path d="M111.442 29.9373C111.963 30.4158 112.437 30.9049 112.86 31.4046C113.283 31.9043 113.561 32.5136 113.692 33.2302C113.801 33.8614 113.942 34.4753 114.116 35.0732C114.289 35.6712 114.561 36.2419 114.93 36.7847C115.17 37.1113 115.42 37.3993 115.681 37.6488C115.943 37.899 116.224 38.1431 116.529 38.3828C116.789 38.5786 117.072 38.7033 117.377 38.7577C117.681 38.8114 117.985 38.8273 118.291 38.8061C118.551 38.763 118.768 38.6761 118.942 38.5446C119.204 38.3057 119.442 38.0449 119.66 37.7622C119.877 37.4802 120.04 37.1551 120.149 36.7839C120.453 35.7627 120.627 34.7414 120.671 33.7186C120.714 32.6973 120.584 31.6639 120.28 30.6207C120.106 29.9683 119.865 29.3537 119.562 28.7777C119.257 28.2016 118.92 27.6415 118.551 27.098C118.115 26.4894 117.686 25.8907 117.263 25.3033C116.839 24.716 116.442 24.1074 116.072 23.4777C115.615 22.7165 115.197 21.9447 114.816 21.1615C114.436 20.3791 114.137 19.5528 113.92 18.6835C113.767 18.0311 113.713 17.3674 113.756 16.6931C113.8 16.0203 113.936 15.3618 114.164 14.72C114.393 14.079 114.708 13.4871 115.11 12.9428C115.513 12.4 115.996 11.9321 116.562 11.5405C116.736 11.4317 116.91 11.3236 117.083 11.2147C117.257 11.1058 117.43 10.9977 117.606 10.8881C118.105 10.5835 118.643 10.3937 119.22 10.3174C119.796 10.2418 120.361 10.2637 120.915 10.3832C121.47 10.5026 121.997 10.6931 122.497 10.9539C122.996 11.2155 123.432 11.5193 123.802 11.8671C124.563 12.6072 125.27 13.4327 125.921 14.3451C126.161 14.6717 126.362 15.0141 126.525 15.3732C126.688 15.7323 126.856 16.0966 127.031 16.4655C127.14 16.7052 127.237 16.9335 127.324 17.1504C127.41 17.3674 127.508 17.5964 127.618 17.8353C127.748 18.1407 127.704 18.434 127.487 18.716C127.423 18.8256 127.346 18.9118 127.259 18.9775C127.172 19.0418 127.052 19.0539 126.899 19.0101C126.595 18.9889 126.432 18.8264 126.41 18.521C126.367 18.3252 126.329 18.1294 126.296 17.9336C126.264 17.7378 126.215 17.5541 126.15 17.3787C125.868 16.6832 125.509 16.0422 125.074 15.4556C124.638 14.8682 124.106 14.3685 123.475 13.9543C123.215 13.7812 122.922 13.6443 122.594 13.5468C122.269 13.4493 121.953 13.3578 121.649 13.2709C121.454 13.227 121.258 13.2323 121.063 13.2868C120.867 13.3404 120.693 13.4561 120.54 13.6285C120.128 14.107 119.791 14.6119 119.53 15.1456C119.27 15.6778 119.117 16.2599 119.074 16.8896C119.051 17.195 119.084 17.4883 119.171 17.7703C119.258 18.053 119.367 18.3146 119.497 18.5527C119.932 19.4228 120.404 20.2544 120.915 21.0481C121.426 21.8418 121.954 22.6295 122.497 23.4127C122.932 24.0001 123.345 24.5973 123.737 25.2058C124.128 25.8151 124.498 26.4456 124.845 27.098C125.78 28.8374 126.301 30.6963 126.41 32.6746C126.454 33.7178 126.428 34.7346 126.329 35.7241C126.232 36.7136 126.029 37.6971 125.725 38.6753C125.421 39.8282 124.937 40.8222 124.275 41.6591C123.611 42.4967 122.714 43.1543 121.584 43.6321C121.105 43.8279 120.627 43.9375 120.148 43.9587C119.67 43.9798 119.18 43.9693 118.682 43.9254C117.136 43.7954 115.746 43.3063 114.506 42.4574C114.028 42.1104 113.587 41.7294 113.185 41.3166C112.783 40.9039 112.397 40.479 112.028 40.0444C111.136 38.8915 110.517 37.6094 110.17 36.1951C110.017 35.6077 109.968 35.0271 110.022 34.4511C110.076 33.8751 110.191 33.3036 110.365 32.7381C110.517 32.2603 110.691 31.7985 110.887 31.3525C111.083 30.9102 111.268 30.437 111.442 29.9373Z" fill="black"/>
</svg>
