<svg xmlns:xlink="http://www.w3.org/1999/xlink" xmlns="http://www.w3.org/2000/svg" width="70" height="70" viewBox="0 0 70 70" fill="none">
<path d="M28.3182 14.9551H19.0909C18.2123 14.9551 17.5 15.6674 17.5 16.546V53.296C17.5 54.1746 18.2123 54.8869 19.0909 54.8869H28.3182C29.1968 54.8869 29.9091 54.1746 29.9091 53.296V16.546C29.9091 15.6674 29.1968 14.9551 28.3182 14.9551Z" fill="black"/>
<path d="M50.7499 14.9551H41.5227C40.644 14.9551 39.9318 15.6674 39.9318 16.546V53.296C39.9318 54.1746 40.644 54.8869 41.5227 54.8869H50.7499C51.6286 54.8869 52.3409 54.1746 52.3409 53.296V16.546C52.3409 15.6674 51.6286 14.9551 50.7499 14.9551Z" fill="black"/>
</svg>