<svg width="20" height="20" viewBox="0 0 20 20" fill="none" xmlns="http://www.w3.org/2000/svg">
<path d="M16.7794 19.0391H10C4.6925 19.0391 0.375 14.984 0.375 10C0.375 5.01599 4.6925 0.960938 10 0.960938C15.3075 0.960938 19.625 5.01599 19.625 10C19.623 12.156 18.811 14.235 17.3452 15.8365L17.8953 16.3781C18.1163 16.596 18.2669 16.8735 18.3278 17.1755C18.3888 17.4776 18.3574 17.7907 18.2377 18.0753C18.118 18.3598 17.9152 18.603 17.6552 18.774C17.3951 18.9451 17.0894 19.0364 16.7767 19.0364L16.7794 19.0391ZM10 2.3151C5.45081 2.3151 1.75 5.76281 1.75 10C1.75 14.2372 5.45081 17.6849 10 17.6849H16.7794C16.8203 17.685 16.8602 17.6732 16.8942 17.6509C16.9282 17.6286 16.9547 17.5969 16.9704 17.5598C16.9861 17.5227 16.9902 17.4818 16.9823 17.4424C16.9744 17.4029 16.9547 17.3667 16.9259 17.3382L15.8946 16.3226C15.8302 16.2591 15.7792 16.1836 15.7446 16.1005C15.71 16.0174 15.6926 15.9284 15.6933 15.8386C15.694 15.7488 15.7128 15.6601 15.7487 15.5775C15.7846 15.495 15.8367 15.4203 15.9022 15.3578C16.6403 14.6669 17.2288 13.836 17.6323 12.9153C18.0358 11.9945 18.2459 11.0028 18.25 10C18.25 5.76281 14.5492 2.3151 10 2.3151Z" fill="#3B3B3B"/>
<path d="M11.0312 14.0624H8.96875C8.78641 14.0624 8.61155 13.9911 8.48261 13.8641C8.35368 13.7371 8.28125 13.5649 8.28125 13.3853C8.28125 13.2058 8.35368 13.0335 8.48261 12.9066C8.61155 12.7796 8.78641 12.7083 8.96875 12.7083H11.0312C11.2136 12.7083 11.3885 12.7796 11.5174 12.9066C11.6463 13.0335 11.7188 13.2058 11.7188 13.3853C11.7188 13.5649 11.6463 13.7371 11.5174 13.8641C11.3885 13.9911 11.2136 14.0624 11.0312 14.0624Z" fill="#3B3B3B"/>
<path d="M9.99997 14.0625C9.81763 14.0625 9.64277 13.9912 9.51383 13.8642C9.3849 13.7372 9.31247 13.565 9.31247 13.3854V9.23219C9.18141 9.15766 9.07899 9.04262 9.02108 8.90492C8.96317 8.76722 8.95301 8.61455 8.99218 8.47059C9.03135 8.32662 9.11765 8.19941 9.23772 8.10868C9.35778 8.01794 9.50488 7.96876 9.65622 7.96875H9.99997C10.1823 7.96875 10.3572 8.04009 10.4861 8.16706C10.615 8.29404 10.6875 8.46626 10.6875 8.64583V13.3854C10.6875 13.565 10.615 13.7372 10.4861 13.8642C10.3572 13.9912 10.1823 14.0625 9.99997 14.0625Z" fill="#3B3B3B"/>
<path d="M10 6.95312C10.5695 6.95312 11.0312 6.49841 11.0312 5.9375C11.0312 5.37659 10.5695 4.92188 10 4.92188C9.43046 4.92188 8.96875 5.37659 8.96875 5.9375C8.96875 6.49841 9.43046 6.95312 10 6.95312Z" fill="#3B3B3B"/>
</svg>
