<svg width="21" height="19" viewBox="0 0 21 19" fill="none" xmlns="http://www.w3.org/2000/svg">
<path d="M12.2451 0.138916C12.7716 0.138916 13.2765 0.346374 13.6488 0.715666L18.4413 5.46957C18.8136 5.83886 19.0227 6.33971 19.0227 6.86197V13.9229H21.0078V15.892L12.9421 15.8928C12.5011 17.591 10.9468 18.8457 9.0971 18.8457C7.24739 18.8457 5.69314 17.591 5.25213 15.8928L1.15662 15.892C0.608451 15.892 0.164062 15.4512 0.164062 14.9074V2.10805C0.164062 1.02053 1.05283 0.138916 2.14918 0.138916H12.2451ZM9.0971 12.9383C8.00075 12.9383 7.11198 13.8199 7.11198 14.9074C7.11198 15.995 8.00075 16.8766 9.0971 16.8766C10.1935 16.8766 11.0822 15.995 11.0822 14.9074C11.0822 13.8199 10.1935 12.9383 9.0971 12.9383ZM12.2451 2.10805H2.14918V13.9229L5.25187 13.9231C5.69253 12.2244 7.24704 10.9692 9.0971 10.9692C10.9471 10.9692 12.5017 12.2244 12.9423 13.9231L17.0376 13.9229V6.86197L12.2451 2.10805ZM12.0748 4.07719V9.98459H4.1343V4.07719H12.0748ZM10.0897 6.04632H6.11942V8.01546H10.0897V6.04632Z" fill="#3B3B3B"/>
</svg>
