<svg width="18" height="18" viewBox="0 0 18 18" fill="none" xmlns="http://www.w3.org/2000/svg">
<path fill-rule="evenodd" clip-rule="evenodd" d="M12.5947 12.5947C12.8875 12.3018 13.3624 12.3018 13.6553 12.5947L17.0303 15.9697C17.3232 16.2625 17.3232 16.7374 17.0303 17.0303C16.7374 17.3232 16.2625 17.3232 15.9697 17.0303L12.5947 13.6553C12.3018 13.3624 12.3018 12.8875 12.5947 12.5947Z" fill="black"/>
<path fill-rule="evenodd" clip-rule="evenodd" d="M0.75 8.25C0.75 4.10786 4.10786 0.75 8.25 0.75C12.3921 0.75 15.75 4.10786 15.75 8.25C15.75 12.3921 12.3921 15.75 8.25 15.75C4.10786 15.75 0.75 12.3921 0.75 8.25ZM8.25 2.25C4.93629 2.25 2.25 4.93629 2.25 8.25C2.25 11.5637 4.93629 14.25 8.25 14.25C11.5637 14.25 14.25 11.5637 14.25 8.25C14.25 4.93629 11.5637 2.25 8.25 2.25Z" fill="black"/>
</svg>
