<svg width="16" height="14" viewBox="0 0 16 14" fill="none" xmlns="http://www.w3.org/2000/svg">
<path d="M15.7793 5.2955C15.6801 5.00017 15.408 4.79041 15.0861 4.76248L10.7128 4.38024L8.98354 0.484046C8.85603 0.198505 8.56564 0.0136719 8.24299 0.0136719C7.92034 0.0136719 7.62995 0.198505 7.50244 0.484714L5.77315 4.38024L1.39922 4.76248C1.07784 4.79108 0.806407 5.00017 0.706642 5.2955C0.606877 5.59084 0.699012 5.91477 0.942124 6.11897L4.24777 8.90961L3.27301 13.0428C3.20169 13.3467 3.32423 13.6609 3.58618 13.8431C3.72698 13.9411 3.89172 13.9909 4.05784 13.9909C4.20107 13.9909 4.34314 13.9537 4.47065 13.8803L8.24299 11.71L12.0139 13.8803C12.2899 14.0401 12.6377 14.0255 12.8991 13.8431C13.1612 13.6603 13.2836 13.3461 13.2123 13.0428L12.2375 8.90961L15.5432 6.11952C15.7863 5.91477 15.8791 5.59139 15.7793 5.2955Z" fill="#BEB9B9"/>
</svg>
