<svg width="36" height="36" viewBox="0 0 36 36" fill="none" xmlns="http://www.w3.org/2000/svg">
<path d="M9 13.5C11.4853 13.5 13.5 11.4853 13.5 9C13.5 6.51472 11.4853 4.5 9 4.5C6.51472 4.5 4.5 6.51472 4.5 9C4.5 11.4853 6.51472 13.5 9 13.5Z" stroke="black" stroke-width="2" stroke-linecap="round" stroke-linejoin="round"/>
<path d="M12.1797 12.1799L17.9997 17.9999" stroke="black" stroke-width="2" stroke-linecap="round" stroke-linejoin="round"/>
<path d="M29.9997 6L12.1797 23.82" stroke="black" stroke-width="2" stroke-linecap="round" stroke-linejoin="round"/>
<path d="M9 31.5C11.4853 31.5 13.5 29.4853 13.5 27C13.5 24.5147 11.4853 22.5 9 22.5C6.51472 22.5 4.5 24.5147 4.5 27C4.5 29.4853 6.51472 31.5 9 31.5Z" stroke="black" stroke-width="2" stroke-linecap="round" stroke-linejoin="round"/>
<path d="M22.2 22.2L30 30" stroke="black" stroke-width="2" stroke-linecap="round" stroke-linejoin="round"/>
</svg>
