<svg width="52" height="52" viewBox="0 0 52 52" fill="none" xmlns="http://www.w3.org/2000/svg">
<path d="M51 26V38.5C51 46 46 51 38.5 51H13.5C6 51 1 46 1 38.5V26C1 19.2 5.1 14.45 11.475 13.65C12.125 13.55 12.8 13.5 13.5 13.5H38.5C39.15 13.5 39.775 13.525 40.375 13.625C46.825 14.375 51 19.15 51 26Z" stroke="black" stroke-width="1.5" stroke-linecap="round" stroke-linejoin="round"/>
<path d="M40.3785 13.625C39.7785 13.525 39.1535 13.5 38.5035 13.5H13.5035C12.8035 13.5 12.1285 13.55 11.4785 13.65C11.8285 12.95 12.3285 12.3 12.9285 11.7L21.0535 3.55C24.4785 0.15 30.0285 0.15 33.4535 3.55L37.8285 7.97505C39.4285 9.55005 40.2785 11.55 40.3785 13.625Z" stroke="black" stroke-width="1.5" stroke-linecap="round" stroke-linejoin="round"/>
<path d="M51 27.25H43.5C40.75 27.25 38.5 29.5 38.5 32.25C38.5 35 40.75 37.25 43.5 37.25H51" stroke="black" stroke-width="1.5" stroke-linecap="round" stroke-linejoin="round"/>
</svg>
