<svg width="52" height="52" viewBox="0 0 52 52" fill="none" xmlns="http://www.w3.org/2000/svg">
<path d="M3.92456 14.6001L25.9995 27.3751L47.9245 14.675" stroke="black" stroke-width="1.5" stroke-linecap="round" stroke-linejoin="round"/>
<path d="M25.9995 50.0251V27.3501" stroke="black" stroke-width="1.5" stroke-linecap="round" stroke-linejoin="round"/>
<path d="M20.8246 2.2L7.47456 9.62508C4.44956 11.3001 1.97461 15.5 1.97461 18.95V33.0751C1.97461 36.5251 4.44956 40.725 7.47456 42.4L20.8246 49.8251C23.6746 51.4001 28.3495 51.4001 31.1995 49.8251L44.5496 42.4C47.5746 40.725 50.0496 36.5251 50.0496 33.0751V18.95C50.0496 15.5 47.5746 11.3001 44.5496 9.62508L31.1995 2.2C28.3245 0.6 23.6746 0.6 20.8246 2.2Z" stroke="black" stroke-width="1.5" stroke-linecap="round" stroke-linejoin="round"/>
<path d="M38.5004 29.1V19.9501L14.7754 6.25" stroke="black" stroke-width="1.5" stroke-linecap="round" stroke-linejoin="round"/>
</svg>
