<svg width="52" height="52" viewBox="0 0 52 52" fill="none" xmlns="http://www.w3.org/2000/svg">
<path d="M43.5 18.5C43.5 22.125 42.425 25.45 40.575 28.225C37.875 32.225 33.6 35.05 28.625 35.775C27.775 35.925 26.9 36 26 36C25.1 36 24.225 35.925 23.375 35.775C18.4 35.05 14.125 32.225 11.425 28.225C9.575 25.45 8.5 22.125 8.5 18.5C8.5 8.825 16.325 1 26 1C35.675 1 43.5 8.825 43.5 18.5Z" stroke="black" stroke-width="1.5" stroke-linecap="round" stroke-linejoin="round"/>
<path d="M49.1247 42.175L44.9997 43.15C44.0747 43.375 43.3497 44.075 43.1497 45L42.2747 48.675C41.7997 50.675 39.2497 51.275 37.9247 49.7L25.9997 36L14.0747 49.725C12.7497 51.3 10.1997 50.7 9.72471 48.7L8.84971 45.025C8.62471 44.1 7.89971 43.375 6.99971 43.175L2.87471 42.2C0.974708 41.75 0.299708 39.375 1.67471 38L11.4247 28.25C14.1247 32.25 18.3997 35.075 23.3747 35.8C24.2247 35.95 25.0997 36.025 25.9997 36.025C26.8997 36.025 27.7747 35.95 28.6247 35.8C33.5997 35.075 37.8747 32.25 40.5747 28.25L50.3247 38C51.6997 39.35 51.0247 41.725 49.1247 42.175Z" stroke="black" stroke-width="1.5" stroke-linecap="round" stroke-linejoin="round"/>
<path d="M27.4499 10.95L28.9249 13.9C29.1249 14.3 29.6499 14.7 30.1249 14.775L32.7999 15.225C34.4999 15.5 34.8999 16.75 33.6749 17.975L31.5999 20.05C31.2499 20.4 31.0499 21.075 31.1749 21.575L31.7749 24.15C32.2499 26.175 31.1749 26.9749 29.3749 25.8999L26.8749 24.425C26.4249 24.15 25.6749 24.15 25.2249 24.425L22.7249 25.8999C20.9249 26.9499 19.8499 26.175 20.3249 24.15L20.9249 21.575C21.0249 21.1 20.8499 20.4 20.4999 20.05L18.4249 17.975C17.1999 16.75 17.5999 15.525 19.2999 15.225L21.9749 14.775C22.4249 14.7 22.9499 14.3 23.1499 13.9L24.6249 10.95C25.3499 9.35 26.6499 9.35 27.4499 10.95Z" stroke="black" stroke-width="1.5" stroke-linecap="round" stroke-linejoin="round"/>
</svg>
