<svg width="45" height="45" viewBox="0 0 45 45" fill="none" xmlns="http://www.w3.org/2000/svg">
<path d="M42.9541 22.6887V16.3641C42.9541 14.2194 41.2906 12.4753 39.1888 12.3062L33.3152 2.04711C32.7709 1.09829 31.892 0.420136 30.8403 0.138539C29.7936 -0.14114 28.699 0.00574652 27.7622 0.551011L7.62731 12.2732H4.091C1.83486 12.2732 0.00012207 14.1078 0.00012207 16.3641V40.9091C0.00012207 43.1653 1.83477 45 4.091 45H38.8632C41.1193 45 42.9541 43.1654 42.9541 40.9091V34.5845C44.1419 34.1609 44.9995 33.0363 44.9995 31.7047V25.5685C44.9995 24.2369 44.1419 23.1123 42.9541 22.6887ZM36.812 12.2732H27.8981L34.5836 8.38088L36.812 12.2732ZM33.5674 6.60587L23.8329 12.2732H19.7951L32.5578 4.84256L33.5674 6.60587ZM28.7919 2.31873C29.2543 2.04807 29.7946 1.97616 30.311 2.11403C30.8333 2.25382 31.2688 2.59141 31.5395 3.06381L31.5416 3.06755L15.7301 12.2732H11.6926L28.7919 2.31873ZM40.9086 40.9091C40.9086 42.0367 39.9907 42.9545 38.8632 42.9545H4.091C2.96346 42.9545 2.04561 42.0367 2.04561 40.9091V16.3641C2.04561 15.2365 2.96346 14.3187 4.091 14.3187H38.8632C39.9907 14.3187 40.9086 15.2365 40.9086 16.3641V22.5003H34.7723C31.3885 22.5003 28.6361 25.2528 28.6361 28.6366C28.6361 32.0204 31.3885 34.7729 34.7723 34.7729H40.9086V40.9091ZM42.9541 31.7047C42.9541 32.269 42.4957 32.7275 41.9313 32.7275H34.7723C32.5162 32.7275 30.6814 30.8928 30.6814 28.6366C30.6814 26.3805 32.5161 24.5457 34.7723 24.5457H41.9313C42.4956 24.5457 42.9541 25.0041 42.9541 25.5685V31.7047Z" fill="black"/>
</svg>
