<svg width="21" height="22" viewBox="0 0 21 22" fill="none" xmlns="http://www.w3.org/2000/svg">
<g clip-path="url(#clip0_1_3383)">
<path d="M16.597 13.524C16.167 13.0764 15.6485 12.8371 15.0989 12.8371C14.5537 12.8371 14.0307 13.072 13.5831 13.5196L12.1825 14.9158C12.0673 14.8537 11.952 14.7961 11.8412 14.7385C11.6817 14.6587 11.531 14.5833 11.4024 14.5036C10.0905 13.6703 8.89825 12.5844 7.75474 11.1794C7.20072 10.4791 6.82842 9.88965 6.55805 9.2913C6.92149 8.95889 7.25834 8.61318 7.58632 8.28076C7.71042 8.15666 7.83452 8.02813 7.95862 7.90403C8.88939 6.97327 8.88939 5.76771 7.95862 4.83695L6.74864 3.62696C6.61124 3.48956 6.46941 3.34773 6.33644 3.2059C6.07051 2.93111 5.79128 2.64744 5.50319 2.38151C5.07327 1.95602 4.55913 1.72998 4.0184 1.72998C3.47768 1.72998 2.95468 1.95602 2.51146 2.38151C2.50703 2.38595 2.50703 2.38595 2.50259 2.39038L0.995649 3.91062C0.428328 4.47794 0.104778 5.16936 0.0338628 5.97159C-0.0725098 7.26579 0.308659 8.47135 0.601184 9.26028C1.3192 11.1971 2.39179 12.9922 3.99181 14.9158C5.93311 17.2338 8.26888 19.0643 10.9371 20.3541C11.9565 20.8372 13.3171 21.4089 14.8374 21.5064C14.9305 21.5109 15.028 21.5153 15.1166 21.5153C16.1405 21.5153 17.0003 21.1474 17.674 20.4161C17.6784 20.4072 17.6873 20.4028 17.6917 20.3939C17.9222 20.1147 18.1881 19.8621 18.4674 19.5917C18.6579 19.41 18.853 19.2194 19.0435 19.02C19.4823 18.5635 19.7128 18.0316 19.7128 17.4864C19.7128 16.9368 19.4779 16.4094 19.0302 15.9662L16.597 13.524ZM18.1837 18.1911C18.1793 18.1911 18.1793 18.1956 18.1837 18.1911C18.0108 18.3773 17.8336 18.5457 17.643 18.7319C17.3549 19.0067 17.0624 19.2948 16.7876 19.6183C16.3399 20.097 15.8125 20.323 15.121 20.323C15.0546 20.323 14.9837 20.323 14.9172 20.3186C13.6008 20.2344 12.3775 19.7203 11.4601 19.2815C8.95144 18.067 6.74864 16.3429 4.91814 14.1579C3.40676 12.3362 2.39622 10.652 1.72696 8.84365C1.31477 7.74004 1.16407 6.88019 1.23056 6.0691C1.27488 5.55053 1.47433 5.12061 1.8422 4.75274L3.35358 3.24136C3.57075 3.03748 3.80123 2.92667 4.02727 2.92667C4.3065 2.92667 4.53254 3.0951 4.67437 3.23693C4.6788 3.24136 4.68323 3.24579 4.68767 3.25022C4.95803 3.50286 5.2151 3.76436 5.48546 4.04359C5.62286 4.18542 5.76469 4.32725 5.90652 4.47351L7.11651 5.6835C7.58632 6.15331 7.58632 6.58767 7.11651 7.05748C6.98797 7.18601 6.86387 7.31454 6.73534 7.43865C6.36304 7.81981 6.00846 8.17439 5.62286 8.5201C5.61399 8.52897 5.60513 8.5334 5.6007 8.54226C5.21953 8.92343 5.29044 9.29574 5.37022 9.54837C5.37466 9.56167 5.37909 9.57496 5.38352 9.58826C5.69821 10.3506 6.14143 11.0686 6.81512 11.924L6.81955 11.9285C8.04284 13.4354 9.33261 14.6099 10.7553 15.5097C10.9371 15.6249 11.1232 15.718 11.3005 15.8066C11.4601 15.8864 11.6108 15.9618 11.7393 16.0415C11.757 16.0504 11.7747 16.0637 11.7925 16.0726C11.9432 16.1479 12.085 16.1834 12.2313 16.1834C12.5991 16.1834 12.8296 15.9529 12.905 15.8775L14.4208 14.3617C14.5715 14.211 14.8108 14.0293 15.09 14.0293C15.3648 14.0293 15.5909 14.2022 15.7283 14.3529C15.7327 14.3573 15.7327 14.3573 15.7371 14.3617L18.1793 16.8039C18.6358 17.256 18.6358 17.7213 18.1837 18.1911Z" fill="#9B9B9B"/>
<path d="M11.348 5.5107C12.5092 5.70572 13.5641 6.25531 14.4062 7.09743C15.2483 7.93955 15.7935 8.99441 15.9929 10.1556C16.0417 10.4482 16.2943 10.652 16.5824 10.652C16.6179 10.652 16.6489 10.6476 16.6843 10.6432C17.0123 10.59 17.2295 10.2797 17.1763 9.95176C16.937 8.54676 16.2722 7.26585 15.2572 6.25088C14.2422 5.23591 12.9613 4.57108 11.5563 4.33174C11.2283 4.27855 10.9225 4.49573 10.8649 4.81928C10.8073 5.14283 11.02 5.45752 11.348 5.5107Z" fill="#9B9B9B"/>
<path d="M20.9768 9.77868C20.5823 7.46507 19.492 5.35978 17.8166 3.68441C16.1412 2.00904 14.0359 0.918724 11.7223 0.524259C11.3988 0.46664 11.093 0.68825 11.0353 1.0118C10.9822 1.33978 11.1993 1.6456 11.5273 1.70322C13.5927 2.05337 15.4764 3.03288 16.9745 4.52653C18.4726 6.02461 19.4477 7.90829 19.7978 9.9737C19.8466 10.2662 20.0992 10.4701 20.3873 10.4701C20.4227 10.4701 20.4538 10.4657 20.4892 10.4612C20.8128 10.4125 21.0344 10.1022 20.9768 9.77868Z" fill="#9B9B9B"/>
</g>
<defs>
<clipPath id="clip0_1_3383">
<rect width="21" height="21" fill="white" transform="translate(0 0.515137)"/>
</clipPath>
</defs>
</svg>
