<svg width="144" height="44" viewBox="0 0 144 44" fill="none" xmlns="http://www.w3.org/2000/svg">
<path d="M10.6175 27.4409C10.7587 27.5147 10.9004 27.5901 11.0415 27.6177C12.1252 28.0322 12.9728 28.6685 13.8676 29.2979C15.1392 30.2521 16.0345 31.588 16.5052 33.3128C16.7881 34.4984 16.5997 35.8899 15.7989 37.4152C15.5632 37.9188 15.2809 38.4756 14.9041 38.9521C14.7629 39.1597 14.5273 39.476 14.2922 39.6962C13.3968 40.6685 12.4081 41.3711 11.3244 41.9459C10.8064 42.3004 10.2412 42.4262 9.72323 42.4506C9.29919 42.5095 8.92238 42.6083 8.49834 42.9028C8.121 43.1443 7.79195 43.2838 7.36791 43.4839C6.37866 43.857 5.53058 44.0215 4.68302 43.9982C3.4109 43.986 2.18654 43.7795 1.38569 43.0434C0.679309 42.3875 0.490374 41.4242 0.914946 40.046C1.24452 39.2005 1.66803 38.3408 2.28101 37.4545C2.79898 36.6287 3.41143 35.7902 4.16505 35.0254C4.30622 34.9124 4.40069 34.7107 4.49515 34.5557C4.87196 33.7963 5.05983 33.6296 5.76674 33.6259C6.04961 33.4921 6.23802 33.0416 6.61483 33.1313C6.42642 33.2512 6.28472 33.3653 6.00238 33.5457C6.23802 33.5601 6.37972 33.5872 6.47366 33.5744C6.47366 33.8101 6.47366 33.9984 6.52089 34.2272C6.56812 34.3625 6.52089 34.5095 6.37972 34.7176C6.09685 35.1336 5.86174 35.5439 5.53164 36.0131C5.06036 36.6908 4.73132 37.3016 4.63685 38.0218C4.54239 38.4586 4.54239 38.8354 4.49568 39.313C4.44845 39.649 4.58962 39.865 4.91972 39.9138C5.29653 40.0019 5.76727 39.9849 6.23855 39.8246C7.08663 39.5656 7.98142 39.2531 8.82897 38.759C9.67706 38.2643 10.5718 37.8101 11.4199 37.2682C12.0318 36.9015 12.6915 36.4318 13.2567 35.8353C13.6808 35.4468 13.8219 35.0503 13.6808 34.7866C13.3512 33.7495 12.9272 32.8665 12.0324 32.2843C10.5724 31.3088 8.87621 30.508 7.18057 29.7538C6.14461 29.2857 5.20259 28.7566 4.30728 28.1277C3.27132 27.4701 2.51771 26.5387 1.9525 25.5341C0.869306 23.8936 1.85856 21.3069 3.36526 19.2605C4.73132 17.3754 6.56812 15.9897 8.45216 14.6916C9.01737 14.3774 9.58259 14.1577 10.1006 13.8509C12.9739 12.4153 15.6587 11.9488 18.2492 11.7769C19.05 11.7604 19.8036 11.7965 20.6045 11.7801C21.4526 11.7567 22.2529 11.8342 22.8659 12.22C23.1015 12.3755 23.2427 12.5448 23.1015 12.9408C23.0543 13.0411 23.0543 13.1822 23.0543 13.2767C23.007 13.5192 23.007 13.7543 22.9131 14.0027C22.5358 14.8566 22.2534 15.6967 22.2067 16.5034C22.1595 16.8404 21.9238 17.3436 21.6882 17.7533C21.4993 18.1556 21.2175 18.4777 21.0285 18.8343C20.8401 19.1889 20.6045 19.4579 20.2754 19.692C19.7575 19.9998 19.3334 20.2943 18.8154 20.5071C18.5326 20.6881 18.2502 20.7274 18.0618 20.6122C17.3554 20.4281 16.6013 20.3909 15.8477 20.4015C14.3405 20.4217 12.8332 20.3957 11.1848 20.6727C10.7135 20.7842 10.1956 20.9031 9.72482 21.1106C9.15961 21.2825 8.6411 21.4964 8.12312 21.6631C4.73185 22.9819 6.70982 25.1567 8.40599 26.146C9.15748 26.5132 9.9111 26.9734 10.6175 27.4409Z" fill="black"/>
<path d="M38.0808 27.0192C38.0335 27.3551 37.5628 28.5514 37.3271 28.7727C37.186 28.839 37.1387 28.9865 37.0443 29.0476C36.8559 29.3092 36.7147 29.5162 36.5263 29.7317C36.4318 29.8394 36.2907 29.953 36.2434 30.1011C36.1017 30.403 35.9133 30.5713 35.6782 30.7448C35.5843 30.8042 35.4898 30.8653 35.4426 30.9651C35.1597 31.3344 34.7834 31.6698 34.5006 31.9914C34.2177 32.2664 33.9353 32.4468 33.6058 32.5864C33.1817 32.7398 32.8049 32.7923 32.4281 32.9855C32.098 33.1728 31.7217 33.2249 31.3444 33.3713C31.2032 33.391 31.0615 33.4106 30.9203 33.4302C30.3551 33.3209 29.7899 33.305 29.3192 32.994C29.2719 32.9526 29.1775 32.9192 29.0835 32.8847C28.6595 32.7557 28.2355 32.579 27.9526 32.2414C27.5758 32.4813 27.2462 32.7164 26.9639 32.9908C26.7749 33.1107 26.6338 33.2243 26.4459 33.3925C26.3987 33.3994 26.3514 33.452 26.3514 33.452C26.0686 33.8686 25.6923 33.9684 25.3149 34.1616C24.6558 34.4418 23.9961 34.5336 23.3842 34.2884C23.1486 34.1796 22.9134 34.1186 22.6778 34.0565C21.3117 33.6812 20.5581 32.7493 20.4164 31.3079C20.322 30.5681 20.4637 29.842 20.7932 29.1362C21.1228 28.4781 21.4529 27.8206 21.9242 27.2363C21.9242 27.1896 21.9709 27.1349 22.0181 27.0823C22.6306 26.0549 23.3842 25.055 24.0911 24.1088C24.6091 23.4719 25.1743 22.9221 25.8807 22.3998C25.9751 22.3404 26.1635 22.2661 26.3047 22.2465C26.5876 22.1605 26.8699 22.0745 27.2 22.0294C27.2467 22.0225 27.294 22.0156 27.3412 22.0098C27.6241 22.1117 28.0004 22.0586 28.3305 22.1079C28.4244 22.1414 28.5189 22.1753 28.6133 22.1621C28.849 22.1764 29.0374 22.1509 29.1313 22.325C29.178 22.3664 29.2252 22.3595 29.2252 22.3595C29.4609 22.3271 29.6493 22.5363 29.8844 22.5039C29.9789 22.4901 30.0733 22.524 30.12 22.5649C30.4029 22.808 30.7325 22.998 30.9209 23.3015C30.9681 23.4358 31.0153 23.5244 31.062 23.6587C31.1565 24.07 31.062 24.3651 30.638 24.6596C30.214 24.9069 29.8377 25.2418 29.4604 25.5772C29.4604 25.5772 29.4604 25.5772 29.4604 25.6239C28.9424 26.2141 28.3299 26.7703 27.9059 27.4416C27.717 27.7027 27.5291 27.9177 27.3407 28.1321C26.9166 28.6623 26.5871 29.2259 26.2103 29.7959C26.0686 30.0512 25.8801 30.3128 25.739 30.5214C25.6445 30.6291 25.5973 30.7299 25.5506 30.8302C25.2677 31.388 25.0793 31.9315 24.9854 32.4638C24.9381 32.5163 24.9854 32.5583 24.9854 32.6522C25.0793 32.5912 25.1265 32.5381 25.1738 32.484C25.6445 31.9474 26.163 31.4045 26.7282 30.9019C27.0106 30.627 27.2462 30.359 27.4346 30.0034C27.5285 29.8484 27.6702 29.6881 27.8114 29.5273C28.0943 29.1585 28.3766 28.7891 28.6123 28.3799C28.9418 27.8158 29.2714 27.2516 29.6015 26.6408C30.0256 26.5352 30.3546 26.5357 30.6375 26.8265C30.7319 26.9083 30.8259 26.9895 30.9203 27.0696C31.2504 27.4485 31.2972 27.9129 31.3444 28.3768C31.3444 28.4712 31.2972 28.5248 31.2505 28.6257C31.0621 29.0757 30.8264 29.5799 30.5908 30.0363C30.4496 30.385 30.4024 30.7209 30.4496 31.0447C30.5441 31.4077 30.6852 31.8126 30.8736 32.1634C30.9681 32.2924 31.1093 32.3667 31.2977 32.3402C31.6278 32.2473 31.9574 32.1549 32.2869 31.9676C32.5698 31.7871 32.8994 31.5998 33.1823 31.3721C33.5118 31.1391 33.8419 30.904 34.2182 30.6164C34.4538 30.3478 34.7362 30.1196 34.9718 29.8516C35.5843 29.1543 36.5263 27.4692 37.1387 26.7719C37.186 26.7183 37.2332 26.7114 37.2799 26.6588C37.6095 26.6604 37.8451 26.8165 38.0808 27.0192Z" fill="black"/>
<path d="M50.3755 25.0298C50.3755 25.3126 50.2338 25.3323 50.2811 25.561C50.3283 25.742 49.8103 27.1808 49.7158 27.3824C49.4335 28.1748 49.1034 28.9751 48.8211 29.7675C48.397 30.6739 47.9735 31.487 47.5495 32.3467C47.3611 32.7023 45.1475 35.8357 44.9118 36.0575C44.2994 36.5654 43.2629 37.9347 42.6977 38.39C42.3209 38.6777 40.9076 39.3925 40.578 39.4854C39.9655 39.6175 39.3059 39.7566 38.7407 39.694C37.7514 39.6892 36.2914 38.4319 35.8207 37.5557C35.585 37.164 35.3027 36.8265 35.161 36.3754C34.9726 35.789 34.8314 34.8199 34.7842 34.1199C34.7842 30.1628 35.2549 29.5318 36.3853 25.5594C36.4798 25.2166 36.527 24.9279 36.621 24.585C36.6682 24.2486 36.8094 23.8988 36.9039 23.6037C37.045 23.0656 37.1867 22.528 37.3279 22.0376C37.5635 20.9682 38.7879 19.0077 37.658 18.9292C37.3279 18.9287 37.0456 19.0147 36.7632 18.8183C36.4803 18.6697 36.198 18.5667 35.9151 18.4181C35.8212 18.3364 35.6795 18.2621 35.6323 18.0334C35.7267 17.9729 35.8212 17.9124 35.8679 17.906C36.5276 17.6735 37.1395 17.4469 37.7992 17.2145C38.2232 17.0611 38.6945 16.948 39.1652 16.836C39.3536 16.7628 39.542 16.6429 39.636 16.394C39.7771 15.9975 40.0128 15.635 40.1073 15.1983C40.578 14.2377 40.9076 13.2495 41.4261 12.3298C41.8968 11.5098 42.3681 10.7859 42.9805 10.1352C43.0745 9.98134 43.2162 9.82001 43.3101 9.71227C43.4985 9.54456 43.6875 9.42461 43.9226 9.43894C44.2049 9.49414 44.4878 9.3137 44.8173 9.26752C44.8646 9.26062 44.8646 9.26062 44.9118 9.20702C45.571 8.97456 45.8066 9.22349 45.995 9.716C46.2306 10.1544 46.3251 10.6129 46.3251 11.1781C46.3251 11.4605 46.3718 11.6892 46.4191 11.9184C46.4663 12.1005 46.4663 12.3361 46.4191 12.5781C46.3718 12.8196 46.3251 13.0622 46.2779 13.3509C46.1834 13.7409 46.0895 14.1305 45.995 14.5211C45.995 14.6628 45.995 14.7567 45.9478 14.9043C46.0895 14.978 46.2306 14.9584 46.4185 14.9329C46.9837 14.8077 47.5962 14.6755 48.1614 14.5497C48.9622 14.4388 49.8098 14.321 50.6106 14.2101C50.893 14.1708 51.1753 14.2249 51.5054 14.2265C51.411 14.3815 51.3642 14.4818 51.317 14.5359C51.2225 14.6431 51.0814 14.7562 50.9869 14.8167C50.6568 15.004 50.2805 15.2444 49.9504 15.4318C49.9504 15.4785 49.9037 15.4849 49.9037 15.4849C49.3857 15.6048 48.82 15.919 48.2553 15.9498C47.9252 15.9949 47.5956 16.0888 47.2661 16.2289C47.0771 16.3483 46.842 16.3807 46.6536 16.4545C46.2768 16.5542 45.9472 16.6471 45.5704 16.7458C45.382 16.8191 45.2876 16.9741 45.1936 17.1752C45.1469 17.2288 45.1469 17.2755 45.0997 17.3291C44.5345 19.0093 43.7803 20.6217 43.1684 22.261C43.074 22.4627 42.98 22.6638 42.9328 22.8119C42.6971 23.3156 42.5087 23.7661 42.3676 24.3032C42.2264 24.7469 41.9908 25.2038 41.7551 25.613C41.5667 25.9691 41.6134 26.3857 41.3783 26.7482C40.8603 27.9981 40.2479 31.6637 40.3424 33.4406C40.3891 34.1878 40.578 34.8682 40.8136 35.5422C40.9076 35.764 41.096 35.8802 41.2371 36.0479C41.2844 36.0421 41.3311 36.0824 41.4255 36.0697C41.8496 36.0108 42.6971 35.9397 43.1212 35.5984C43.4041 35.3702 44.8168 34.0434 45.0997 33.7685C45.8061 32.964 47.4078 30.9993 47.8785 29.9914C48.302 29.1317 48.5377 28.0628 48.9622 27.2508C49.1506 26.7535 49.6214 25.6512 49.857 25.1004C50.0927 25.1163 50.4222 24.8817 50.3755 25.0298ZM43.0745 19.0714C43.5452 17.828 43.6869 16.8663 42.1325 18.071C41.6145 19.6977 41.4261 20.8074 41.002 22.3268C39.9656 26.3804 41.4728 23.2503 42.1325 21.4156C42.462 20.4746 42.6504 19.9784 43.0745 19.0714ZM44.5345 13.4511C44.5817 13.2564 44.6289 13.0149 44.6756 12.7724C44.7229 12.3881 44.8174 11.9986 44.8646 11.6154C44.9118 11.185 44.8646 10.7679 44.8173 10.3502C44.7701 10.1682 44.6289 10.1411 44.5345 10.2483C44.3461 10.416 44.2049 10.5296 44.1104 10.7779C43.922 11.1813 43.7336 11.6308 43.6397 12.0681C43.5925 12.2162 43.498 12.3706 43.4513 12.5182C43.3568 12.7204 43.2624 12.9215 43.1684 13.1693C43.074 13.6539 42.98 14.1851 42.8388 14.7227C42.6504 15.9742 43.9693 15.8378 44.2521 14.9509C44.3461 14.4669 44.44 13.9824 44.5345 13.4511Z" fill="black"/>
<path d="M54.0028 29.6601C53.2025 30.1961 52.166 30.2927 51.6481 30.5061C51.224 30.565 50.1408 30.4795 49.8113 30.3362C48.6336 29.7933 48.5864 29.4707 48.3513 27.9486C48.2101 27.5914 48.304 26.73 48.5869 25.9377C48.8225 24.8211 51.3657 20.5589 51.7903 19.5102C52.0259 18.9593 52.261 18.4079 52.6378 17.7907C52.7795 17.442 53.0147 17.3146 53.2503 17.1405C53.5799 16.9527 53.9094 16.907 54.1451 16.6385C54.8515 16.1646 54.3335 15.9061 54.8042 15.7941C55.275 15.7283 55.6051 15.8711 55.8407 16.1688C56.0291 16.19 56.0291 16.4257 56.2175 16.587C56.3592 16.6618 56.312 16.8571 56.312 17.045C56.0291 18.2625 54.9932 20.6199 54.7108 21.7901C54.4747 22.1526 54.3807 23.4847 54.2868 23.7798C54.1928 24.2643 54.0984 24.7016 53.8627 25.2047C53.7683 25.5948 53.5332 26.3341 53.7683 26.4901C53.9572 26.6992 54.0511 27.4874 54.3335 27.3536C55.4639 26.5846 56.9711 26.3277 57.5836 25.4892C57.9609 24.9187 58.196 25.1209 58.5728 24.5976C58.9024 24.2219 58.9969 23.9268 59.138 23.6715C59.4209 23.0203 59.4682 23.2013 59.7033 22.651C59.9856 21.9998 60.4096 21.3751 60.7864 20.8046C60.9281 20.3615 61.1166 20.052 61.3989 19.636C61.8702 19.43 61.8229 19.4826 62.0108 19.5038C62.7172 19.3589 62.1053 19.49 62.5288 19.6667C62.6227 19.8424 62.5288 20.0441 62.67 20.1189C62.3404 21.0594 62.2931 22.0083 61.8696 23.1037C61.7279 23.4534 61.8224 23.1095 61.5395 23.5733C61.5868 23.8498 61.3984 24.2994 61.21 24.7027C61.0216 25.1533 61.0688 25.6643 60.7859 26.081C60.4091 27.7347 60.2207 28.6088 60.2207 28.7966C60.0795 29.4292 61.7279 29.624 63.3769 28.8768C64.4606 28.2553 66.3919 26.1505 67.2866 24.5653C67.6162 23.9555 67.8991 23.351 68.4171 22.5241C68.8883 21.6113 69.2652 22.9715 69.0762 23.3282C68.9351 23.5834 68.8406 23.7851 68.7939 23.9326C68.4171 24.267 67.993 25.8331 67.6629 26.1622C67.569 26.2688 67.6162 26.4047 67.3806 26.5305C66.7681 27.4168 65.5432 28.906 64.6012 29.7896C64.1772 29.943 64.13 30.0911 63.7064 30.3384C63.3769 30.7136 63.2829 30.7741 62.8584 31.0681C62.5288 31.2544 62.4816 31.309 62.3404 31.4698C61.9636 31.4274 61.8691 31.5824 61.7279 31.6965C60.8332 32.3386 57.0178 33.0567 56.735 31.4948C56.4993 30.0667 56.2637 29.2987 56.6877 27.6381C56.6877 27.4969 56.6877 27.4969 56.6877 27.4502C56.0286 28.2017 54.8037 29.0312 54.0028 29.6601Z" fill="black"/>
<path d="M73.2692 23.4997C73.4576 22.7668 75.1061 19.1935 75.4362 18.5826C75.719 18.1193 76.0014 17.6554 76.2365 17.1523C76.5193 16.7362 76.8017 16.273 76.9901 15.8701C77.1785 15.5146 77.4608 15.2874 77.7437 15.2004C78.0733 15.1542 78.3562 15.0682 78.6385 15.0289C79.2037 14.9504 79.5338 15.3277 79.8161 15.9014C79.8161 15.9481 79.8161 15.9959 79.8161 16.0893C79.9106 16.6895 80.0518 17.3285 80.1463 17.9755C80.2407 18.5741 80.1935 19.2407 80.1935 19.8526C80.1935 20.2767 80.2407 20.6943 80.1935 21.1248C80.4291 21.2336 80.3819 21.4283 80.4291 21.3752C80.5236 21.2675 80.8532 21.363 80.9471 21.2553C80.9943 21.155 81.0883 21.095 81.1355 20.9942C81.3239 20.8265 81.5123 20.6593 81.7007 20.3976C81.8419 20.1424 81.9831 20.1228 82.172 20.3319C82.172 20.473 82.1248 20.6211 81.9831 20.7347C81.9364 20.7883 81.8891 20.8886 81.8419 20.9899C81.7947 21.1369 81.7007 21.2919 81.559 21.3593C81.5118 21.4118 81.4651 21.4665 81.4178 21.5201C81.3706 21.5737 81.2761 21.6342 81.2761 21.6809C81.2294 21.7351 81.1822 21.7414 81.135 21.795C80.9466 22.0105 80.8054 22.0758 80.617 22.1023C80.5698 22.1092 80.3814 22.1825 80.1935 22.3496C80.0518 22.4637 79.9106 22.4834 79.8161 22.4016C79.4866 22.2589 79.157 22.2583 78.8274 22.1623C78.2622 22.0986 77.8382 21.6401 77.6025 21.0133C77.3197 20.204 77.3197 19.2619 77.4608 18.348C77.5553 17.9102 77.5553 17.5334 77.6025 17.1507C77.6498 16.861 77.6965 16.5717 77.7437 16.2836C77.8382 16.0814 77.8382 15.9402 77.7909 15.7582C77.7437 15.7651 77.6498 15.7311 77.6498 15.8245C77.6025 15.8786 77.5081 15.9858 77.4608 16.0867C77.2724 16.49 77.0368 16.8997 76.8017 17.3561C76.6605 17.6114 76.566 17.9065 76.5188 18.2429C76.566 18.425 76.4249 18.5858 76.3776 18.7339C75.9536 19.5936 75.5768 20.3992 75.2939 21.3333C75.0583 22.0253 74.7287 22.6368 74.4464 23.3352C74.0223 24.3839 73.5043 25.3503 73.1742 26.4329C73.0803 26.7747 72.8914 27.1786 72.7502 27.5751C72.6557 27.8701 71.4786 30.2955 71.1957 30.5704C71.1957 30.6649 71.054 30.7312 70.9601 30.8384C70.3949 31.7178 69.7357 31.7619 68.9821 31.6786C68.8877 31.7858 68.7937 31.7051 68.6993 31.6234C67.9456 31.5395 67.5688 30.8851 67.3804 29.9696C67.2393 29.1884 67.2393 28.3409 67.2393 27.54C67.2865 26.3082 67.3337 25.077 67.4277 23.8388C67.6633 22.4409 67.4749 22.5603 67.8517 21.2362C68.1818 19.3537 67.9934 19.6626 68.6525 17.7335C68.6998 17.397 68.8882 17.1348 68.9827 16.7925C69.3122 15.8988 69.5951 15.1059 69.9719 14.3003C70.1603 13.6618 70.3487 13.5414 70.8195 13.5706C71.1496 13.5244 71.5731 13.561 71.9971 13.5955C72.28 13.604 72.5623 13.6586 72.9391 13.9357C73.2692 14.5025 73.74 14.8602 74.2113 15.3601C74.6353 16.0554 74.7292 16.6078 74.4469 17.5414C74.2113 18.5168 74.1168 17.8232 73.8817 18.8448C73.2692 20.9087 72.1393 22.6198 71.6208 24.4821C70.9145 26.8411 73.0814 24.326 73.2692 23.4997Z" fill="black"/>
<path d="M100.309 29.0253C100.403 28.9186 100.544 28.805 100.638 28.6506C101.204 27.8179 100.497 28.6225 101.016 27.7495C101.204 27.3472 101.393 26.9905 101.628 26.6286C102.099 25.8564 102.052 25.2508 102.9 23.4846C104.031 21.7725 104.784 20.0191 105.726 18.2868C106.292 17.2195 106.103 16.5391 106.999 17.0736C107.563 17.4191 106.81 17.2885 106.81 18.1366C107.14 18.0904 106.245 19.0638 106.339 18.9555C106.621 19.293 106.433 19.6019 106.244 19.8636C105.82 20.2053 106.339 21.2163 105.585 21.0858C104.973 22.1132 104.36 22.4333 103.937 23.4347C103.748 24.2144 103.324 23.6136 103.937 24.1411L103.513 24.718C102.665 25.9662 102.759 26.048 102.618 26.774C102.524 26.8334 102.477 26.8881 102.477 26.9348C102.241 27.2973 102.053 27.6056 101.817 27.9214C101.676 28.0822 101.581 28.2844 101.535 28.4786C101.393 28.9223 101.205 29.3257 100.97 29.7348C100.781 30.0443 100.593 30.3526 100.404 30.6142C100.122 30.9836 99.8392 31.3525 99.4624 31.6401C99.2267 31.9554 98.8032 32.2499 98.4731 32.5307C97.9079 32.8921 97.4844 33.2811 96.9192 33.5953C96.8719 33.6489 96.8247 33.797 96.7308 33.9042C96.3067 33.9631 95.9299 33.9684 95.4586 33.8452C94.5166 33.599 94.4694 33.7948 93.6691 32.9627C92.9622 32.5429 92.4909 31.9023 92.0674 31.2543C91.8317 30.7682 91.5022 30.2958 91.4082 29.6972C91.361 29.6085 91.361 29.5151 91.267 29.4812C91.0781 29.2705 91.0781 29.1304 91.0781 28.848C91.1254 28.5116 90.9369 28.1613 90.8897 27.7898C90.7958 27.379 90.7013 26.9688 90.6541 26.5033C90.6068 26.2746 90.5601 25.9992 90.6068 25.7566C90.5601 25.6691 90.4657 25.6345 90.4657 25.5406C90.3712 25.6467 90.2773 25.755 90.1828 25.8622C89.9472 26.1769 89.806 26.5262 89.7115 26.9173C89.5231 27.7909 89.0524 28.4219 88.2515 28.7679C88.0159 28.8953 87.8275 28.968 87.6391 29.1829C87.3562 29.5045 86.8382 29.6706 86.4142 29.6351C85.849 29.5725 85.1893 29.4748 84.6241 29.2238C83.7765 28.9181 83.2108 28.337 82.8345 27.542C82.5516 27.0627 82.4105 26.5166 82.4577 25.9445C82.4577 25.7566 82.411 25.6223 82.3638 25.4398C82.3638 25.2508 82.3165 25.0699 82.3638 24.9218C82.3638 24.3088 82.3638 23.6497 82.5049 23.0648C82.7878 21.8946 83.0229 20.7318 83.5887 19.6645C84.2006 18.5426 84.8603 17.3676 85.7556 16.3486C86.6504 15.2352 87.828 14.3648 89.1468 13.7582C89.3825 13.5836 89.7121 13.5385 89.9949 13.4525C90.1361 13.4329 90.2306 13.4663 90.3717 13.4939C90.6546 13.548 90.9369 13.651 91.1726 13.712C92.8682 15.785 92.5386 12.1098 93.245 10.6928C93.3395 10.4911 93.3867 10.2491 93.4807 10.048C93.6224 9.74547 93.7163 9.40155 93.8108 9.05924C93.9992 8.60919 94.1876 8.15969 94.3287 7.71548C94.4699 7.4602 94.5171 7.21821 94.6116 6.92313C94.9884 6.21038 95.3647 5.45199 95.6948 4.69943C96.0249 4.13634 96.3539 3.57165 96.7785 3.08869C97.2026 2.70074 97.6261 2.2645 98.0029 1.83568C98.1446 1.67487 98.3802 1.50134 98.5681 1.33363C98.9921 1.03855 99.3689 0.750905 99.7458 0.416023C100.311 -0.0865638 100.971 -0.0839036 101.583 0.160756C102.007 0.337484 102.289 0.675536 102.76 0.893129C102.855 0.97486 102.902 1.10913 102.949 1.2434C102.996 1.75501 103.09 2.26026 102.996 2.79098C102.949 3.12745 102.901 3.46444 102.854 3.84761C102.854 4.22495 102.854 4.64795 102.619 5.05766C102.571 5.15796 102.619 5.24605 102.571 5.34689C102.524 5.63613 102.43 5.93281 102.288 6.18809C102.053 6.55056 101.865 6.95336 101.676 7.40341C101.535 7.79986 101.393 8.19576 101.205 8.59911C101.111 8.89472 101.017 9.14363 100.97 9.43233C100.828 9.87601 100.639 10.3266 100.404 10.6885C100.028 11.1179 99.7919 11.5748 99.6508 12.0652C99.5096 12.4622 99.2267 12.7838 98.9444 13.012C98.7087 13.28 98.4731 13.548 98.3319 13.85C98.1435 14.5362 97.6728 15.1662 97.2487 15.7431C96.8714 16.2669 97.107 16.3757 96.8714 16.8799C96.683 17.0476 96.6358 17.2413 96.5885 17.4371C96.4946 17.8267 96.4001 18.2645 96.3529 18.6472C96.3057 19.0303 96.2117 19.3732 96.07 19.8174C96.1173 20.0928 96.0233 20.3895 96.0233 20.7196C96.07 20.8061 96.0233 20.9552 95.9289 21.0614C95.9289 21.297 95.8816 21.5401 95.9289 21.7688C96.0233 22.0851 95.9761 22.4211 95.9289 22.7108C95.9289 23.1343 95.9289 23.5117 95.9289 23.9352C95.9289 24.0297 95.9288 24.0764 95.9761 24.1172C96.1173 24.3805 96.0233 24.6766 96.07 24.9521C96.1173 25.6048 96.3057 26.1913 96.4941 26.7772C96.6825 26.8929 96.7297 27.0277 96.7769 27.2086C96.8709 27.3376 96.9653 27.5128 96.9181 27.6131C96.8709 27.9028 97.0126 28.0711 97.1537 28.1926C97.4838 28.8061 97.9546 29.1654 98.4726 29.564C98.3314 29.6303 98.1902 29.6032 98.0958 29.7571C98.0485 29.6696 98.0958 29.5215 97.9546 29.4477C97.9546 29.401 97.9074 29.3591 97.7657 29.4732C97.9546 29.5878 98.0013 29.6292 98.0958 29.7571C98.3314 29.8659 98.5193 30.0289 98.8021 30.0363C98.8021 29.9896 98.8494 29.8415 98.8966 29.7874L98.8494 29.7943C99.7903 29.5215 99.8376 29.2795 100.309 29.0253ZM88.0621 22.9534C87.9676 23.1083 87.9209 23.2559 87.8264 23.4098C87.5908 23.8673 87.4024 24.3163 87.1673 24.8199C86.9789 25.6945 86.8844 26.6026 87.3557 27.4326C87.3557 27.5271 87.4501 27.561 87.4969 27.6019C87.8737 27.4087 88.1093 27.0924 88.3449 26.8244C88.7217 26.3011 89.1925 25.7646 89.6165 25.2349C89.8994 24.9128 90.135 24.5508 90.3229 24.147C90.3229 24.0535 90.3701 23.9522 90.3701 23.8577C90.4174 23.5218 90.4174 23.2394 90.4646 22.903C90.4174 22.5798 90.4174 22.2502 90.4646 21.9132C91.2655 19.1646 90.6058 18.2199 89.1458 20.8724C88.6273 21.5093 88.4389 22.1944 88.0621 22.9534ZM93.4313 31.9113C93.3846 31.8715 93.4313 31.7702 93.4313 31.7229C93.3846 31.6831 93.3374 31.6428 93.2901 31.6014L93.1957 31.6624C93.1957 31.7091 93.2429 31.7495 93.3374 31.784C93.3374 31.8307 93.3846 31.8715 93.3846 31.8715C93.4785 31.9999 93.4785 32.0944 93.573 32.2218C94.091 32.7621 94.6095 33.1617 95.4098 33.2853C95.457 33.3267 95.5982 33.3071 95.7866 33.2806C95.6449 33.1585 95.5982 33.0714 95.4565 32.9966C94.8913 32.6511 94.2789 32.2648 93.7136 31.9187C93.6197 31.8853 95.7394 31.4501 95.6921 31.5504L93.4313 31.9113ZM95.0335 32.4908C95.0335 32.4908 95.0335 32.4909 95.0808 32.5307C95.0335 32.4909 95.0808 32.4839 95.0808 32.4839C95.0808 32.4839 95.0808 32.484 95.0808 32.4373C95.0802 32.4367 95.0335 32.4436 95.0335 32.4908ZM95.5515 28.2727L95.457 28.2865C95.5982 28.3147 95.5982 28.3146 95.5982 28.3613C95.5982 28.3146 95.5982 28.3147 95.5982 28.3147C95.5515 28.2727 95.5515 28.2727 95.5515 28.2727ZM95.6927 28.6294V28.5827L95.6454 28.6363L95.6927 28.6294ZM95.8811 28.8873L95.8339 28.9398C95.8811 28.9812 95.8811 28.9812 95.8811 29.0285C95.8811 29.0285 95.9283 29.0216 95.9756 29.0147C95.9756 28.968 95.8811 28.934 95.8811 28.8873ZM96.6819 27.6444C96.7292 27.6385 96.7292 27.6385 96.7764 27.6316C96.7292 27.5918 96.7292 27.5441 96.6819 27.5042C96.5875 27.1874 96.4935 26.9645 96.3518 26.654C96.2107 26.3913 96.2107 26.1085 95.8811 25.8718C96.0228 26.4646 96.3051 26.9438 96.5875 27.3753C96.5875 27.422 96.5875 27.517 96.6819 27.5042C96.7292 27.5446 96.7292 27.5918 96.6819 27.6444ZM97.5767 29.7348C97.5295 29.6467 97.3411 29.5316 97.1999 29.41C97.0582 29.0529 96.8231 28.7557 96.4935 28.4717C96.4463 28.4319 96.4463 28.3375 96.2579 28.4579C96.6347 28.8761 96.917 29.3082 97.2938 29.6791C97.2938 29.8208 97.4355 29.8484 97.5767 29.9227C97.5767 29.8288 97.5767 29.7821 97.5767 29.7348ZM99.084 11.2957C99.4608 10.7252 99.8848 10.1477 100.214 9.49019C100.544 8.64317 100.921 7.83702 101.345 6.97833C101.439 6.72836 101.486 6.53465 101.486 6.25125C101.486 6.06338 101.486 5.82772 101.58 5.62605C102.052 4.47705 102.098 3.24527 102.146 2.01507C102.146 1.73114 102.098 1.45569 102.051 1.17972C101.863 0.781684 101.674 0.760994 101.345 0.99557C101.251 1.10277 101.109 1.16911 101.062 1.31718C100.921 1.76085 100.592 2.13606 100.356 2.49907C100.309 2.64608 100.214 2.80105 100.214 2.94222C100.262 3.26542 100.12 3.56796 99.9315 3.87683C99.7903 4.27328 99.5547 4.58849 99.3196 4.8565C99.084 5.03058 98.9895 5.18502 98.9895 5.42013C99.0367 5.69663 98.9895 5.93865 98.8956 6.23373C98.7538 6.58347 98.6127 6.93267 98.5654 7.26915C98.2826 8.43831 97.7179 9.41218 97.5762 10.5622C97.2466 12.1623 96.1634 15.3753 98.1414 13.0274C98.4715 12.4165 98.7072 11.8657 99.084 11.2957Z" fill="black"/>
<path d="M123.297 15.1882C123.25 15.5241 122.779 16.7199 122.543 16.9417C122.402 17.008 122.355 17.155 122.26 17.2166C122.072 17.4777 121.931 17.6852 121.742 17.9007C121.648 18.0079 121.507 18.122 121.459 18.2696C121.318 18.5715 121.13 18.7392 120.894 18.9133C120.8 18.9727 120.706 19.0332 120.659 19.1336C120.376 19.5024 119.999 19.8378 119.717 20.1594C119.434 20.4343 119.151 20.6148 118.821 20.7549C118.398 20.9083 118.021 20.9603 117.644 21.154C117.314 21.3403 116.937 21.3933 116.56 21.5398C116.419 21.5595 116.278 21.5791 116.136 21.5987C115.571 21.4894 115.006 21.4735 114.535 21.1619C114.488 21.1211 114.394 21.0871 114.3 21.0532C113.876 20.9242 113.452 20.7474 113.169 20.4099C112.792 20.6498 112.463 20.8844 112.18 21.1593C111.992 21.2792 111.85 21.3923 111.662 21.561C111.615 21.5679 111.568 21.6205 111.568 21.6205C111.285 22.0366 110.908 22.1369 110.532 22.3301C109.872 22.6103 109.213 22.7015 108.6 22.4569C108.365 22.3475 108.129 22.2871 107.894 22.225C106.528 21.8492 105.774 20.9178 105.633 19.4764C105.539 18.736 105.68 18.01 106.01 17.3047C106.339 16.6466 106.669 15.988 107.14 15.4047C107.14 15.358 107.187 15.3039 107.235 15.2503C107.847 14.2239 108.601 13.2235 109.307 12.2778C109.825 11.6409 110.391 11.0911 111.097 10.5689C111.191 10.5094 111.38 10.4351 111.521 10.4155C111.804 10.3295 112.086 10.2435 112.416 10.1974C112.463 10.1915 112.511 10.1846 112.557 10.1777C112.84 10.2796 113.217 10.2276 113.547 10.2759C113.641 10.3099 113.735 10.3438 113.829 10.33C114.065 10.3449 114.253 10.3189 114.347 10.494C114.395 10.5349 114.442 10.5285 114.442 10.5285C114.677 10.4951 114.866 10.7052 115.101 10.6718C115.195 10.6591 115.289 10.693 115.337 10.7339C115.619 10.977 115.949 11.167 116.137 11.4705C116.184 11.6048 116.231 11.6924 116.279 11.8277C116.373 12.239 116.279 12.5341 115.855 12.8287C115.431 13.0765 115.054 13.4108 114.677 13.7457C114.677 13.7457 114.677 13.7457 114.677 13.7924C114.159 14.3836 113.546 14.9388 113.122 15.6101C112.934 15.8723 112.746 16.0872 112.557 16.3006C112.133 16.8308 111.804 17.3949 111.427 17.9649C111.286 18.2202 111.097 18.4818 110.956 18.6904C110.862 18.7976 110.814 18.899 110.767 18.9993C110.484 19.5565 110.296 20.1005 110.202 20.6328C110.155 20.6859 110.202 20.7262 110.202 20.8217C110.296 20.7607 110.344 20.7071 110.391 20.6535C110.862 20.117 111.38 19.574 111.945 19.0715C112.228 18.7965 112.463 18.5285 112.651 18.173C112.746 18.018 112.887 17.8577 113.028 17.6964C113.311 17.3275 113.593 16.9581 113.829 16.5484C114.159 15.9853 114.488 15.4207 114.818 14.8098C115.242 14.7042 115.572 14.7047 115.855 14.9956C115.949 15.0773 116.043 15.158 116.137 15.2386C116.467 15.617 116.514 16.0809 116.561 16.5458C116.561 16.6402 116.514 16.6938 116.467 16.7942C116.278 17.2447 116.043 17.7484 115.807 18.2048C115.666 18.5535 115.619 18.8905 115.666 19.2131C115.76 19.5772 115.901 19.9816 116.09 20.3319C116.184 20.4609 116.325 20.5352 116.514 20.5086C116.843 20.4163 117.173 20.3234 117.503 20.1366C117.786 19.9562 118.115 19.7688 118.398 19.5411C118.727 19.3071 119.057 19.0731 119.434 18.7849C119.67 18.5169 119.952 18.2887 120.188 18.0212C120.8 17.3238 121.742 15.6388 122.354 14.9409C122.402 14.8878 122.449 14.8814 122.496 14.8278C122.825 14.8294 123.061 14.9849 123.297 15.1882Z" fill="black"/>
<path d="M142.329 12.9704C142.659 12.5007 142.941 12.0374 143.271 11.4727C143.366 11.3188 143.459 11.1649 143.554 10.9627C143.554 10.9627 143.554 10.9627 143.601 10.9096C143.601 10.9563 143.601 11.0041 143.601 11.0986C143.459 11.7301 144.26 11.4775 143.837 12.1955C143.648 12.4577 142.989 13.3498 142.895 13.6465C142.848 13.9825 142.094 14.6995 141.858 15.0142C141.67 15.2758 141.528 15.5788 141.387 15.9281C141.104 16.3441 140.869 16.7061 140.539 17.1291C140.257 17.4507 140.068 17.8068 139.88 18.1157C139.739 18.4654 139.503 18.8268 139.221 19.149C138.562 20.0422 138.514 20.1892 137.807 21.0882C137.477 21.464 136.818 22.9208 136.441 23.2567C136.252 23.4711 136.017 23.7397 135.876 24.0416C135.547 24.4169 132.014 26.4617 131.731 26.6894C131.59 26.8502 131.543 26.9515 131.448 27.011C131.024 27.3055 130.742 27.7222 130.648 28.2056C130.271 29.1997 129.753 30.1677 129.235 31.1336C128.858 31.7041 128.575 32.2614 128.293 32.8191C128.057 33.4645 127.728 33.9342 127.256 34.423C126.879 34.9462 126.314 35.3543 125.937 35.9726C125.089 36.8446 124.336 37.4666 123.346 38.0748C122.64 38.5493 121.462 38.6666 120.709 38.7706C117.977 39.7625 114.303 37.9644 113.737 35.4053C113.691 34.9871 114.067 34.3232 114.538 34.1629C115.057 33.9501 115.622 33.7771 116.093 33.6173C117.788 33.1933 119.531 32.4338 121.274 31.4372C122.452 30.8507 123.394 30.3895 124.665 29.6004C125.042 29.3594 125.607 28.7623 125.843 28.3064C126.173 27.5539 127.162 25.2495 127.539 24.5373C130.977 17.5595 129.799 20.5495 125.748 22.4304C125.183 22.4145 123.629 21.6885 123.299 21.2167C122.97 20.6965 120.708 17.948 120.944 17.2092C121.18 16.3293 121.274 16.7395 121.227 15.5215C121.368 14.1358 121.792 13.4645 122.075 11.8235C122.169 11.3867 122.687 10.3253 122.687 9.75956C123.064 9.00117 123.44 7.30023 123.912 6.66921C124.195 6.06473 124.43 5.60777 124.806 5.03726C124.948 4.82868 125.042 4.67477 125.324 4.40039C125.466 4.47522 125.655 4.5904 125.796 4.66523C126.031 5.05531 127.021 5.4836 127.539 5.74153C127.68 5.86306 127.821 5.98511 127.963 6.15388C128.057 6.28285 128.104 6.41713 128.151 6.45746C128.81 6.83692 129.046 7.51092 129.14 8.20509C129.281 8.75014 129.188 9.18796 128.999 9.73142C128.763 10.0944 128.622 10.5854 128.293 11.1012C128.057 11.6999 127.68 12.4115 127.351 13.0696C127.115 13.7145 126.597 14.3513 126.22 15.0641C126.031 15.3252 125.89 15.6749 125.607 16.0905C120.002 25.3955 132.201 13.3849 133.285 11.539C133.992 10.3577 133.521 10.9887 134.133 9.77281C134.557 9.28986 134.886 8.72573 135.263 8.15521C135.405 7.85323 135.499 7.60486 135.734 7.43079C135.971 7.11501 136.065 7.10227 136.3 7.16436C136.676 7.30022 137.242 8.44604 137.006 9.13915C137.006 9.32703 136.912 9.57539 136.723 9.74363C136.629 9.94424 136.111 10.9584 136.064 11.2015C136.064 11.6723 135.828 12.0342 135.687 12.4312C135.498 12.834 134.51 15.0911 134.227 16.3081C134.038 17.0877 132.437 21.5027 132.343 22.1751C132.295 24.5373 138.419 17.7988 139.785 16.2428C140.728 15.1235 141.528 14.0706 142.329 12.9704ZM122.546 35.0768C124.383 32.9842 125.702 31.2477 120.944 33.6975C119.861 34.1305 118.778 34.4696 117.694 34.8088C117.318 34.9086 117.035 34.9945 116.705 35.1352C114.774 37.2872 120.191 38.796 122.546 35.0768Z" fill="black"/>
</svg>
