<svg width="118" height="44" viewBox="0 0 118 44" fill="none" xmlns="http://www.w3.org/2000/svg">
<path d="M14.2817 8.37204C14.5281 8.07629 14.7742 7.73213 15.0206 7.3871C15.7103 6.35329 16.6459 5.8111 17.6304 5.51621C17.9262 5.41763 18.3693 5.56508 18.6158 5.71338C19.059 5.91011 19.4529 6.05755 20.0439 5.91011C20.6346 5.81153 21.0284 5.9101 21.1767 6.25428C21.1767 6.45144 21.0782 6.79604 21.1274 6.89419C21.1767 7.23922 21.1768 7.53496 20.881 7.97815C20.7824 8.02701 20.8317 8.12559 20.8317 8.2246C20.7824 9.35655 21.0782 8.37204 20.5853 9.50485C20.3393 10.0462 20.2895 10.5387 20.0928 10.9818C17.7294 16.9408 20.1914 13.986 22.1613 11.3762C22.358 10.8344 22.703 10.3912 23.1466 9.94803C23.8363 8.96309 24.6729 8.07673 25.3626 7.04249C26.4954 5.56465 27.8249 4.2351 29.3019 3.20129C29.8437 2.85626 30.3366 2.31492 30.829 2.41308C31.3215 2.46237 31.8135 2.65953 32.1586 2.95484C32.5027 3.25058 32.7985 3.59476 32.9956 3.98865C33.0942 4.03794 33.1431 4.08723 33.1924 4.08723C33.882 4.23467 33.882 4.9243 33.882 5.56422C33.8327 5.71251 33.7346 5.85996 33.7346 5.95854C33.0947 7.38623 32.4539 8.71578 32.2567 10.0453C32.1586 10.735 32.06 11.4735 32.0103 12.1138C31.9121 12.7537 31.8628 13.4926 31.7154 14.2316C31.6168 14.8715 31.6168 15.5118 31.0755 16.1517C31.0755 16.201 31.0262 16.2503 31.0755 16.3485C31.4201 16.6442 30.9272 16.9892 30.7797 17.3334C30.7305 17.4809 30.6323 17.6784 30.7305 17.8259C30.8779 18.3672 30.829 18.8597 30.3858 19.5C30.3858 19.5493 30.3366 19.6483 30.3366 19.7958C30.1891 20.239 30.0901 20.6328 29.9915 21.0272C30.0408 21.0272 30.0408 20.9779 30.238 20.8789C30.0905 21.5685 29.2535 22.1596 29.4999 22.7999C29.8445 22.7999 29.7948 23.1441 29.6967 23.5877C29.4502 24.5726 29.3516 25.5087 28.9084 26.5425C28.9577 26.5918 28.9084 26.6411 28.9577 26.69C29.2042 27.1824 28.6131 27.8721 28.7606 28.512C28.8099 28.9063 28.5145 29.3983 28.7606 29.8908C28.7606 30.1373 28.5638 30.5307 28.2188 30.8758C28.1207 31.0725 27.8742 31.2199 27.6775 31.4171C27.3817 32.1067 27.3324 32.156 26.6925 32.2053C26.5451 32.2053 26.3968 32.2546 26.1019 32.3039C25.7569 32.3527 25.5104 32.3527 25.363 32.1063C25.3137 32.0081 25.1662 31.9589 24.9691 31.9091C24.3287 31.7617 24.1316 31.1711 24.4269 30.5303C24.9194 28.7576 25.1165 27.1816 25.3626 25.5079C25.51 25.1135 25.609 24.6215 25.7071 24.2272C25.9047 23.6365 26.0522 22.9469 26.3479 22.2577C26.3479 22.4544 26.2493 22.7009 26.2493 22.9473C26.3968 22.8492 26.3968 22.8492 26.4461 22.8492C26.5446 22.5042 26.6925 22.1596 26.7418 21.7652C26.8892 20.8789 27.3324 19.9432 27.2343 19.1061C27.185 19.0569 27.185 18.9587 27.2343 18.9094C27.7263 18.4169 27.2832 17.9245 27.6775 17.4324C27.8249 17.2841 27.7756 17.0874 27.8249 16.9892C27.7263 16.4475 27.9239 15.9053 28.2681 15.3639C28.2681 15.2654 28.2681 15.1668 28.2681 15.1175C28.2681 15.1175 28.2681 15.1175 28.2188 15.0682C27.8742 15.8071 27.5789 16.5461 27.2831 17.2841C27.2343 17.2841 27.185 17.2841 27.1357 17.2841C27.8746 12.9509 28.0714 12.4091 24.7231 17.0874C24.6738 17.0381 24.6245 16.9892 24.6245 16.9399C24.5263 16.9399 24.477 16.9892 24.477 16.9892C24.477 17.1367 24.3785 17.2841 24.3296 17.4324C24.0836 18.0723 23.8371 18.3188 23.1968 18.7127C23.0485 18.762 22.9503 18.9098 22.9503 19.0084C22.7039 19.2052 22.6053 19.4023 22.5071 19.599C21.9654 21.1253 18.7641 25.6562 17.8285 27.1824C17.4346 27.8721 16.8439 28.2655 16.1543 28.9063C16.1543 28.6106 16.105 28.4138 16.2525 28.2167C16.2036 28.2167 16.1543 28.2167 16.1543 28.2167C15.9576 28.5613 15.7111 28.8566 15.4647 29.2012C15.4647 29.1523 15.4154 29.1523 15.3661 29.103C15.0712 29.7927 14.5783 29.9894 14.0365 30.1368C13.052 30.4819 12.2638 30.5307 11.4765 30.2851C10.984 30.1368 10.3436 30.0875 9.94932 29.7434C9.60472 29.4969 9.55542 29.5466 9.90046 28.9552C10.3925 28.1674 10.8357 27.3792 11.3774 26.69C11.9192 25.9022 12.2638 25.2623 12.1656 24.5726C13.2487 19.1061 16.3017 12.1627 12.2638 18.4662C11.7713 19.2544 11.2793 20.1408 10.5896 20.8789C9.01365 24.2769 5.12316 29.3002 4.53211 32.9442C4.48325 33.2391 4.38466 33.6339 4.1875 34.0273C3.89176 34.4705 3.64533 34.5198 3.39974 34.3231C3.25144 34.2738 3.20214 34.2738 3.15328 34.2245C2.90683 33.6339 2.41437 33.5349 1.77445 33.4367C1.38013 33.3874 1.13452 33.141 0.838777 32.9931C0.789487 32.9442 0.838773 32.6982 0.888063 32.5992C1.82372 30.9251 2.21763 29.3495 2.61153 27.7242C2.75897 27.1336 2.75895 26.4928 3.0054 25.8525C3.15369 25.1135 4.38423 22.208 4.58139 21.4699C4.77813 20.6817 4.97572 19.8939 5.17288 19.1057C5.56677 17.5794 5.91096 16.0527 6.35414 14.5264C6.40343 14.2307 6.55173 13.8857 6.55173 13.5415C6.60059 12.4087 6.99491 11.2763 7.4381 10.0942C7.58554 9.74959 7.63526 9.35527 7.83199 8.96137C7.93014 8.61677 8.07844 8.22331 8.22588 7.87828C8.37333 7.53368 8.57091 7.38581 8.8165 7.48439C9.06296 7.73084 9.40798 7.92757 9.654 8.17402C9.80144 8.37075 9.75215 8.66649 9.80144 8.96181C9.654 9.94675 9.40754 10.9313 9.1118 11.9166C7.97899 17.3831 12.2141 11.1289 12.8056 10.2425C13.2479 9.603 13.8385 9.01195 14.2817 8.37204ZM11.5733 28.0212C11.6226 27.9226 11.6719 27.8236 11.8198 27.578C11.8198 27.5287 11.8198 27.4795 11.8198 27.3316C11.7216 27.5283 11.5733 27.6269 11.524 27.6762C11.524 27.8236 11.524 27.9222 11.4752 28.0212C11.524 28.0212 11.524 28.0212 11.5733 28.0212ZM18.3201 18.4178C18.5665 18.0732 18.8125 17.63 19.059 17.1868C19.3547 16.4972 19.7486 15.808 20.4875 15.2165C20.635 15.0193 20.7824 14.7245 20.7824 14.4784C20.0439 15.1184 18.4684 17.5314 17.9759 18.7628C18.1229 18.6642 18.2219 18.5661 18.3201 18.4178ZM23.1462 11.7701C23.1462 11.6218 23.2444 11.4743 23.3429 11.3762C24.0819 10.6372 24.3279 9.75087 24.9189 8.91337C24.3283 9.40584 22.703 11.7208 22.4073 12.41C22.8012 12.2625 23.0472 12.0165 23.1462 11.7701Z" fill="black"/>
<path d="M33.5869 19.5014C33.0447 18.6151 32.7991 17.532 32.6512 16.3992C32.5038 15.5621 32.7498 14.7739 33.193 13.9865C33.2422 13.8879 33.3404 13.7898 33.5376 13.7401C33.9319 13.3955 34.4239 13.1002 35.0154 12.7551C35.4586 12.4602 36.0492 12.4105 36.5914 12.5087C36.9853 12.5087 38.0684 13.4936 38.3148 13.6908C38.6106 13.9372 38.9055 14.2326 39.2505 14.4297C39.6937 14.8236 39.9894 15.2668 40.2355 15.9067C40.3829 16.301 40.481 16.6456 40.6786 16.9906C40.8261 17.4338 40.8754 17.9259 40.9735 18.4184C41.0228 18.8615 41.0228 19.2066 41.1218 19.6005C41.1707 19.6497 41.1707 19.6497 41.1707 19.7479C41.0232 18.9601 41.22 20.0929 41.1707 20.2404C41.1218 20.8319 41.2693 21.3732 41.1218 21.9149C40.9735 22.2098 41.2693 22.5549 41.6632 22.5549C44.0767 22.4074 45.0119 22.7516 47.3757 22.3577C47.6221 22.2591 47.8681 22.1117 48.1634 21.9634C48.262 21.9145 48.4099 21.8159 48.5085 21.7667C48.6066 21.915 48.5578 22.1117 48.5085 22.2098C48.3602 22.4563 48.8531 22.5549 48.6559 22.7516C47.1789 24.3276 42.6481 24.2779 40.8754 24.2779C40.8261 24.2779 40.7768 24.2779 40.7271 24.2779C40.5796 24.2779 40.4322 24.3272 40.4322 24.4262C40.4322 24.5243 40.3829 24.5736 40.3336 24.6718C40.1862 25.5093 39.743 26.2971 39.3979 27.1346C39.1515 27.7252 38.8073 28.1684 38.4623 28.6115C38.2651 28.9073 38.0684 29.2515 37.7735 29.4486C37.6749 29.4979 37.5759 29.5969 37.4285 29.6951C37.3299 29.7444 37.182 29.8425 37.1327 29.9908C36.7389 30.434 36.2957 30.7786 35.7539 30.9265C35.6558 30.9265 35.4093 31.0246 35.2619 31.1232C34.5722 31.3199 33.883 31.2706 33.2427 31.1725C32.3563 31.0739 31.7648 30.4336 31.2723 29.5965C31.1249 29.2022 30.9775 28.7101 30.8292 28.2661C30.731 27.3797 30.6817 26.4934 30.7803 25.5581C30.8785 24.6225 31.1742 23.7361 31.6174 22.8497C32.0606 21.7658 32.7009 20.8306 33.4394 19.9438C33.5869 19.8949 33.5868 19.7963 33.6361 19.6489C33.6361 19.6 33.6361 19.5507 33.5869 19.5014ZM39.4468 17.5316C39.3482 16.9409 39.2501 16.4978 39.1022 15.9556C38.9539 15.4631 38.7572 15.0692 38.4126 14.7734C38.2158 14.5767 38.0675 14.3303 37.7727 14.1828C37.4769 13.9368 37.2309 13.7396 36.8859 13.5429C36.2952 13.0504 35.2117 14.0842 34.8667 14.4293C33.5371 16.3006 34.8178 18.8611 36.0488 20.1907C37.4774 22.998 40.0867 22.0127 39.4961 18.7137C39.5942 18.3198 39.5942 17.8766 39.4468 17.5316ZM35.0643 27.135C35.015 27.3806 35.015 27.6763 35.015 27.9228C34.9164 28.0213 35.015 28.0702 35.0643 28.1692C35.1624 28.4152 35.3592 28.6617 35.6056 28.7598C35.6549 28.7598 35.6549 28.7598 35.7042 28.711C35.753 28.6617 35.8516 28.6124 35.9009 28.5627C36.738 27.6763 37.3286 26.5435 37.8211 25.4111C38.0675 25.0172 38.1661 24.574 38.3136 24.229C37.1808 23.737 36.6394 24.1802 35.9986 25.0172C35.4582 25.8046 35.3596 26.2478 35.0643 27.135Z" fill="black"/>
<path d="M61.9508 22.4079C61.655 22.8018 61.3593 23.245 61.0644 23.6389C60.7194 24.1313 60.4236 24.6238 60.1772 25.1651C60.1772 25.2144 60.1772 25.3134 60.1283 25.3134C59.7833 25.8055 59.4884 26.298 59.1434 26.6918C58.6012 27.2833 58.1096 27.8247 57.5674 28.3664C57.0252 28.8589 56.4838 29.2528 55.8928 29.5978C55.5482 29.7946 53.7755 30.7306 53.3816 30.7306C52.9384 30.7795 51.3131 30.5823 50.8699 30.7306C50.1803 30.8781 48.7029 30.2382 48.0625 29.9917C47.3729 29.696 46.733 29.3518 46.1424 28.9086C45.2067 28.1697 44.7142 27.1359 44.5664 25.7078C44.4678 24.8707 44.4678 24.0332 44.5664 23.1961C44.6157 22.7036 44.7138 22.2112 44.8621 21.7191C45.0096 21.3741 45.1077 21.0295 45.256 20.6845C45.6006 19.6014 46.1917 18.7146 46.6837 17.7789C46.832 17.5822 46.9301 17.385 47.078 17.1883C47.4719 16.5972 47.8658 16.0555 48.3583 15.6611C48.9489 15.1691 49.4911 14.6273 50.131 14.1842C50.476 13.9381 50.8206 13.84 51.1657 13.84C51.3131 13.84 51.4605 13.7907 51.6088 13.7414C52.0027 13.5447 52.3966 13.4457 52.7408 13.495C52.7901 13.5442 52.7901 13.5442 52.7901 13.495C53.3816 13.4457 53.9229 13.6424 54.4154 13.9874C54.4647 13.9874 54.514 14.0367 54.5628 14.0367C54.6121 14.0367 54.6614 14.0367 54.7111 13.9874C54.8586 13.8888 54.9576 13.84 55.105 13.9381C55.2525 14.0856 55.3515 14.2339 55.3018 14.4799C55.2036 14.7263 55.2525 14.9231 55.351 15.1198C55.4003 15.1691 55.351 15.2673 55.4003 15.317C55.3017 15.4644 55.2036 15.6127 55.1046 15.7602C55.1539 16.0559 55.2032 16.3508 55.3013 16.6465C55.3999 17.0897 55.4487 17.5822 55.4487 18.0254C55.4487 18.2718 55.4488 18.5178 55.3999 18.7643C55.2032 19.6506 54.9074 20.4877 54.5624 21.2759C54.4149 21.6201 54.2178 21.8173 53.9225 21.8666C53.8243 21.8666 53.7253 21.9158 53.6276 21.9158C53.4793 21.9158 53.3811 21.8666 53.3319 21.8173C53.0854 21.5708 52.7404 21.4234 52.4455 21.2759C52.3962 21.2266 52.3469 21.2266 52.2972 21.1774C52.1498 21.0788 52.0516 20.9309 52.1005 20.6849C52.1498 20.4384 52.1991 20.1924 52.2488 19.9952C52.5437 19.0107 52.7901 18.0751 53.1844 17.1394C53.1844 17.0901 53.1844 16.992 53.2333 16.8437C53.1351 16.9423 53.0858 16.9423 53.0365 16.992C52.7408 17.6319 52.2488 18.1248 51.8544 18.6661C51.4605 19.2079 51.1164 19.7989 50.8206 20.4389C50.4267 21.2764 50.0328 22.0641 49.6385 22.9012C49.2446 23.6401 48.9986 24.4772 48.7522 25.3147C48.654 25.5612 48.654 25.8068 48.6047 26.1025C48.5554 26.4475 48.6047 26.7921 48.7522 27.1372C48.9005 27.4321 49.0479 27.7771 49.1953 28.1217C49.2939 28.3184 49.4418 28.5156 49.5892 28.7132C49.8353 29.008 51.0671 28.5156 51.4113 28.4667C52.4952 28.3184 54.8093 27.3339 55.7449 26.4964C56.4839 25.8565 57.8627 24.872 58.503 24.133C58.7495 23.8373 58.9955 23.5416 59.242 23.2467C59.6851 22.6552 61.064 21.6707 61.5071 21.0308C61.7527 20.6857 62.541 20.2426 62.7874 19.8979C62.9348 19.7012 62.7874 20.5876 63.0339 20.4393C62.9353 20.8808 62.2461 22.0629 61.9508 22.4079Z" fill="black"/>
<path d="M69.4359 29.3996C69.6824 29.8921 69.9777 30.3846 70.273 30.7785C70.4701 31.1728 70.7655 31.3699 71.1101 31.3699C71.7015 31.5174 72.194 31.4188 72.6865 31.2216C73.1785 31.0742 74.9513 29.6456 75.493 29.3996C75.6898 29.3015 77.7089 27.1349 77.9554 26.987C78.7436 26.1499 79.3342 25.1152 79.9746 24.0814C80.467 23.2936 80.8609 22.4073 81.3534 21.6191C81.452 21.4223 81.5506 21.2252 81.6491 20.9792C81.698 20.7327 81.7473 20.5853 81.7966 20.3877C82.043 21.0773 82.6829 20.536 82.4862 21.0284C82.3876 21.2749 82.3388 21.5205 82.3388 21.6684C82.2895 22.1608 81.5506 23.1454 81.4031 23.4904C81.1567 24.18 80.9599 24.8199 80.5656 25.4598V25.5584C80.2707 26.149 79.8275 26.7894 79.5318 27.4293C79.1872 27.8232 76.8727 30.3841 76.4788 30.7292C76.1338 31.0241 75.8873 31.1231 75.6413 31.2212C74.9028 31.6155 72.9822 33.1915 72.2433 33.3883C71.7512 33.4864 71.2095 33.6347 70.7166 33.6347C69.9292 33.6836 69.1406 33.3883 68.5993 32.8465C68.3528 32.5508 68.0571 32.2066 67.811 31.862C67.2697 30.9263 66.5801 29.8917 66.0876 28.8086C65.6444 28.2668 65.4961 27.8236 65.0529 28.464C64.9548 28.6114 64.9548 28.9071 64.8562 29.0546C64.6595 29.3503 64.5116 29.6452 64.3637 29.941C64.2656 30.286 64.0689 30.6306 63.9206 30.8766C63.7238 31.0733 63.576 31.1724 63.3299 31.1231C63.1332 31.1231 62.8375 31.1231 62.591 31.3691C61.5572 31.8123 61.1633 31.8123 60.4244 31.1724C59.4887 30.5809 59.1441 29.5471 58.9474 28.464C58.8981 28.3654 58.8981 28.3157 58.8981 28.1682C59.0455 27.4293 58.8981 26.642 58.8488 25.8537C58.7502 24.8692 58.8488 23.8838 58.8981 22.8989C58.9474 22.4557 59.0455 22.0618 59.0455 21.6186C59.0948 20.2398 59.4887 18.9103 59.8338 17.5807C60.0802 16.7925 60.3258 15.9554 60.6215 15.2165C61.0647 13.8381 61.6553 12.4593 62.2468 11.0804C62.5914 10.4889 62.7882 9.84902 63.1332 9.30769C63.9703 7.48567 65.0534 5.71294 66.0388 4.08765C66.7777 3.05299 67.4669 2.0689 68.3039 1.28026C68.6486 0.985373 68.9936 0.640346 69.387 0.345034C69.7321 0.0492935 70.1753 0.0492901 70.6185 0C70.6673 0 70.7659 0.147442 70.8649 0.196732C71.1105 0.738494 71.702 1.0831 72.1945 1.47699C73.0315 2.11776 73.7704 2.90512 74.4596 3.98864C74.7545 4.38296 74.9517 5.02331 74.9517 5.61393C74.9517 5.71251 74.9517 5.90967 74.9517 6.05711C74.9028 6.30356 74.6071 6.50029 74.4596 6.50029C74.3611 6.40214 74.2132 6.35285 74.1146 6.30356C74.0165 6.15612 73.8189 6.05711 73.7207 5.90967C73.2282 5.51578 72.8344 5.56464 72.2926 6.10641C71.8494 6.5003 71.4062 7.04206 70.9137 7.48524C70.8649 7.68197 70.717 7.82984 70.6189 7.97771C70.1264 8.7655 69.5842 9.4547 69.0917 10.1443C69.0917 10.2429 68.9936 10.3908 68.9443 10.4889C68.7476 10.9814 68.5504 11.4739 68.2054 12.0161C67.8608 12.7057 67.4673 13.3949 67.1223 14.1827C66.9255 14.5277 66.7777 14.8226 66.5809 15.2165C66.1866 16.1522 65.6946 17.1375 65.3003 18.1225C64.7589 19.3037 64.2665 20.5355 63.9214 21.7661C63.8726 22.0618 63.774 22.2586 63.7247 22.505C63.5772 23.1449 63.4782 23.8346 63.2815 24.3763C63.0848 25.9523 63.5279 25.9026 63.873 25.3608C64.611 24.228 65.1532 22.8985 65.9903 21.7661C66.8278 20.5844 67.763 19.4027 68.7977 18.4174C69.8808 17.5803 70.8662 17.2845 71.9986 17.4817C72.2442 17.4817 72.4417 17.63 72.5892 17.9249C72.6385 18.0732 72.6878 18.1225 72.7859 18.2699C73.1798 18.8113 73.3277 19.4027 73.3277 20.0919C73.3277 21.274 73.1794 22.4553 72.7859 23.6867C72.7366 23.8834 72.7366 23.9824 72.6878 24.1792C72.4418 24.8191 72.1953 25.3604 71.7521 25.9519C71.4564 26.1983 71.2596 26.4932 71.0132 26.69C70.6682 27.1336 70.2743 27.4289 69.8804 27.5767C69.6836 27.6256 69.4372 27.7242 69.2405 27.8223C69.0922 27.8223 69.0922 28.0199 68.9447 28.0688C68.9927 28.6616 69.2387 29.0555 69.4359 29.3996ZM59.0451 24.8204C59.0451 24.8696 59.0451 24.8697 59.0451 24.9678C59.0451 25.2635 59.0451 25.5593 59.0451 25.8542C59.1437 25.2635 59.1437 25.2142 59.0451 24.8204ZM68.0073 21.7669C67.8106 22.2594 67.6627 22.7026 67.4167 23.0476C67.22 23.5397 66.9243 23.8847 66.7768 24.3279C66.2351 25.1157 67.7613 24.6236 68.0571 24.3279C69.2392 23.4415 70.0762 22.0627 70.7162 20.536C71.5044 17.975 70.5687 18.2215 69.3373 19.7971C68.7956 20.3881 68.3031 21.0773 68.0073 21.7669Z" fill="black"/>
<path d="M84.4559 26.2486C83.6189 26.6918 82.5358 26.6429 81.9936 26.7903C81.5504 26.7903 80.4176 26.5443 80.0734 26.3472C78.842 25.6082 78.7927 25.2641 78.5463 23.6388C78.3988 23.2449 78.497 22.3585 78.7927 21.5703C79.0392 20.4375 81.6983 16.3503 82.1414 15.3165C82.3879 14.7747 82.6339 14.2334 83.0278 13.6419C83.1761 13.2973 83.4221 13.1987 83.6686 13.0513C84.0132 12.9038 84.3574 12.9038 84.6038 12.6574C85.3427 12.2635 84.8005 11.9184 85.2934 11.8691C85.7859 11.8691 86.131 12.0659 86.3774 12.4109C86.5741 12.4602 86.5741 12.7066 86.7713 12.9034C86.9187 13.0015 86.8694 13.1983 86.8694 13.3959C86.5746 14.6268 85.4906 16.9413 85.1953 18.1234C84.9488 18.468 84.8503 19.8469 84.7521 20.1426C84.6535 20.6346 84.5549 21.0778 84.3089 21.5703C84.2103 21.9642 83.9639 22.7031 84.2103 22.8998C84.4071 23.1463 84.5061 23.9838 84.801 23.8848C85.9831 23.2449 87.5587 23.1952 88.199 22.4078C88.5933 21.866 88.8398 22.1121 89.2337 21.6196C89.5778 21.2754 89.6768 20.9797 89.8243 20.7332C90.12 20.0933 90.1693 20.29 90.4158 19.7483C90.7107 19.1084 91.1538 18.5173 91.5486 17.9755C91.696 17.5324 91.8928 17.2366 92.1885 16.8427C92.681 16.6953 92.6317 16.7446 92.8288 16.7934C93.5678 16.7446 92.927 16.7934 93.3702 17.0399C93.4688 17.2366 93.3702 17.4342 93.5185 17.5324C93.1734 18.468 93.1246 19.4534 92.6814 20.5365C92.5331 20.8811 92.6321 20.5365 92.3364 20.9797C92.3856 21.2754 92.1889 21.7186 91.9918 22.1125C91.7942 22.5557 91.8435 23.097 91.5486 23.4913C91.1543 25.1655 90.9571 26.0518 90.9571 26.2486C90.8097 26.8893 92.5331 27.3325 94.2565 26.7903C95.3894 26.2979 97.4081 24.3777 98.3437 22.851C98.6888 22.2595 98.9845 21.6689 99.5259 20.8807C100.018 19.9943 100.412 21.4721 100.215 21.8163C100.068 22.0628 99.969 22.2595 99.9197 22.4078C99.5258 22.7031 99.0827 24.2787 98.7385 24.5744C98.6399 24.6726 98.6892 24.8209 98.4428 24.919C97.8028 25.7565 96.5217 27.1354 95.5372 27.9231C95.094 28.0217 95.0448 28.1696 94.6016 28.3663C94.2565 28.7114 94.1584 28.7602 93.7152 29.0062C93.3702 29.1545 93.3213 29.203 93.173 29.3513C92.7791 29.2527 92.681 29.4001 92.5331 29.4987C91.5975 30.0405 87.6088 30.2376 87.3131 28.5631C87.0666 27.0368 86.821 26.1997 87.2642 24.5251C87.2642 24.3777 87.2642 24.3777 87.2642 24.3284C86.5737 25.0176 85.293 25.7072 84.4559 26.2486Z" fill="black"/>
<path d="M111.687 22.5545C111.736 23.7854 112.13 23.3422 113.952 23.0469C114.543 22.9483 115.429 22.7019 116.315 21.8155C116.758 21.3724 117.3 21.9141 117.547 22.1606C117.547 22.3573 116.907 23.3418 116.808 23.4408C114.739 24.6718 113.656 24.6718 112.129 24.8694C110.898 25.1643 110.8 25.8046 110.357 26.7895L110.16 27.1834C110.012 27.7749 109.668 28.2181 109.421 28.6613C109.322 28.7594 109.224 28.9073 109.125 28.9562L108.633 29.5476C108.436 29.8923 108.141 30.2866 107.796 30.5322L107.452 30.9265L106.959 31.3697C106.811 31.4185 106.663 31.4185 106.516 31.3697C106.368 31.2711 106.171 31.1236 106.024 31.0739C105.974 30.9265 105.974 30.7782 105.974 30.6307C105.876 30.1876 105.728 29.7937 105.285 29.7444C105.088 29.6458 104.94 29.4486 104.792 29.3012C104.595 29.0055 104.448 28.9073 104.201 28.7594C103.758 28.4641 103.66 27.6763 104.054 27.036C104.251 26.5928 104.497 26.3464 104.792 26.1496C105.088 25.9032 105.433 25.7064 105.777 25.559C106.368 25.1647 106.91 25.1647 107.55 24.8694C107.895 24.6718 108.142 24.3276 108.338 23.7854C108.683 22.5052 109.077 20.6339 109.225 19.3043V17.6302C109.225 17.5316 109.225 17.4334 109.176 17.3344C109.126 17.088 108.88 16.9898 108.732 17.187C108.634 17.2358 108.585 17.2851 108.536 17.4334C108.191 17.9748 107.846 18.5165 107.6 19.1076C106.861 20.5357 106.171 22.0624 105.433 23.4412C104.891 24.4751 104.399 25.4107 103.955 26.4942C103.217 28.267 101.543 30.0401 100.903 31.9607C100.754 32.3058 100.656 32.6504 100.361 32.8471C100.114 32.9457 100.016 33.3396 100.016 33.6353C100.016 33.9795 99.9668 34.3734 99.8678 34.6691C99.7697 34.8658 99.6711 35.063 99.573 35.1616C99.2772 35.5057 99.1786 35.7522 99.0312 35.9987C98.5387 37.23 98.1448 38.461 98.0462 39.7906C97.9974 40.3821 97.9974 40.9727 97.8495 41.5633C97.8006 42.0065 97.603 42.3515 97.2589 42.499C97.0124 42.6473 96.8157 42.844 96.6683 43.2379C96.619 43.2872 96.4707 43.4843 96.4218 43.4843C96.2735 43.4843 96.2242 43.8289 96.1261 43.9768H96.0768C95.289 44.1242 94.7965 43.5336 94.5008 42.598C94.205 41.6623 94.1069 40.6285 94.0576 39.6431C93.9594 37.2789 94.1069 35.0141 94.4026 32.6504C94.5008 31.7147 94.6975 30.7302 94.8458 29.843C95.0425 28.3163 95.3871 26.79 95.781 25.3618C96.3232 23.1952 96.9138 21.0775 97.5546 19.0099C97.7021 18.5174 97.8992 18.0742 98.0467 17.4827C98.6381 16.0057 99.1306 14.4297 99.7212 12.9034C99.9677 12.1645 100.361 11.3274 100.707 10.589C100.953 10.3922 101.199 10.3922 101.445 10.589L102.627 11.3279L102.676 11.3772C103.415 12.2635 103.858 13.3466 104.006 14.824C104.104 15.563 104.055 16.4 103.858 17.2367C103.562 18.4188 103.217 19.6995 102.774 20.9305C102.479 21.7187 102.184 22.7032 101.888 23.5895C101.1 26.3472 102.676 26.003 103.021 25.1655C103.169 24.7717 103.907 23.7867 104.055 23.2947L105.68 19.9455C105.926 19.3056 106.172 18.8624 106.567 18.3695C106.911 17.9756 107.256 17.4831 107.65 17.0893C107.945 16.7935 108.388 16.5479 108.733 16.5479H109.57C110.013 16.4493 110.407 16.8428 110.801 17.1878C111.048 17.3353 111.244 17.7292 111.294 18.1235C111.343 18.5174 111.441 18.9606 111.441 19.3047L111.638 20.7333L111.687 22.5545ZM105.925 26.4449C105.63 26.5924 105.433 26.937 105.433 27.528C105.482 27.7745 105.63 27.9712 105.777 27.9712C105.876 27.8726 106.024 27.8726 106.123 27.7745C106.368 27.6262 106.615 27.4295 106.763 27.183C107.304 26.4449 107.501 25.6567 107.353 25.952C106.811 26.1985 106.368 26.0999 105.925 26.4449Z" fill="black"/>
</svg>
