<svg width="20" height="20" viewBox="0 0 20 20" fill="none" xmlns="http://www.w3.org/2000/svg">
<path d="M9.58887 1.6001C7.5218 1.70509 5.56111 2.57288 4.09082 4.04346C2.52511 5.6095 1.64292 7.73162 1.6377 9.9458L1.66992 10.4585C2.58697 21.0518 17.9178 20.879 18.3701 9.9458C18.3644 7.73149 17.482 5.60944 15.916 4.04346C14.3475 2.47496 12.2211 1.59227 10.0029 1.58936L9.58887 1.6001ZM19.4238 9.95654C19.4208 12.4539 18.4272 14.848 16.6611 16.6138C15.0053 18.2693 12.7972 19.2462 10.4697 19.3638L10.0029 19.3755C7.50588 19.3725 5.1114 18.3794 3.3457 16.6138C1.58 14.8481 0.586996 12.4536 0.583984 9.95654V9.9458L0.621094 9.36963C1.6541 -2.53622 18.9163 -2.34011 19.4238 9.9458V9.95654Z" fill="#3B3B3B" stroke="#3B3B3B" stroke-width="0.5"/>
<path d="M6.20508 10.8435C6.34465 10.8436 6.47843 10.8991 6.57715 10.9978C6.67597 11.0966 6.73145 11.2311 6.73145 11.3708V14.7048C6.73145 14.8446 6.67597 14.9791 6.57715 15.0779C6.47844 15.1765 6.34459 15.2321 6.20508 15.2322C6.06538 15.2322 5.93084 15.1766 5.83203 15.0779C5.73321 14.9791 5.67773 14.8446 5.67773 14.7048V11.3708C5.67773 11.2311 5.73321 11.0966 5.83203 10.9978C5.93085 10.899 6.06532 10.8435 6.20508 10.8435Z" fill="#3B3B3B" stroke="#3B3B3B" stroke-width="0.5"/>
<path d="M10.0039 8.61499C10.1435 8.61509 10.2773 8.67062 10.376 8.76929C10.4748 8.86811 10.5303 9.00258 10.5303 9.14233V14.6941C10.5317 14.7641 10.519 14.834 10.4932 14.8992C10.4673 14.9643 10.429 15.0239 10.3799 15.074C10.3309 15.124 10.2725 15.164 10.208 15.1912C10.1435 15.2182 10.0739 15.2321 10.0039 15.2322C9.8642 15.2322 9.72967 15.1766 9.63086 15.0779C9.53204 14.9791 9.47656 14.8446 9.47656 14.7048V9.14233L9.48633 9.03882C9.50654 8.93744 9.55668 8.84346 9.63086 8.76929C9.72968 8.67046 9.86415 8.61499 10.0039 8.61499Z" fill="#3B3B3B" stroke="#3B3B3B" stroke-width="0.5"/>
<path d="M13.8008 10.8435C13.9404 10.8436 14.0741 10.8991 14.1729 10.9978C14.2717 11.0966 14.3271 11.2311 14.3271 11.3708V14.7048C14.3271 14.8446 14.2717 14.9791 14.1729 15.0779C14.0741 15.1765 13.9403 15.2321 13.8008 15.2322C13.6611 15.2322 13.5265 15.1766 13.4277 15.0779C13.3289 14.9791 13.2734 14.8446 13.2734 14.7048V11.3708C13.2734 11.2311 13.3289 11.0966 13.4277 10.9978C13.5266 10.899 13.661 10.8435 13.8008 10.8435Z" fill="#3B3B3B" stroke="#3B3B3B" stroke-width="0.5"/>
<path d="M18.2617 6.23682C18.4013 6.2369 18.5351 6.29245 18.6338 6.39111C18.7326 6.48994 18.7881 6.6244 18.7881 6.76416C18.788 6.90378 18.7325 7.0375 18.6338 7.13623C18.535 7.23496 18.4013 7.29044 18.2617 7.29053H1.74609C1.60634 7.29053 1.47187 7.23505 1.37305 7.13623C1.27438 7.03751 1.21885 6.90373 1.21875 6.76416C1.21875 6.6244 1.27422 6.48994 1.37305 6.39111C1.47187 6.29229 1.60634 6.23682 1.74609 6.23682H18.2617Z" fill="#3B3B3B" stroke="#3B3B3B" stroke-width="0.5"/>
<path d="M17.5234 14.178L17.627 14.1877C17.728 14.208 17.8215 14.2584 17.8955 14.3323C17.9943 14.4311 18.0498 14.5656 18.0498 14.7053C18.0497 14.8449 17.9942 14.9787 17.8955 15.0774C17.7967 15.1761 17.6631 15.2317 17.5234 15.2317H2.49805C2.35829 15.2317 2.22382 15.1762 2.125 15.0774C2.02633 14.9787 1.97081 14.8449 1.9707 14.7053C1.9707 14.5656 2.02618 14.4311 2.125 14.3323C2.22382 14.2335 2.35829 14.178 2.49805 14.178H17.5234Z" fill="#3B3B3B" stroke="#3B3B3B" stroke-width="0.5"/>
</svg>
