<svg width="16" height="14" viewBox="0 0 16 14" fill="none" xmlns="http://www.w3.org/2000/svg">
<path d="M15.1123 5.28183C15.0132 4.9865 14.741 4.77674 14.4191 4.74881L10.0458 4.36657L8.31655 0.470374C8.18904 0.184834 7.89864 0 7.576 0C7.25335 0 6.96296 0.184834 6.83545 0.471042L5.10615 4.36657L0.732223 4.74881C0.410849 4.77741 0.139415 4.9865 0.0396497 5.28183C-0.0601151 5.57717 0.0320199 5.9011 0.275132 6.10529L3.58078 8.89593L2.60602 13.0292C2.53469 13.3331 2.65723 13.6472 2.91919 13.8295C3.05999 13.9274 3.22473 13.9772 3.39085 13.9772C3.53408 13.9772 3.67615 13.9401 3.80366 13.8666L7.576 11.6964L11.3469 13.8666C11.6229 14.0264 11.9707 14.0119 12.2321 13.8295C12.4942 13.6466 12.6166 13.3324 12.5453 13.0292L11.5705 8.89593L14.8762 6.10585C15.1193 5.9011 15.2121 5.57772 15.1123 5.28183Z" fill="#BEB9B9"/>
<g clip-path="url(#clip0_276_115)">
<path d="M15.1105 5.28183C15.0113 4.9865 14.7392 4.77674 14.4173 4.74881L10.0446 4.36657L8.31552 0.470374C8.18802 0.184834 7.89767 0 7.57506 0C7.25245 0 6.9621 0.184834 6.8346 0.471042L5.10552 4.36657L0.732133 4.74881C0.410798 4.77741 0.139397 4.9865 0.0396448 5.28183C-0.0601077 5.57717 0.032016 5.9011 0.275098 6.10529L3.58034 8.89593L2.6057 13.0292C2.53438 13.3331 2.6569 13.6472 2.91883 13.8295C3.05961 13.9274 3.22433 13.9772 3.39043 13.9772C3.53364 13.9772 3.6757 13.9401 3.80319 13.8666L7.57506 11.6964L11.3455 13.8666C11.6215 14.0264 11.9693 14.0119 12.2306 13.8295C12.4926 13.6466 12.615 13.3324 12.5437 13.0292L11.5691 8.89593L14.8743 6.10585C15.1174 5.9011 15.2102 5.57772 15.1105 5.28183Z" fill="#FFC107"/>
</g>
<defs>
<clipPath id="clip0_276_115">
<rect width="7.55" height="13.9772" fill="white"/>
</clipPath>
</defs>
</svg>
