<svg width="16" height="14" viewBox="0 0 16 14" fill="none" xmlns="http://www.w3.org/2000/svg">
<path d="M15.1123 5.2955C15.0132 5.00017 14.741 4.79041 14.4191 4.76248L10.0458 4.38024L8.31655 0.484046C8.18904 0.198505 7.89864 0.0136719 7.576 0.0136719C7.25335 0.0136719 6.96296 0.198505 6.83545 0.484714L5.10615 4.38024L0.732223 4.76248C0.410849 4.79108 0.139415 5.00017 0.0396497 5.2955C-0.0601151 5.59084 0.0320199 5.91477 0.275132 6.11897L3.58078 8.90961L2.60602 13.0428C2.53469 13.3467 2.65723 13.6609 2.91919 13.8431C3.05999 13.9411 3.22473 13.9909 3.39085 13.9909C3.53408 13.9909 3.67615 13.9537 3.80366 13.8803L7.576 11.71L11.3469 13.8803C11.6229 14.0401 11.9707 14.0255 12.2321 13.8431C12.4942 13.6603 12.6166 13.3461 12.5453 13.0428L11.5705 8.90961L14.8762 6.11952C15.1193 5.91477 15.2121 5.59139 15.1123 5.2955Z" fill="#FFC107"/>
</svg>
