<svg width="13" height="13" viewBox="0 0 13 13" fill="none" xmlns="http://www.w3.org/2000/svg">
<g clip-path="url(#clip0_1_3462)">
<path d="M2.22109 11.2501C2.54061 11.5696 3.05865 11.5696 3.37817 11.2501L12.6509 1.97735C12.9704 1.65782 12.9704 1.13986 12.6509 0.820333C12.3314 0.500807 11.8133 0.500807 11.4938 0.820333L2.22109 10.093C1.90156 10.4125 1.90156 10.9306 2.22109 11.2501Z" fill="white"/>
<path d="M12.072 12.0347C12.5238 12.0347 12.8901 11.6684 12.8901 11.2165V1.39826C12.8901 0.946405 12.5238 0.580078 12.072 0.580078H2.25373C1.80185 0.580078 1.43555 0.946405 1.43555 1.39826C1.43555 1.85022 1.80185 2.21644 2.25373 2.21644H11.2538V11.2165C11.2538 11.6684 11.62 12.0347 12.072 12.0347Z" fill="white"/>
</g>
<defs>
<clipPath id="clip0_1_3462">
<rect width="12" height="12" fill="white" transform="matrix(1 0 0 -1 0.96875 12.5)"/>
</clipPath>
</defs>
</svg>
