<svg width="54" height="52" viewBox="0 0 54 52" fill="none" xmlns="http://www.w3.org/2000/svg">
<path d="M42.2617 30.4103C48.1998 30.2763 53.1171 34.9769 53.2529 40.9142L53.2559 41.2921C53.2374 43.1751 52.7062 44.9528 51.7988 46.4903L51.7979 46.4894C51.2577 47.4569 50.5363 48.337 49.7373 49.0577L49.7383 49.0587C47.8819 50.7806 45.4339 51.8277 42.7256 51.9083L42.7178 51.9093C38.8009 51.9896 35.3344 49.978 33.4219 46.8888V46.8898C32.4007 45.304 31.7814 43.3957 31.7529 41.3771L31.75 41.0607C31.7672 37.7987 33.2544 34.8601 35.5977 32.9073L35.6006 32.9054C37.4216 31.4057 39.732 30.4632 42.2617 30.4093V30.4103ZM42.2939 31.9093C40.1238 31.9555 38.1336 32.7624 36.5547 34.0626C34.5402 35.7429 33.2646 38.2669 33.25 41.0694L33.2529 41.3409V41.3487C33.2745 42.9691 33.7421 44.5107 34.5234 45.8194L34.6836 46.0782L34.6914 46.09C36.3292 48.7425 39.3053 50.4762 42.6807 50.4093L43.1172 50.3868C45.2831 50.2249 47.224 49.3446 48.7178 47.9591L48.7266 47.9513C49.4194 47.3277 50.0403 46.5665 50.4971 45.7442C50.5002 45.7386 50.5036 45.7332 50.5068 45.7276C51.3389 44.3178 51.7989 42.6812 51.7529 40.9542V40.9513C51.6373 35.8402 47.4055 31.7927 42.2949 31.9083L42.2939 31.9093Z" fill="black"/>
<path d="M37.4268 45.4248V43.0811C37.4269 42.6669 37.7626 42.3311 38.1768 42.3311H40.2949C40.7091 42.3311 41.0448 42.6669 41.0449 43.0811C41.0449 43.4953 40.7091 43.8311 40.2949 43.8311H39.7959C40.4432 44.4175 41.3117 44.9375 42.3438 44.9375C44.517 44.9375 46.2812 43.1733 46.2812 41C46.2812 40.5858 46.617 40.25 47.0312 40.25C47.4455 40.25 47.7812 40.5858 47.7812 41C47.7812 44.0017 45.3455 46.4375 42.3438 46.4375C40.8777 46.4375 39.7164 45.7393 38.9268 45.0596V45.4248C38.9268 45.839 38.5909 46.1747 38.1768 46.1748C37.7625 46.1748 37.4268 45.839 37.4268 45.4248ZM36.9062 41C36.9062 38.0002 39.3213 35.5625 42.3438 35.5625C44.0907 35.5625 45.406 36.2791 46.2812 36.9932V36.5752C46.2812 36.161 46.617 35.8252 47.0312 35.8252C47.4455 35.8252 47.7812 36.161 47.7812 36.5752V38.9189C47.7811 39.3331 47.4454 39.6689 47.0312 39.6689H44.9502C44.536 39.6689 44.2003 39.3331 44.2002 38.9189C44.2002 38.5047 44.536 38.1689 44.9502 38.1689H45.3506C44.6639 37.6039 43.6661 37.0625 42.3438 37.0625C40.1537 37.0625 38.4062 38.8248 38.4062 41C38.4062 41.4142 38.0705 41.75 37.6562 41.75C37.242 41.75 36.9062 41.4142 36.9062 41Z" fill="black"/>
<path d="M2.27504 14.224C2.48254 13.8656 2.94196 13.7431 3.30043 13.9506L24.9987 26.5082L46.5485 14.0258C46.9069 13.8182 47.3653 13.9408 47.5729 14.2992C47.7805 14.6576 47.6587 15.116 47.3004 15.3236L25.3756 28.0238C25.1432 28.1585 24.8562 28.1584 24.6237 28.0238L2.54848 15.2494C2.19006 15.0419 2.06759 14.5825 2.27504 14.224Z" fill="black"/>
<path d="M24.2495 50.0249V27.3501C24.2495 26.9359 24.5853 26.6001 24.9995 26.6001C25.4137 26.6001 25.7495 26.9359 25.7495 27.3501V50.0249C25.7495 50.4391 25.4137 50.7749 24.9995 50.7749C24.5853 50.7749 24.2495 50.4391 24.2495 50.0249Z" fill="black"/>
<path d="M48.2744 18.9248C48.2744 17.3659 47.7098 15.5838 46.7627 13.9775C45.8748 12.4719 44.6884 11.1842 43.417 10.4053L43.1611 10.2559L29.8105 2.85645L29.8076 2.85352C28.5224 2.13202 26.782 1.75006 25 1.75C23.2178 1.75 21.4767 2.13193 20.1914 2.85352L20.1885 2.85645L6.83789 10.2559C5.4705 11.013 4.18346 12.3713 3.23633 13.9775C2.28918 15.5838 1.72466 17.3659 1.72461 18.9248V33.0752C1.72464 34.6341 2.28916 36.4161 3.23633 38.0225C4.12417 39.5281 5.31064 40.8157 6.58203 41.5947L6.83789 41.7441L20.1885 49.1445L20.1914 49.1465C21.4767 49.8681 23.2178 50.25 25 50.25C26.7821 50.2499 28.5224 49.868 29.8076 49.1465L29.8125 49.1436L33.624 47.0381C33.5144 46.8782 33.4085 46.7144 33.3115 46.5439L33.1289 46.2373C32.2453 44.6876 31.75 42.8896 31.75 41C31.75 37.6155 33.3084 34.576 35.7832 32.6123C37.6339 31.1376 39.9721 30.25 42.5 30.25C44.6382 30.2501 46.6093 30.8654 48.2744 31.9434V18.9248ZM49.7744 33.0752C49.7744 33.1964 49.7767 33.3655 49.7354 33.5723C49.6829 33.8344 49.4943 34.0486 49.2412 34.1348C48.9881 34.2209 48.7084 34.1659 48.5068 33.9902C46.8897 32.581 44.8136 31.7501 42.5 31.75C40.3285 31.75 38.3159 32.5115 36.7168 33.7861L36.7158 33.7871C34.5907 35.4734 33.25 38.0846 33.25 41C33.25 42.6261 33.6765 44.1681 34.4326 45.4941L34.5879 45.7568L34.6035 45.7822C34.7992 46.1301 35.0435 46.4653 35.3193 46.7871C35.4659 46.9583 35.5273 47.1864 35.4873 47.4082C35.4472 47.6301 35.3097 47.8226 35.1123 47.9316L30.5371 50.457L30.5361 50.4561C28.9723 51.3325 26.9655 51.7499 25 51.75C23.0322 51.75 21.0217 51.3325 19.457 50.4541V50.4531L6.11133 43.0557V43.0566C4.45382 42.1388 2.99091 40.5591 1.94434 38.7842C0.897817 37.0094 0.224635 34.9662 0.224609 33.0752V18.9248C0.224657 17.0338 0.897835 14.9906 1.94434 13.2158C2.99088 11.441 4.45389 9.86213 6.11133 8.94434L19.4609 1.54395C21.0251 0.666895 23.0337 0.25 25 0.25C26.9661 0.25006 28.974 0.666995 30.5381 1.54395L43.8887 8.94434H43.8877C45.5452 9.86211 47.0081 11.441 48.0547 13.2158C49.1012 14.9906 49.7744 17.0338 49.7744 18.9248V33.0752Z" fill="black"/>
</svg>
