<svg width="36" height="36" viewBox="0 0 36 36" fill="none" xmlns="http://www.w3.org/2000/svg">
<path d="M21 14.304V10.5C21 8.9087 21.6321 7.38258 22.7574 6.25736C23.8826 5.13214 25.4087 4.5 27 4.5H29.25C29.4489 4.5 29.6397 4.57902 29.7803 4.71967C29.921 4.86032 30 5.05109 30 5.25V7.5C30 9.0913 29.3679 10.6174 28.2426 11.7426C27.1174 12.8679 25.5913 13.5 24 13.5C22.4087 13.5 20.8826 14.1321 19.7574 15.2574C18.6321 16.3826 18 17.9087 18 19.5C18 22.5 19.5 24 19.5 27C19.5 28.6228 18.9737 30.2018 18 31.5" stroke="black" stroke-width="2" stroke-linecap="round" stroke-linejoin="round"/>
<path d="M6 13.5C7.11427 12.6643 8.43925 12.1554 9.82646 12.0303C11.2137 11.9052 12.6083 12.1689 13.8541 12.7918C15.0999 13.4147 16.1476 14.3722 16.8799 15.557C17.6121 16.7418 18 18.1072 18 19.5C16.8857 20.3357 15.5608 20.8446 14.1735 20.9697C12.7863 21.0948 11.3917 20.8311 10.1459 20.2082C8.90011 19.5853 7.85238 18.6278 7.12012 17.443C6.38786 16.2582 6 14.8928 6 13.5Z" stroke="black" stroke-width="2" stroke-linecap="round" stroke-linejoin="round"/>
<path d="M7.5 31.5H28.5" stroke="black" stroke-width="2" stroke-linecap="round" stroke-linejoin="round"/>
</svg>
